<svg version="1.1" xmlns="http://www.w3.org/2000/svg" viewBox="0 0 1041.834201649224 573.5033355460332" width="1041.834201649224" height="573.5033355460332">
  <!-- svg-source:excalidraw -->
  
  <defs>
    <style>
      @font-face {
        font-family: "Virgil";
        src: url("https://unpkg.com/@excalidraw/excalidraw@0.12.0-32d8221/dist/excalidraw-assets/Virgil.woff2");
      }
      @font-face {
        font-family: "Cascadia";
        src: url("https://unpkg.com/@excalidraw/excalidraw@0.12.0-32d8221/dist/excalidraw-assets/Cascadia.woff2");
      }
    </style>
  </defs>
  <g stroke-linecap="round" transform="translate(378.11098480224587 221.61445513424945) rotate(0 65.5 45)"><path d="M-3.58 -0.95 L134.31 0.45 L128.42 88.48 L-3.11 91.35" stroke="none" stroke-width="0" fill="#15aabf"></path><path d="M-0.95 2.24 C39.15 -4.1, 75.09 -3.31, 133.4 1.35 M-0.02 1.84 C26.08 -1.94, 54.15 -1.49, 132.31 1.04 M128.73 3.58 C134.8 21.13, 130.7 44.94, 129.13 87.85 M131.98 -0.27 C129.56 32.94, 132.05 67.87, 132.97 91.94 M130.27 87.58 C100.25 92.07, 74.11 94.15, 3.88 92.19 M129.09 88.01 C98.15 89.85, 63.11 89.82, -1.32 91.19 M1.58 91.24 C0.29 55.76, -0.85 16.95, -3.21 -2.14 M-0.54 89.64 C-0.82 56.67, 1.8 21.12, 1.62 0.84" stroke="#1864ab" stroke-width="4" fill="none"></path></g><g transform="translate(409.61098480224587 253.11445513424945) rotate(0 34 12.5)"><text x="34" y="17" font-family="Virgil, Segoe UI Emoji" font-size="20px" fill="#343a40" text-anchor="middle" style="white-space: pre;" direction="ltr">Domain</text></g><g stroke-linecap="round"><g transform="translate(587.979133898071 101.90597675182221) rotate(0 36.668915034284396 41.0765143654021)" fill-rule="evenodd"><path d="M-1.85 -1.18 L1.41 80.05 L-0.14 80.98 L17.07 85.98 L40.55 90.1 L62.06 85.94 L74.28 81.1 L72.18 -3.08 L66.66 -4.28 L37.16 -6.96 L8.12 -3.79 L5.08 -1.25 L-1.7 0.79" stroke="none" stroke-width="0" fill="#fab005" fill-rule="evenodd"></path><path d="M0.67 0.45 C0.47 12.55, -0.38 58.85, -0.59 72.33 C-0.8 85.82, -1.39 79.56, -0.59 81.37 C0.21 83.17, 1.22 82.17, 4.23 83.16 C7.23 84.15, 11.56 86.3, 17.44 87.32 C23.33 88.34, 32.44 89.55, 39.52 89.26 C46.59 88.98, 54.57 86.78, 59.88 85.62 C65.2 84.46, 68.92 83.13, 71.39 82.31 C73.87 81.49, 74.38 81.98, 74.74 80.68 C75.1 79.38, 73.63 87.08, 73.56 74.53 C73.48 61.98, 74.1 17.76, 74.29 5.39 C74.48 -6.97, 75.65 1.99, 74.68 0.35 C73.71 -1.29, 71.11 -3.3, 68.48 -4.44 C65.85 -5.57, 64.43 -6.1, 58.9 -6.47 C53.36 -6.84, 42.13 -6.58, 35.29 -6.66 C28.45 -6.74, 23.12 -7.51, 17.86 -6.95 C12.61 -6.38, 6.93 -4.27, 3.77 -3.26 C0.6 -2.25, -0.58 -1.34, -1.14 -0.88 C-1.7 -0.41, 0.01 -0.82, 0.4 -0.48 M-0.43 -0.37 C-0.31 11.96, 1.88 60.54, 1.68 73.83 C1.47 87.13, -2.17 77.75, -1.67 79.4 C-1.17 81.05, 1.72 82.32, 4.69 83.71 C7.66 85.11, 10.12 86.91, 16.16 87.76 C22.2 88.61, 33.62 88.87, 40.92 88.8 C48.22 88.74, 54.53 88.6, 59.96 87.39 C65.39 86.18, 71.27 82.86, 73.52 81.57 C75.78 80.27, 73.4 80.77, 73.48 79.62 C73.56 78.47, 73.79 86.93, 74 74.66 C74.21 62.4, 74.79 18.42, 74.76 6.02 C74.73 -6.38, 74.87 2.2, 73.83 0.26 C72.79 -1.67, 71.12 -4.37, 68.52 -5.57 C65.93 -6.77, 63.78 -6.76, 58.24 -6.95 C52.7 -7.14, 41.81 -6.88, 35.28 -6.7 C28.74 -6.52, 24.44 -6.56, 19.03 -5.88 C13.63 -5.19, 5.89 -3.42, 2.82 -2.6 C-0.24 -1.78, 1.26 -1.3, 0.66 -0.95 C0.05 -0.59, -0.45 -0.63, -0.78 -0.47" stroke="#e67700" stroke-width="4" fill="none"></path></g></g><g stroke-linecap="round" transform="translate(588.2422708093688 93.24502624800789) rotate(0 36.87328346275217 7.457344171239706)"><path d="M44.03 1.03 C51.47 1.16, 59.14 1.88, 64.14 3.03 C69.15 4.17, 73.82 6.34, 74.06 7.9 C74.29 9.47, 70.75 11.41, 65.58 12.42 C60.4 13.44, 50.9 13.59, 42.99 13.99 C35.07 14.4, 24.87 15.56, 18.08 14.84 C11.28 14.13, 4.93 11.38, 2.23 9.7 C-0.46 8.02, -0.71 6.06, 1.89 4.76 C4.48 3.47, 9.42 2.5, 17.8 1.92 C26.18 1.35, 45.29 1.29, 52.18 1.3 C59.08 1.32, 59.71 2.04, 59.18 2 M51.13 -0.54 C58.25 -0.1, 67.01 0.99, 70.44 2.66 C73.87 4.34, 73.71 7.7, 71.72 9.51 C69.74 11.32, 64.62 12.51, 58.53 13.53 C52.44 14.55, 43.04 15.49, 35.18 15.62 C27.32 15.76, 16.98 15.7, 11.38 14.33 C5.78 12.96, 2.37 9.01, 1.58 7.41 C0.8 5.82, 2.74 5.71, 6.66 4.75 C10.58 3.79, 17.38 2.43, 25.12 1.65 C32.86 0.86, 48.8 0.35, 53.11 0.04 C57.43 -0.27, 51.4 -0.22, 51.03 -0.22" stroke="none" stroke-width="0" fill="#fab005"></path><path d="M36.14 -0.87 C43.76 -1.09, 53.9 0.4, 60.04 1.69 C66.18 2.98, 71.58 5.46, 72.98 6.87 C74.37 8.28, 72.31 8.99, 68.43 10.13 C64.55 11.28, 56.77 12.93, 49.68 13.75 C42.6 14.57, 33.38 15.3, 25.92 15.06 C18.47 14.81, 9.18 13.84, 4.97 12.3 C0.75 10.76, -0.75 7.45, 0.63 5.81 C2.01 4.16, 7 3.47, 13.26 2.42 C19.52 1.37, 33.53 -0.04, 38.17 -0.49 C42.82 -0.93, 41.18 -0.61, 41.12 -0.27 M40.71 -1.33 C48.12 -1.3, 57.09 1.17, 62.48 2.8 C67.88 4.43, 72.14 7.17, 73.07 8.45 C74 9.73, 72.78 9.24, 68.05 10.49 C63.33 11.73, 52.7 15.45, 44.73 15.91 C36.77 16.37, 27.43 14.15, 20.27 13.24 C13.11 12.33, 5.07 11.62, 1.78 10.44 C-1.5 9.26, -2.13 7.53, 0.55 6.13 C3.23 4.74, 11.22 3.04, 17.86 2.07 C24.5 1.11, 36.62 0.92, 40.37 0.37 C44.12 -0.19, 40.56 -1.52, 40.34 -1.24" stroke="#e67700" stroke-width="4" fill="none"></path></g><g transform="translate(599.3334655761721 122.4478393302129) rotate(0 33.5 25.5)"><text x="0" y="17.5" font-family="Virgil, Segoe UI Emoji" font-size="20px" fill="#343a40" text-anchor="start" style="white-space: pre;" direction="ltr">Event </text><text x="0" y="43" font-family="Virgil, Segoe UI Emoji" font-size="20px" fill="#343a40" text-anchor="start" style="white-space: pre;" direction="ltr">Store</text></g><g stroke-linecap="round"><g transform="translate(523.1108703613284 263.8867688920966) rotate(0 20.063217299605526 1.3940662494005451)"><path d="M-0.16 -1.4 C6.97 -0.38, 37.18 3.28, 43.82 4.19 M-3.69 4 C3.12 4.33, 34.35 0.53, 42.5 -0.3" stroke="#b2b3b1" stroke-width="4" fill="none"></path></g><g transform="translate(523.1108703613284 263.8867688920966) rotate(0 20.063217299605526 1.3940662494005451)"><path d="M21.55 11.47 C31.42 2.44, 37.62 3.09, 42.45 3.38 M22.28 10.38 C28.74 6.36, 33.53 5.91, 41.36 1.48" stroke="#b2b3b1" stroke-width="4" fill="none"></path></g><g transform="translate(523.1108703613284 263.8867688920966) rotate(0 20.063217299605526 1.3940662494005451)"><path d="M19.96 -2.9 C30.17 -7.08, 36.9 -1.58, 42.45 3.38 M20.69 -3.99 C27.23 -4.96, 32.36 -2.4, 41.36 1.48" stroke="#b2b3b1" stroke-width="4" fill="none"></path></g></g><g stroke-linecap="round" transform="translate(168.72221883138013 223.8366943106817) rotate(90 65.5 45)"><path d="M-3.11 1.35 L127.03 -2.6 L131.76 89.55 L0.15 91.86" stroke="none" stroke-width="0" fill="#82c91e"></path><path d="M2.4 1.35 C26.65 2.48, 60.61 1.27, 134.68 -3.6 M1.31 1.04 C26.92 3.53, 56.4 0.54, 132.79 1.07 M129.13 -2.15 C133.37 25.2, 128.97 50.61, 130.46 86.33 M132.97 1.94 C129.75 19.57, 133.2 41.13, 129.79 88.23 M134.88 92.19 C90.39 92.2, 51.35 87.52, -3.97 93.41 M129.68 91.19 C88.93 92.73, 41.36 91.68, 0.62 90.98 M-3.21 87.86 C3.25 59.82, -1.74 29.04, -0.72 -1.85 M1.62 90.84 C-3.32 54.38, 0.13 19.94, -1.29 -0.76" stroke="#087f5b" stroke-width="4" fill="none"></path></g><g transform="translate(173.72221883138013 241.8366943106817) rotate(90 60.5 27)"><text x="60.5" y="19" font-family="Virgil, Segoe UI Emoji" font-size="20px" fill="#343a40" text-anchor="middle" style="white-space: pre;" direction="ltr">Command</text><text x="60.5" y="46" font-family="Virgil, Segoe UI Emoji" font-size="20px" fill="#343a40" text-anchor="middle" style="white-space: pre;" direction="ltr">Handler</text></g><g stroke-linecap="round" transform="translate(172.33326212565157 429.80893348711385) rotate(90 65.5 45)"><path d="M-3.97 -2.6 L131.76 -0.45 L131.15 91.86 L1.93 89.96" stroke="none" stroke-width="0" fill="#ededed"></path><path d="M-3.49 1.16 C33.05 -0.93, 69.14 -4.48, 127.54 -3.19 M-1.04 1.86 C31.41 -2.5, 63.66 -0.29, 130.4 -0.99 M134.26 0.88 C129.01 29.65, 129.62 51.69, 128.22 91.32 M129.15 -1.18 C134.38 23.05, 131.56 45.06, 130.98 88.76 M129.55 90.86 C83.68 87.61, 35.01 94.84, 1.43 92.45 M132.9 91.85 C85.57 92.35, 44.16 92.53, 0.65 90.41 M3.62 89.76 C0.07 66.31, 0.72 42.92, 3.62 3.39 M-1.79 89.52 C0.2 56.87, -2.75 22.53, -1.55 0.68" stroke="#b2b3b1" stroke-width="4" fill="none"></path></g><g transform="translate(177.33326212565157 447.80893348711385) rotate(90 60.5 27)"><text x="60.5" y="19" font-family="Virgil, Segoe UI Emoji" font-size="20px" fill="#495057" text-anchor="middle" style="white-space: pre;" direction="ltr">Query</text><text x="60.5" y="46" font-family="Virgil, Segoe UI Emoji" font-size="20px" fill="#495057" text-anchor="middle" style="white-space: pre;" direction="ltr">Handler</text></g><g stroke-linecap="round"><g transform="translate(363.1050194612087 471.6463743931233) rotate(0 -35.62639102443768 0.6828072089014938)"><path d="M0.81 0.23 C-5.14 1.21, -22.66 3.69, -34.8 3.47 C-46.95 3.24, -65.9 -0.46, -72.07 -1.12 M-2.19 -2.12 C-8.61 -1.64, -26.32 -0.61, -37.06 -0.14 C-47.79 0.32, -60.71 0.46, -66.6 0.68" stroke="#b2b3b1" stroke-width="4" fill="none"></path></g><g transform="translate(363.1050194612087 471.6463743931233) rotate(0 -35.62639102443768 0.6828072089014938)"><path d="M-50.14 -5.74 C-52.73 -6.61, -64.34 -4.13, -68.82 2.95 M-50.01 -6.69 C-54.63 -2.23, -62.4 -1.77, -66.47 -0.14" stroke="#b2b3b1" stroke-width="4" fill="none"></path></g><g transform="translate(363.1050194612087 471.6463743931233) rotate(0 -35.62639102443768 0.6828072089014938)"><path d="M-49.83 6.15 C-52.32 1.32, -64.03 -0.17, -68.82 2.95 M-49.7 5.2 C-54.3 5.48, -62.18 1.76, -66.47 -0.14" stroke="#b2b3b1" stroke-width="4" fill="none"></path></g></g><g stroke-linecap="round"><g transform="translate(281.99997965494777 270.60725123469484) rotate(0 41.18042803262665 -1.0525112585266925)"><path d="M0.23 -0.03 C8.66 -0.54, 34.85 -1.98, 48.13 -2.26 C61.42 -2.54, 74.53 -2.49, 79.94 -1.72 M-3.09 -2.51 C5.42 -2.84, 32.54 -0.45, 47.3 0 C62.05 0.45, 79.97 0.63, 85.45 0.18" stroke="#b2b3b1" stroke-width="4" fill="none"></path></g><g transform="translate(281.99997965494777 270.60725123469484) rotate(0 41.18042803262665 -1.0525112585266925)"><path d="M68.33 10.4 C68.65 2.34, 72.66 1.72, 87.86 2.09 M67.32 8.65 C73.46 4.68, 75.81 3.68, 84.59 -0.81" stroke="#b2b3b1" stroke-width="4" fill="none"></path></g><g transform="translate(281.99997965494777 270.60725123469484) rotate(0 41.18042803262665 -1.0525112585266925)"><path d="M67.94 -2.19 C68.42 -7.57, 72.51 -5.51, 87.86 2.09 M66.93 -3.93 C73.4 -4.78, 75.84 -2.67, 84.59 -0.81" stroke="#b2b3b1" stroke-width="4" fill="none"></path></g></g><g stroke-linecap="round" transform="translate(894.9723714192703 11.058984349744378) rotate(359.0684149780816 65.5 45)"><path d="M0.15 1.86 L132.93 -0.04 L134.95 93.63 L-2.3 91.23" stroke="none" stroke-width="0" fill="#ededed"></path><path d="M3.68 -3.6 C39.65 -3.17, 83.67 2.64, 133.08 -2.08 M1.79 1.07 C50.86 0.5, 103.05 0.55, 129.92 1.63 M130.46 -3.67 C127.71 30.29, 128.89 61.88, 134.89 86.31 M129.79 -1.77 C132.43 20.46, 133.47 45.34, 132.09 89.28 M127.03 93.41 C90.33 89.95, 48.15 84.85, 2.38 93.8 M131.62 90.98 C80.27 91.44, 27.25 89.43, -1.07 91.81 M-0.72 88.15 C4.24 66.93, 3.44 40.31, 1.67 -3.58 M-1.29 89.24 C-3.04 65.82, -3.48 39, 0.38 -0.22" stroke="#b2b3b1" stroke-width="4" fill="none"></path></g><g transform="translate(899.9723714192703 42.55898434974438) rotate(359.0684149780816 60.5 13.5)"><text x="60.5" y="19" font-family="Virgil, Segoe UI Emoji" font-size="20px" fill="#495057" text-anchor="middle" style="white-space: pre;" direction="ltr">Consumer</text></g><g stroke-linecap="round" transform="translate(324.9721934000652 24.253386408663687) rotate(0 65.5 45)"><path d="M1.93 -0.04 L134.95 3.63 L128.7 91.23 L3.82 86.25" stroke="none" stroke-width="0" fill="#ededed"></path><path d="M-3.46 -3.19 C36.61 4.97, 80.41 0.27, 134.71 0.95 M-0.6 -0.99 C32.02 -2.33, 62.66 0.23, 131.44 -0.57 M128.22 1.32 C129.16 35.36, 134.65 59.16, 128.65 93.22 M130.98 -1.24 C130.94 27.29, 131.01 49.98, 131.43 89.34 M132.43 92.45 C105.58 89.59, 79.83 96.03, 3.69 86.61 M131.65 90.41 C85.55 89.68, 40.98 93.09, -0.12 89.32 M3.62 93.39 C3.15 68.67, 2 37.28, -0.95 3.31 M-1.55 90.68 C-0.82 60.7, 1.54 33.77, 0.08 0.93" stroke="#b2b3b1" stroke-width="4" fill="none"></path></g><g transform="translate(329.9721934000652 42.25338640866369) rotate(0 60.5 27)"><text x="60.5" y="19" font-family="Virgil, Segoe UI Emoji" font-size="20px" fill="#495057" text-anchor="middle" style="white-space: pre;" direction="ltr">Event </text><text x="60.5" y="46" font-family="Virgil, Segoe UI Emoji" font-size="20px" fill="#495057" text-anchor="middle" style="white-space: pre;" direction="ltr">Handler</text></g><g stroke-linecap="round" transform="translate(582.944559733073 236.14225410478997) rotate(0 51.5 59)"><path d="M1.98 1.81 L101.85 0.61 L104.91 116.12 L1.8 119.89" stroke="none" stroke-width="0" fill="#fab005"></path><path d="M-1.28 1.31 C22.68 -0.22, 45.13 1.3, 101.87 1.79 M0.08 -0.47 C35.86 1.32, 73.01 0.22, 103.49 -0.14 M102.2 1.97 C104.12 22.72, 101 50.75, 102.63 116.79 M103.51 0.97 C103.53 24.59, 103.2 49.57, 102.04 117.01 M103.68 116.68 C64.52 120.53, 25.5 116.93, 0.79 118.62 M102.51 117.2 C66.54 119.12, 31.09 117.87, -0.27 117.82 M1.41 119.62 C-0.23 86.27, -1.54 59.78, 0.22 -1.29 M-0.99 117.35 C1.11 86.98, 0.96 56.65, 0.48 -0.01" stroke="#e67700" stroke-width="2" fill="none"></path></g><g stroke-linecap="round" transform="translate(648.194559733073 249.0589334871142) rotate(270 19.5 10.25)"><path d="M1.81 -1.15 L39.61 1.91 L37.12 22.3 L1.89 19.71" stroke="none" stroke-width="0" fill="#fd7e14"></path><path d="M1.31 1.04 C7.28 2.1, 17.12 -0.89, 40.79 1.07 M-0.47 -0.54 C11.35 0.19, 20.79 0.46, 38.86 -0.92 M40.97 1.94 C37.22 3.55, 40.68 9.09, 37.79 18.73 M39.97 0.55 C38.51 6.34, 38.54 11.3, 38.01 21.35 M37.68 21.69 C27.81 22.48, 11.12 21.42, 0.62 21.48 M38.2 19.97 C26.93 20.25, 12.71 20.04, -0.18 20.04 M1.62 21.34 C-1.96 12.02, 1.48 4.71, -1.29 -0.76 M-0.65 20.69 C-0.18 15.98, 0.39 11.87, -0.01 0.99" stroke="#e67700" stroke-width="2" fill="none"></path></g><g stroke-linecap="round" transform="translate(613.694559733073 248.0589334871142) rotate(270 19.5 10.25)"><path d="M-1.15 0.61 L40.91 -1.88 L40.8 22.39 L-0.79 20" stroke="none" stroke-width="0" fill="#fd7e14"></path><path d="M1.04 -1.04 C10.44 0.22, 16.04 1.53, 40.07 -0.6 M-0.54 0.81 C10 -0.1, 20.05 0.05, 38.08 -0.69 M40.94 -1.85 C37.74 8.43, 38.55 12.44, 37.23 20.48 M39.55 -0.36 C39.32 4.55, 38.15 8.76, 39.85 20.86 M40.19 22.4 C26.75 18.55, 11.61 20.86, 0.98 21.15 M38.47 21.4 C26.44 19.85, 13.74 20.01, -0.46 21.4 M0.84 18.71 C-0.62 14.27, 0.08 3.43, -0.76 -1.55 M0.19 20.39 C0.24 14.12, 0.69 6.8, 0.99 0.91" stroke="#e67700" stroke-width="2" fill="none"></path></g><g stroke-linecap="round" transform="translate(580.694559733073 249.0589334871142) rotate(270 19.5 10.25)"><path d="M0.61 1.91 L37.12 1.8 L40.89 19.71 L-0.5 19.19" stroke="none" stroke-width="0" fill="#fd7e14"></path><path d="M-1.04 1.86 C9.68 -1.34, 20.21 0.86, 38.4 -0.99 M0.81 0.22 C11.71 0.7, 23.85 -0.71, 38.31 0.33 M37.15 -1.18 C40.81 4.97, 37.99 8.9, 38.98 19.26 M38.64 0.21 C38.87 6.24, 38.21 15.25, 39.36 21.11 M40.9 22.35 C24.28 21.52, 13.58 21.71, 0.65 20.91 M39.9 20.44 C28.86 20.02, 19.22 19.83, 0.9 21.35 M-1.79 20.02 C1.49 13.13, -1.46 4.54, -1.55 0.68 M-0.11 20.54 C0.6 16.87, 0.12 13.26, 0.91 -0.57" stroke="#e67700" stroke-width="2" fill="none"></path></g><g stroke-linecap="round"><g transform="translate(631.7964896137385 234.031121800917) rotate(0 0.44609137963050216 -17.99334575226642)"><path d="M-1.46 2.6 C-1.79 -4.08, -0.7 -32.23, -0.18 -38.58 M2.95 1.54 C2.13 -4.93, -1.77 -28.86, -2.06 -35.82" stroke="#b2b3b1" stroke-width="4" fill="none"></path></g><g transform="translate(631.7964896137385 234.031121800917) rotate(0 0.44609137963050216 -17.99334575226642)"><path d="M9.51 -18.32 C0.83 -22.05, 1.94 -32.53, -3.88 -35.54 M6.48 -19.73 C5.11 -23.52, 0.44 -28.77, -1.44 -36.55" stroke="#b2b3b1" stroke-width="4" fill="none"></path></g><g transform="translate(631.7964896137385 234.031121800917) rotate(0 0.44609137963050216 -17.99334575226642)"><path d="M-3.08 -16.98 C-7.17 -21.07, -1.47 -32.04, -3.88 -35.54 M-6.1 -18.39 C-4.28 -22.73, -5.76 -28.31, -1.44 -36.55" stroke="#b2b3b1" stroke-width="4" fill="none"></path></g></g><g stroke-linecap="round"><g transform="translate(688.1667480468752 259.10176112580393) rotate(0 30.843294814170918 0.9479629332396868)"><path d="M2.6 0.66 C11.62 1.46, 46.24 3.45, 55.58 3.34 M0.56 -1.44 C10.38 -1.24, 51.61 -1, 61.12 -0.32" stroke="#b2b3b1" stroke-width="4" fill="none"></path></g><g transform="translate(688.1667480468752 259.10176112580393) rotate(0 30.843294814170918 0.9479629332396868)"><path d="M34.9 6.3 C47.18 7.07, 51.98 -0.16, 61.43 -2.19 M33.38 9.56 C40.23 4.43, 45.8 4.74, 60.33 1.65" stroke="#b2b3b1" stroke-width="4" fill="none"></path></g><g transform="translate(688.1667480468752 259.10176112580393) rotate(0 30.843294814170918 0.9479629332396868)"><path d="M35.54 -13.24 C47.4 -5.58, 51.97 -5.94, 61.43 -2.19 M34.02 -9.99 C41.03 -10.3, 46.44 -5.18, 60.33 1.65" stroke="#b2b3b1" stroke-width="4" fill="none"></path></g></g><g stroke-linecap="round"><g transform="translate(886.0611934321107 58.10686891198452) rotate(0 -212.48428877226934 1.0818134923227376)"><path d="M0.66 -1.59 C-69.89 -1.49, -353.29 2.87, -424.75 3.19 M-2.42 3.72 C-72.98 4.2, -354.31 -0.84, -425.63 -1.01" stroke="#b2b3b1" stroke-width="4" fill="none"></path></g><g transform="translate(886.0611934321107 58.10686891198452) rotate(0 -212.48428877226934 1.0818134923227376)"><path d="M-399.6 -7.39 C-402.03 -9.55, -413.15 -5.59, -427.5 -3.16 M-396.35 -11.23 C-409.92 -8.72, -418.22 -4.33, -423.67 0.94" stroke="#b2b3b1" stroke-width="4" fill="none"></path></g><g transform="translate(886.0611934321107 58.10686891198452) rotate(0 -212.48428877226934 1.0818134923227376)"><path d="M-399.82 13.13 C-402.58 5.88, -413.65 4.75, -427.5 -3.16 M-396.57 9.29 C-410.15 3.98, -418.36 0.54, -423.67 0.94" stroke="#b2b3b1" stroke-width="4" fill="none"></path></g></g><g stroke-linecap="round"><g transform="translate(907.5555521647136 269.947839330213) rotate(0 30.508083011209806 0.8343897884090552)"><path d="M-1.59 2.5 C8.41 2.25, 52.39 -0.45, 62.61 -0.83 M2.74 1.39 C12.27 1.49, 52.11 2, 61.18 2.34" stroke="#b2b3b1" stroke-width="1" fill="none"></path></g></g><g stroke-linecap="round"><g transform="translate(970.069964879594 239.51206931311282) rotate(0 -2.766938497555543 -67.78582848571762)"><path d="M2.5 1.49 C1.5 -21.09, -4.21 -113.98, -5.35 -137.07 M0.42 -0.16 C-1.09 -22.24, -6.97 -111.78, -8.04 -134.19" stroke="#b2b3b1" stroke-width="4" fill="none"></path></g><g transform="translate(970.069964879594 239.51206931311282) rotate(0 -2.766938497555543 -67.78582848571762)"><path d="M5.97 -107.83 C-1.66 -115.04, -5.41 -126.41, -4.78 -133.31 M2.01 -108.03 C1.01 -114.94, -0.91 -119.68, -9.88 -135.36" stroke="#b2b3b1" stroke-width="4" fill="none"></path></g><g transform="translate(970.069964879594 239.51206931311282) rotate(0 -2.766938497555543 -67.78582848571762)"><path d="M-14.51 -106.64 C-15.5 -114.6, -12.62 -126.36, -4.78 -133.31 M-18.48 -106.84 C-13.93 -114.02, -10.29 -119.08, -9.88 -135.36" stroke="#b2b3b1" stroke-width="4" fill="none"></path></g></g><g stroke-linecap="round" transform="translate(900.111226399739 422.17002764401497) rotate(359.0684149780816 65.5 45)"><path d="M-1 -2.63 L132.75 -3.36 L131.93 89.08 L-0.93 91.65" stroke="none" stroke-width="0" fill="#ededed"></path><path d="M-1.19 -1.97 C32.17 -3.27, 61.58 1.86, 131.88 -1.15 M-1.39 0.66 C44.95 4.37, 93.43 0.56, 129.82 1.61 M130.96 -2.48 C131.96 29.23, 132.1 49.26, 131.86 88.69 M131.71 1.23 C129.89 17.07, 130.4 38.69, 132.85 88.3 M132.31 90.82 C84.57 88.07, 39.91 94.9, -0.24 88.63 M132.81 91.7 C96.64 90.41, 60.3 87, -0.48 91.66 M-3.11 91.35 C-2.81 59.4, 1.92 33.55, 0.15 1.86 M1.81 88.85 C0.63 60.56, -1.86 29.09, 1.89 -0.79" stroke="#b2b3b1" stroke-width="4" fill="none"></path></g><g transform="translate(905.111226399739 453.67002764401497) rotate(359.0684149780816 60.5 13.5)"><text x="60.5" y="19" font-family="Virgil, Segoe UI Emoji" font-size="20px" fill="#495057" text-anchor="middle" style="white-space: pre;" direction="ltr">Consumer</text></g><g stroke-linecap="round"><g transform="translate(969.2223205566404 261.3845542470055) rotate(0 1.158376560750071 76.36091898359984)"><path d="M-1.38 0.21 C-1.01 25.69, 2.25 126.39, 3.7 152.05 M3.07 -2.14 C2.81 23.76, 0.14 128.24, 0.75 154.86" stroke="#b2b3b1" stroke-width="4" fill="none"></path></g><g transform="translate(969.2223205566404 261.3845542470055) rotate(0 1.158376560750071 76.36091898359984)"><path d="M-9.08 124.76 C-8.13 139.96, -1.51 145.54, 2.71 154.32 M-10.18 128.59 C-5.72 130.59, -6.74 139.93, 0.38 153.65" stroke="#b2b3b1" stroke-width="4" fill="none"></path></g><g transform="translate(969.2223205566404 261.3845542470055) rotate(0 1.158376560750071 76.36091898359984)"><path d="M11.44 124.85 C5.14 139.82, 4.5 145.36, 2.71 154.32 M10.34 128.69 C10.53 130.8, 5.24 140.12, 0.38 153.65" stroke="#b2b3b1" stroke-width="4" fill="none"></path></g></g><g stroke-linecap="round"><g transform="translate(904.0487368759116 467.697541543675) rotate(0 -45.352402260233816 2.951002248613378)"><path d="M0.21 -1.31 C-14.8 0.12, -76.08 6.31, -90.92 7.21 M-3.12 4.15 C-17.13 4.96, -70.81 3, -85.33 3.44" stroke="#b2b3b1" stroke-width="4" fill="none"></path></g><g transform="translate(904.0487368759116 467.697541543675) rotate(0 -45.352402260233816 2.951002248613378)"><path d="M-58.96 -8.83 C-61.56 -3.02, -73.6 0.8, -85.87 -0.23 M-55.12 -4.73 C-65.38 -5.75, -68.44 -2.6, -86.54 1.67" stroke="#b2b3b1" stroke-width="4" fill="none"></path></g><g transform="translate(904.0487368759116 467.697541543675) rotate(0 -45.352402260233816 2.951002248613378)"><path d="M-59.07 11.69 C-61.44 11.95, -73.44 10.23, -85.87 -0.23 M-55.23 15.79 C-65.6 10.05, -68.63 8.46, -86.54 1.67" stroke="#b2b3b1" stroke-width="4" fill="none"></path></g></g><g stroke-linecap="round" transform="translate(673.9999287923176 448.28107093828567) rotate(0 68.5 32)"><path d="M0.93 -0.92 L136.07 1.65 L137.81 62.98 L1.39 66.83" stroke="none" stroke-width="0" fill="#ededed"></path><path d="M-2.15 3.26 C35.23 0.14, 70.66 0.74, 133.33 -2.78 M1.94 -1.85 C44.44 -1.09, 90.87 -3.9, 135.23 -0.02 M139.19 -1.45 C138.51 13.92, 133.83 26.49, 140.41 65.43 M138.19 1.9 C139.28 21.43, 138.22 46.87, 137.98 64.65 M134.86 67.62 C92.87 60.44, 48.13 61.08, -1.85 67.62 M137.84 62.21 C83.81 67.87, 31.79 64.93, -0.76 62.45 M0.76 63.55 C1.43 44.49, 3.21 21.23, 3.95 3.63 M-1.88 65.8 C1.49 47.68, -0.89 31.63, 0.87 -1.68" stroke="#b2b3b1" stroke-width="4" fill="none"></path></g><g transform="translate(678.9999287923176 453.28107093828567) rotate(0 63.5 27)"><text x="63.5" y="19" font-family="Virgil, Segoe UI Emoji" font-size="20px" fill="#495057" text-anchor="middle" style="white-space: pre;" direction="ltr">Event </text><text x="63.5" y="46" font-family="Virgil, Segoe UI Emoji" font-size="20px" fill="#495057" text-anchor="middle" style="white-space: pre;" direction="ltr">Handler</text></g><g stroke-linecap="round"><g transform="translate(665.7269467059357 464.63278705467246) rotate(0 -72.71367476001853 0.0029622922882026614)"><path d="M2.28 0.61 C-21.67 1.22, -120.55 2.53, -145.04 2.12 M0.08 -1.52 C-24.21 -1.61, -123.26 -2.38, -147.71 -2.15" stroke="#b2b3b1" stroke-width="4" fill="none"></path></g><g transform="translate(665.7269467059357 464.63278705467246) rotate(0 -72.71367476001853 0.0029622922882026614)"><path d="M-118.64 -13.54 C-124.8 -9.88, -137.57 -9.52, -146.39 -3.74 M-120.69 -10.79 C-130.91 -10.04, -143.55 -4.77, -148.95 -1.12" stroke="#b2b3b1" stroke-width="4" fill="none"></path></g><g transform="translate(665.7269467059357 464.63278705467246) rotate(0 -72.71367476001853 0.0029622922882026614)"><path d="M-118.64 6.98 C-124.58 5.44, -137.36 0.6, -146.39 -3.74 M-120.7 9.73 C-131.32 2.31, -143.95 -0.6, -148.95 -1.12" stroke="#b2b3b1" stroke-width="4" fill="none"></path></g></g><g stroke-linecap="round"><g transform="translate(313.94461059570335 66.33675788896954) rotate(0 -39.193969332253005 -1.4654655291511887)"><path d="M0.61 -0.8 C-12.05 -1.62, -63.83 -2.04, -77.51 -2.6 M-2.5 -3.71 C-15.28 -4.28, -66.75 0.56, -79 0.82" stroke="#b2b3b1" stroke-width="4" fill="none"></path></g></g><g stroke-linecap="round"><g transform="translate(234.22229512532567 68.83669431068176) rotate(0 0.5673895396291755 62.16046744212508)"><path d="M-0.8 1.38 C-1.25 21.68, -0.19 101.67, -0.38 122.43 M3.96 -0.34 C2.9 20.15, -2.8 104.46, -2.82 124.66" stroke="#b2b3b1" stroke-width="4" fill="none"></path></g><g transform="translate(234.22229512532567 68.83669431068176) rotate(0 0.5673895396291755 62.16046744212508)"><path d="M-9.99 95.55 C-12.02 104.26, -3.54 116.35, 1.11 128.55 M-12.32 94.88 C-12.17 101.86, -9.74 108.83, -0.89 125.76" stroke="#b2b3b1" stroke-width="4" fill="none"></path></g><g transform="translate(234.22229512532567 68.83669431068176) rotate(0 0.5673895396291755 62.16046744212508)"><path d="M10.52 96.36 C0.66 104.65, 1.31 116.43, 1.11 128.55 M8.18 95.7 C4.09 102.83, 2.26 109.64, -0.89 125.76" stroke="#b2b3b1" stroke-width="4" fill="none"></path></g></g><g stroke-linecap="round" transform="translate(-185.5 292.00333554603327) rotate(90 233.5 38)"><path d="M-1.02 1.39 L469.83 -0.82 L464.61 76.13 L-0.14 74.33" stroke="none" stroke-width="0" fill="#ededed"></path><path d="M-0.25 -1.67 C149.09 -1.49, 299.98 -0.3, 468.77 -1.68 M-0.55 -0.81 C112.61 0.21, 225.7 1.66, 467.5 -0.33 M463.03 3.41 C467.93 26.88, 467.85 46.21, 469.38 79.8 M467.62 0.98 C466.36 30.22, 464.74 58.02, 465.93 77.81 M466.67 75.16 C331.33 76.4, 193.65 76.33, 0.76 74.37 M466.41 75.65 C337.34 76.78, 208.18 75.88, 0.17 75.9 M-0.04 79.95 C2.92 50.61, 0.52 33.64, -3.75 3.59 M-1.31 76.87 C-1.08 46.5, 0.14 15.61, 0.82 0.4" stroke="#b2b3b1" stroke-width="4" fill="none"></path></g><g transform="translate(-180.5 316.50333554603327) rotate(90 228.5 13.5)"><text x="228.5" y="19" font-family="Virgil, Segoe UI Emoji" font-size="20px" fill="#495057" text-anchor="middle" style="white-space: pre;" direction="ltr">Interface</text></g><g stroke-linecap="round"><g transform="translate(91.66664123535179 269.053876637268) rotate(0 43.510317300260226 0.3677257774096745)"><path d="M-2.57 -1.95 C12.13 -2.24, 73.93 -2.77, 89.59 -2.16 M1.23 3.17 C15.52 3.29, 72.87 1.78, 87.85 0.86" stroke="#b2b3b1" stroke-width="4" fill="none"></path></g><g transform="translate(91.66664123535179 269.053876637268) rotate(0 43.510317300260226 0.3677257774096745)"><path d="M57.33 13.59 C68.24 12.73, 83.4 1.12, 85.5 4.08 M60.09 11.03 C69.09 11.48, 76.97 5.61, 88.28 0.2" stroke="#b2b3b1" stroke-width="4" fill="none"></path></g><g transform="translate(91.66664123535179 269.053876637268) rotate(0 43.510317300260226 0.3677257774096745)"><path d="M56.49 -6.92 C67.63 -0.6, 83.09 -5.05, 85.5 4.08 M59.24 -9.47 C68.23 -3.23, 76.36 -3.33, 88.28 0.2" stroke="#b2b3b1" stroke-width="4" fill="none"></path></g></g><g stroke-linecap="round"><g transform="translate(178.6665954589846 473.2824118316261) rotate(0 -45.20627003535628 -1.0791985198582097)"><path d="M-1.95 0.92 C-9.98 1.69, -33.56 2.97, -48.61 2.06 C-63.67 1.15, -84.27 -4.24, -92.28 -4.53 M2.19 -1.04 C-6.28 -0.75, -35.66 -1.16, -51.46 -1.46 C-67.26 -1.76, -85.02 -2.32, -92.61 -2.82" stroke="#b2b3b1" stroke-width="4" fill="none"></path></g><g transform="translate(178.6665954589846 473.2824118316261) rotate(0 -45.20627003535628 -1.0791985198582097)"><path d="M-68.58 -11.42 C-72.6 -4.24, -86.73 -8.48, -89.39 -3.56 M-71.14 -8.8 C-73.53 -7.06, -81.63 -6.05, -93.26 -4.74" stroke="#b2b3b1" stroke-width="4" fill="none"></path></g><g transform="translate(178.6665954589846 473.2824118316261) rotate(0 -45.20627003535628 -1.0791985198582097)"><path d="M-69.4 4.82 C-72.88 7.35, -86.78 -1.54, -89.39 -3.56 M-71.96 7.43 C-73.86 5.28, -81.76 2.41, -93.26 -4.74" stroke="#b2b3b1" stroke-width="4" fill="none"></path></g></g><g stroke-linecap="round"><g transform="translate(839.401020195465 140.87675171921575) rotate(269.83845249062614 40.75301385131479 125.77068181203536)" fill-rule="evenodd"><path d="M-1.19 -1.66 L79.53 -1.49 L80.89 225.66 L38.92 249.64 L0.73 223.63 L-0.56 1.29" stroke="none" stroke-width="0" fill="#ededed" fill-rule="evenodd"></path><path d="M-0.8 1.97 C18.82 -2.16, 32.57 1.25, 80.67 -1.43 M0.51 0.97 C17.68 0.09, 34.48 0.08, 80.08 -1.22 M81.62 -1.35 C82.48 88.53, 82.77 172.58, 81.02 226.5 M80.62 -0.91 C80.97 79.45, 81.13 157.27, 80.11 225.81 M81.75 227.59 C70.91 230.9, 59.1 240.71, 39.19 249.77 M79.35 225.32 C69.5 232.57, 58.51 239.72, 39.45 251.05 M39.58 252.97 C21.82 242.08, 10.54 228.94, 0.77 223.27 M38.74 250.83 C26.65 242.25, 13.03 233.3, 1.98 224.38 M0.55 223.62 C-0.62 171.74, 1.58 115.11, 0.53 -0.32 M0.45 224.91 C-0.27 152.66, 0.47 79.92, 0.78 0.41 M0 0 C0 0, 0 0, 0 0 M0 0 C0 0, 0 0, 0 0" stroke="#b2b3b1" stroke-width="4" fill="none"></path></g></g><g stroke-linecap="round" transform="translate(763.6664147504509 242.13048215651986) rotate(0 23.46322866088792 15.595319648853732)"><path d="M0.07 -0.07 L46.09 -1.13 L45.15 32.5 L1.14 29.4" stroke="none" stroke-width="0" fill="#ededed"></path><path d="M1.97 1.94 C8.97 -0.99, 23.25 -0.18, 45.72 -1.77 M0.97 0.55 C13.67 -0.03, 27.73 -1.2, 45.93 0.85 M45.6 1.19 C49.02 12.31, 45.42 21.73, 47.55 32.17 M46.13 -0.53 C47.9 10.32, 46.65 20.48, 46.75 30.73 M48.55 32.03 C26.81 31.04, 11.93 31.74, -1.29 30.43 M46.28 31.38 C36.39 30.76, 26.53 31.21, -0.01 32.18 M1.91 29.31 C1.97 20.89, -0.61 6.32, -1.31 0.87 M-0.23 31.6 C0.13 24.19, 0.28 18.42, -0.21 -0.6" stroke="#b2b3b1" stroke-width="4" fill="none"></path></g><g stroke-linecap="round"><g transform="translate(788.370722951174 257.41714344301107) rotate(0 -0.21861709355493986 -7.718403941627379)" fill-rule="evenodd"><path d="M-0.07 -0.84 L21.13 -16.51 L-22.12 -13.41 L-1.79 0.62" stroke="none" stroke-width="0" fill="#ededed" fill-rule="evenodd"></path><path d="M1.94 -1.85 C6.29 -3.52, 14.52 -11.24, 20.49 -14.75 M0.55 -0.36 C5.44 -4.05, 9.56 -8.22, 23.11 -14.38 M23.45 -12.83 C7.6 -16.67, -9.96 -14.29, -22.45 -13.9 M21.72 -13.83 C7.56 -15.39, -7.28 -15.17, -23.89 -13.65 M-22.59 -16.34 C-14.78 -7.49, -5.07 -4.84, -0.76 -1.55 M-23.23 -14.67 C-15.71 -9.08, -7.44 -4.69, 0.99 0.91 M0 0 C0 0, 0 0, 0 0 M0 0 C0 0, 0 0, 0 0" stroke="#b2b3b1" stroke-width="4" fill="none"></path></g></g><g stroke-linecap="round"><g transform="translate(863.0862388052731 260.09442344225835) rotate(0 28.548548166711385 -1.8154896927991189)"><path d="M-1.85 -1.18 C16.94 -1.22, 29.47 -2.91, 58.94 -2.33" stroke="#b2b3b1" stroke-width="4.5" fill="none" stroke-dasharray="1.5 10"></path></g></g><g stroke-linecap="round" transform="translate(819.7603354602813 242.40059734452655) rotate(0 23.46322866088792 15.595319648853732)"><path d="M-1.13 -1.78 L48.23 1.14 L45.13 31.81 L-0.37 31.61" stroke="none" stroke-width="0" fill="#ededed"></path><path d="M-1.18 1.61 C18.33 -0.78, 35.61 0.41, 45.69 1.02 M0.21 -0.33 C17.67 -0.82, 38.1 0.53, 47.54 0.34 M48.77 -1.7 C47.9 7.92, 48.09 15.25, 47.33 30.22 M46.87 -0.34 C46.49 6.68, 46.3 14.62, 47.77 31.9 M46.45 32.85 C29.27 29.48, 10.41 29.22, 0.68 29.2 M46.96 31.65 C36.38 31.13, 25.86 32.04, -0.57 31.5 M1.89 30.4 C-0.21 17.54, 1.17 4.83, 0.46 -0.46 M-0.25 31.54 C0.58 22.36, -0.73 13.96, -0.04 -0.42" stroke="#b2b3b1" stroke-width="4" fill="none"></path></g><g stroke-linecap="round"><g transform="translate(844.5021952680188 256.5959077300145) rotate(0 -0.5573760744102856 -7.600371966745492)" fill-rule="evenodd"><path d="M-1.78 1.31 L23.4 -16.53 L-22.8 -14.92 L0.42 0.45" stroke="none" stroke-width="0" fill="#ededed" fill-rule="evenodd"></path><path d="M1.61 -0.37 C7.77 -7.49, 17.8 -12.82, 23.28 -12.8 M-0.33 -0.96 C6.95 -4.42, 16.2 -9.89, 22.6 -15.4 M20.56 -13.94 C6.46 -13.27, -9.93 -13.78, -24.4 -16.16 M21.92 -15 C10.82 -15.18, 0.64 -13.83, -22.72 -13.74 M-21.77 -14.33 C-16.84 -10.29, -9.1 -3.87, -1.99 -1.3 M-22.96 -14.07 C-15.98 -8.93, -7.59 -5.85, 0.31 0.96 M0 0 C0 0, 0 0, 0 0 M0 0 C0 0, 0 0, 0 0" stroke="#b2b3b1" stroke-width="4" fill="none"></path></g></g><g stroke-linecap="round" transform="translate(920.4232621915473 241.32013659249037) rotate(0 23.46322866088792 15.595319648853732)"><path d="M1.31 1.14 L45.13 0.62 L46.56 31.61 L0.45 32.78" stroke="none" stroke-width="0" fill="#ededed"></path><path d="M-0.37 -1.21 C7.97 -0.4, 18.25 0.65, 48.86 1.09 M-0.96 -0.99 C13.23 0.51, 25.37 0.49, 46.27 0.59 M47.72 0.62 C48.19 12.97, 47.62 23.67, 45.32 30.12 M46.66 -0.18 C46.44 13.08, 47.76 25.07, 47.74 31.61 M47.15 29.9 C36.28 30.02, 27.84 29.59, -1.3 31.57 M47.41 31.18 C34.36 32.31, 19.24 31.72, 0.96 30.25 M-0.5 29.88 C0.58 17.36, 0.17 6.41, -0.47 0.82 M0.71 30.99 C-0.52 21.24, 0.04 10.8, -0.56 -0.89" stroke="#b2b3b1" stroke-width="4" fill="none"></path></g><g stroke-linecap="round"><g transform="translate(946.1125393681034 254.84338527485005) rotate(0 -0.6814445730217358 -7.280527445516242)" fill-rule="evenodd"><path d="M1.14 -1.79 L22.88 -15.1 L-23 -14.11 L1.59 -1.9" stroke="none" stroke-width="0" fill="#ededed" fill-rule="evenodd"></path><path d="M-1.21 -1.77 C5.23 -4.75, 11.64 -5.13, 23.35 -15.46 M-0.99 0.85 C7.56 -3.91, 14.69 -9.92, 22.85 -13.78 M22.88 -13.76 C4.99 -14.08, -14.56 -16.02, -24.49 -12.74 M22.08 -15.2 C9.73 -13.96, -3.9 -13.94, -23 -15.45 M-24.71 -15.32 C-18.39 -9.88, -12.35 -7.84, 0.38 -0.22 M-23.43 -13.57 C-15.33 -10.82, -8.81 -4.87, -0.94 0.9 M0 0 C0 0, 0 0, 0 0 M0 0 C0 0, 0 0, 0 0" stroke="#b2b3b1" stroke-width="4" fill="none"></path></g></g><g transform="translate(820.2873461730335 279.4546186473944) rotate(0 51.5 12.5)"><text x="51.5" y="18" font-family="Virgil, Segoe UI Emoji" font-size="20px" fill="#495057" text-anchor="middle" style="white-space: pre;" direction="ltr">Event Bus</text></g><g stroke-linecap="round" transform="translate(368.48847690448156 496.8262476564721) rotate(0 81.23749477516162 13.679174306372914)"><path d="M107.75 0.89 C119.15 1.31, 132.69 2.37, 141.19 3.62 C149.68 4.88, 155.28 6.06, 158.7 8.44 C162.12 10.82, 164.64 15.44, 161.69 17.9 C158.75 20.37, 149.51 21.74, 141.03 23.22 C132.54 24.71, 122.1 25.88, 110.77 26.82 C99.44 27.76, 85.83 29.04, 73.06 28.88 C60.29 28.71, 44.97 27.2, 34.16 25.81 C23.35 24.42, 13.73 22.74, 8.21 20.55 C2.69 18.37, 0.65 14.71, 1.05 12.69 C1.44 10.67, 4.75 10.13, 10.58 8.45 C16.41 6.77, 25.77 3.95, 36.03 2.63 C46.29 1.3, 56.5 0.63, 72.13 0.5 C87.76 0.36, 117.69 0.81, 129.82 1.79 C141.94 2.78, 145.45 6.24, 144.89 6.39 M130.07 3.41 C139.87 4.87, 147.27 7.77, 152.26 9.43 C157.25 11.09, 160.23 11.36, 160.02 13.38 C159.81 15.4, 156.73 19.87, 151.02 21.56 C145.32 23.25, 136.88 22.94, 125.78 23.53 C114.69 24.11, 97.62 24.48, 84.44 25.06 C71.27 25.65, 57.9 27.52, 46.72 27.04 C35.53 26.55, 25.21 24.07, 17.32 22.15 C9.42 20.22, 1.9 17.68, -0.66 15.47 C-3.21 13.26, -2.3 10.91, 2.01 8.9 C6.31 6.89, 16.04 4.67, 25.17 3.43 C34.31 2.2, 45.11 1.52, 56.83 1.47 C68.55 1.42, 83.08 2.93, 95.5 3.15 C107.92 3.36, 125.21 2.53, 131.36 2.76 C137.5 2.98, 133.05 4.41, 132.37 4.48" stroke="none" stroke-width="0" fill="#ced4da"></path><path d="M35.12 1.82 C44.05 0.06, 58.62 -0.03, 70.58 -0.53 C82.55 -1.03, 94.86 -2.12, 106.91 -1.17 C118.96 -0.23, 133.86 3.15, 142.88 5.16 C151.9 7.17, 158.32 8.74, 161.02 10.87 C163.72 13, 161.8 15.67, 159.09 17.93 C156.39 20.19, 153.05 22.89, 144.8 24.43 C136.54 25.97, 121.47 26.54, 109.56 27.18 C97.65 27.82, 85.48 28.54, 73.36 28.26 C61.23 27.97, 47.55 27.07, 36.82 25.47 C26.08 23.86, 15.26 20.25, 8.94 18.63 C2.63 17, -1 17.67, -1.06 15.71 C-1.12 13.74, 0.09 9.34, 8.59 6.83 C17.09 4.32, 40.07 1.42, 49.96 0.66 C59.86 -0.11, 67.07 1.74, 67.96 2.25 M139.35 6.73 C148.31 8.17, 156.32 6.76, 159.7 7.99 C163.08 9.23, 162.08 12.24, 159.62 14.14 C157.17 16.04, 153.1 17.28, 144.96 19.39 C136.83 21.51, 122.64 25.51, 110.82 26.85 C98.99 28.19, 86.01 27.46, 74.03 27.42 C62.04 27.39, 49.48 27.33, 38.92 26.66 C28.37 26, 16.71 25.8, 10.68 23.43 C4.66 21.07, 3.07 14.58, 2.77 12.45 C2.48 10.32, 4.39 11.81, 8.91 10.63 C13.43 9.46, 19.48 7.34, 29.89 5.4 C40.3 3.46, 58.6 0.09, 71.37 -1.02 C84.14 -2.12, 94.87 -1.71, 106.54 -1.25 C118.2 -0.79, 135.86 0.9, 141.37 1.73 C146.88 2.56, 140.89 2.96, 139.58 3.74" stroke="#b2b3b1" stroke-width="2" fill="none"></path></g><g stroke-linecap="round" transform="translate(368.48847690448156 481.27667128686244) rotate(0 81.23749477516162 13.679174306372914)"><path d="M134.18 3.22 C143.96 4.39, 151.53 5.3, 155.88 7.49 C160.23 9.69, 161.24 14.42, 160.25 16.41 C159.27 18.41, 156.56 17.99, 149.98 19.47 C143.4 20.96, 131.95 23.93, 120.78 25.32 C109.61 26.7, 95.4 28.02, 82.98 27.8 C70.56 27.58, 57.43 25.3, 46.25 23.99 C35.08 22.69, 23.43 21.22, 15.9 19.98 C8.38 18.75, 3.15 18.11, 1.11 16.59 C-0.94 15.07, -0.74 12.7, 3.63 10.85 C8 9, 17.84 6.92, 27.33 5.49 C36.83 4.07, 48.53 3.28, 60.6 2.3 C72.68 1.32, 84.24 -1.08, 99.76 -0.39 C115.28 0.3, 143.47 4, 153.72 6.45 C163.97 8.89, 162.53 13.72, 161.27 14.27 M75.47 -2.69 C87.68 -3.33, 103.43 -2.51, 114.74 -1.24 C126.04 0.02, 135.45 2.56, 143.29 4.91 C151.13 7.25, 159.43 11.13, 161.79 12.81 C164.15 14.5, 161.49 13.61, 157.43 15.02 C153.37 16.43, 145.74 19.41, 137.43 21.27 C129.13 23.13, 119.2 25.57, 107.62 26.2 C96.03 26.83, 80.64 25.55, 67.95 25.04 C55.26 24.53, 41.65 23.76, 31.48 23.16 C21.31 22.56, 12.27 23.05, 6.93 21.45 C1.58 19.86, -1.41 15.99, -0.6 13.62 C0.22 11.24, 4.87 9.03, 11.79 7.21 C18.71 5.4, 30.42 3.5, 40.92 2.75 C51.43 2, 68.89 2.85, 74.81 2.7 C80.73 2.54, 76.45 1.81, 76.45 1.83" stroke="none" stroke-width="0" fill="#ced4da"></path><path d="M120.3 2.18 C130.88 2.49, 142.09 2.33, 148.73 4.32 C155.37 6.31, 158.75 11.49, 160.14 14.12 C161.53 16.76, 161.41 18.67, 157.06 20.12 C152.7 21.57, 143.6 21.38, 134.03 22.85 C124.45 24.32, 111.71 28.56, 99.61 28.95 C87.5 29.33, 73.59 25.94, 61.4 25.16 C49.2 24.39, 35.77 25.33, 26.44 24.27 C17.12 23.22, 9.65 21.08, 5.46 18.82 C1.27 16.55, -0.13 13.05, 1.31 10.67 C2.76 8.29, 6.45 6.09, 14.12 4.52 C21.8 2.95, 35.91 2.11, 47.36 1.27 C58.82 0.43, 68.78 -0.67, 82.87 -0.53 C96.96 -0.39, 121.93 0.94, 131.89 2.11 C141.86 3.28, 143.21 5.89, 142.65 6.49 M116.68 1.51 C128.21 2.07, 135.98 2.27, 142.99 4.04 C150 5.82, 156.58 10.21, 158.73 12.16 C160.89 14.11, 159.14 13.93, 155.94 15.73 C152.74 17.53, 147.88 20.9, 139.55 22.97 C131.21 25.03, 117.77 27.42, 105.92 28.11 C94.08 28.8, 80.38 27.27, 68.46 27.12 C56.55 26.97, 44.91 28.35, 34.43 27.21 C23.96 26.07, 10.85 23.13, 5.61 20.28 C0.37 17.43, 1.56 11.91, 2.99 10.11 C4.42 8.31, 8.41 10.97, 14.19 9.49 C19.97 8.02, 27.71 2.62, 37.66 1.26 C47.62 -0.1, 61.61 1.24, 73.94 1.34 C86.28 1.44, 105.19 1.97, 111.68 1.87 C118.16 1.77, 112.77 0.53, 112.84 0.73" stroke="#b2b3b1" stroke-width="2" fill="none"></path></g><g stroke-linecap="round" transform="translate(368.48847690448156 465.72709491725277) rotate(0 81.23749477516162 13.679174306372914)"><path d="M64.6 -0.55 C76.07 -1.46, 90.07 -2.16, 102.4 -1.25 C114.73 -0.34, 129.58 3.06, 138.58 4.92 C147.58 6.78, 152.64 8.03, 156.4 9.92 C160.15 11.8, 162.7 13.98, 161.1 16.24 C159.51 18.49, 154.6 21.69, 146.82 23.45 C139.05 25.2, 126.15 26.07, 114.46 26.78 C102.76 27.48, 88.73 28.09, 76.64 27.69 C64.56 27.29, 52.29 25.32, 41.94 24.37 C31.6 23.42, 21.19 23.56, 14.57 21.99 C7.94 20.41, 3.25 17.13, 2.19 14.92 C1.14 12.72, 3.78 10.88, 8.22 8.74 C12.67 6.6, 10.86 3.24, 28.88 2.1 C46.89 0.96, 95.42 1.11, 116.33 1.89 C137.24 2.68, 154.47 6.71, 154.32 6.81 M55.38 2.05 C66.21 1.02, 81.82 -1.05, 94.59 -0.73 C107.37 -0.42, 121.54 2.75, 132.04 3.94 C142.54 5.14, 152.98 5.03, 157.6 6.44 C162.22 7.86, 161.31 9.87, 159.76 12.42 C158.21 14.97, 154.6 19.58, 148.28 21.74 C141.97 23.9, 132.76 24.6, 121.87 25.4 C110.98 26.2, 95.66 26.57, 82.93 26.54 C70.19 26.51, 56.2 26.11, 45.47 25.24 C34.75 24.37, 25.87 22.71, 18.57 21.3 C11.26 19.89, 4.02 18.26, 1.66 16.78 C-0.7 15.29, 0.48 14.54, 4.41 12.38 C8.34 10.22, 15.82 5.54, 25.21 3.81 C34.61 2.08, 54.95 2.62, 60.76 2 C66.57 1.38, 59.9 0.12, 60.08 0.07" stroke="none" stroke-width="0" fill="#ced4da"></path><path d="M148.62 5.28 C155.88 6.61, 158.29 7.74, 159.99 10.07 C161.69 12.4, 162.8 16.85, 158.84 19.27 C154.87 21.69, 146.15 23.13, 136.2 24.61 C126.26 26.1, 111.3 27.46, 99.19 28.16 C87.07 28.86, 75.8 29.38, 63.53 28.8 C51.25 28.22, 35.15 26.24, 25.54 24.69 C15.92 23.14, 9.88 21.52, 5.84 19.48 C1.79 17.43, -0.01 14.94, 1.27 12.41 C2.54 9.88, 6.62 5.79, 13.51 4.28 C20.39 2.77, 31.27 4.19, 42.57 3.36 C53.87 2.54, 68.62 -0.33, 81.29 -0.68 C93.97 -1.04, 105.54 -0.99, 118.61 1.22 C131.67 3.43, 152.56 9.88, 159.68 12.58 C166.81 15.27, 162.26 17.51, 161.36 17.4 M18.21 3.18 C24.69 0.68, 35.97 -0.17, 47.62 -1.19 C59.27 -2.21, 75.69 -3.58, 88.11 -2.94 C100.52 -2.31, 111.66 0.99, 122.13 2.62 C132.59 4.26, 143.97 4.88, 150.91 6.86 C157.85 8.83, 163.11 11.87, 163.77 14.46 C164.43 17.06, 159.97 21.01, 154.89 22.4 C149.82 23.8, 143.14 21.55, 133.31 22.82 C123.47 24.09, 109.19 28.94, 95.87 30.03 C82.54 31.12, 65 30.71, 53.35 29.38 C41.7 28.05, 34.4 24.35, 25.95 22.05 C17.5 19.76, 6.51 17.88, 2.65 15.63 C-1.2 13.37, 0.16 10.41, 2.82 8.54 C5.47 6.67, 15.97 4.76, 18.57 4.43 C21.18 4.09, 17.41 6.39, 18.45 6.53" stroke="#b2b3b1" stroke-width="2" fill="none"></path></g><g stroke-linecap="round" transform="translate(368.48847690448156 450.1775185476431) rotate(0 81.23749477516162 13.679174306372914)"><path d="M34.73 1.24 C43.64 0.17, 57.42 1.75, 70.25 1.39 C83.08 1.04, 99.6 -1.35, 111.73 -0.87 C123.87 -0.38, 134.9 2.34, 143.05 4.31 C151.21 6.28, 157.59 9.14, 160.67 10.95 C163.76 12.75, 164.61 13.44, 161.57 15.15 C158.52 16.85, 151.04 19.11, 142.42 21.18 C133.8 23.24, 121.96 26.23, 109.84 27.54 C97.72 28.86, 82.06 29.19, 69.68 29.06 C57.3 28.94, 45.65 28, 35.56 26.79 C25.47 25.57, 14.99 24.12, 9.13 21.8 C3.26 19.48, 0.47 15.51, 0.37 12.85 C0.28 10.19, -2.07 7.78, 8.56 5.83 C19.19 3.88, 50.1 1.83, 64.15 1.15 C78.2 0.48, 92.67 1.77, 92.87 1.76 M65.64 -2.05 C76.81 -2.24, 90 -0.91, 102.03 0.36 C114.06 1.62, 128.78 4.49, 137.81 5.55 C146.85 6.62, 152.65 5.34, 156.23 6.72 C159.81 8.1, 160.74 11.39, 159.29 13.82 C157.84 16.26, 154.61 19.65, 147.52 21.32 C140.43 22.99, 128.34 23.07, 116.76 23.84 C105.17 24.61, 90.72 25.3, 78.01 25.91 C65.31 26.53, 51.46 28.25, 40.52 27.54 C29.58 26.82, 18.93 23.67, 12.37 21.63 C5.8 19.59, 1.69 17.41, 1.15 15.33 C0.61 13.24, 4.45 10.68, 9.12 9.1 C13.78 7.52, 19.72 7.04, 29.13 5.83 C38.54 4.62, 59.82 2.46, 65.59 1.82 C71.36 1.18, 63.72 1.85, 63.74 1.98" stroke="none" stroke-width="0" fill="#ced4da"></path><path d="M122.8 0.08 C133.43 1.17, 142.18 6, 148.89 8.34 C155.6 10.68, 161.88 12.51, 163.05 14.12 C164.22 15.73, 161.02 15.96, 155.9 18.01 C150.78 20.05, 142.08 25.13, 132.35 26.37 C122.62 27.61, 109.95 25.28, 97.5 25.44 C85.05 25.61, 69.79 27.59, 57.64 27.35 C45.49 27.1, 33.55 25.75, 24.61 23.98 C15.67 22.21, 8.16 19.05, 4.02 16.74 C-0.12 14.43, -2.77 12.05, -0.23 10.11 C2.31 8.17, 11.3 6.67, 19.24 5.09 C27.18 3.52, 36.29 1.65, 47.42 0.65 C58.55 -0.35, 66.83 -2.87, 86.01 -0.9 C105.18 1.08, 152.1 8.54, 162.48 12.51 C172.86 16.47, 149.77 23.42, 148.28 22.89 M60.1 -0.76 C70.63 -1.31, 86.55 1.04, 98.59 1.42 C110.62 1.8, 122.44 0.33, 132.31 1.52 C142.19 2.7, 152.91 5.99, 157.85 8.53 C162.79 11.07, 163.38 14.61, 161.97 16.76 C160.56 18.92, 156.11 19.49, 149.4 21.45 C142.7 23.42, 133.42 27.39, 121.73 28.53 C110.04 29.67, 91.87 29.21, 79.27 28.28 C66.67 27.35, 56.52 23.63, 46.13 22.96 C35.74 22.28, 24.72 25.65, 16.93 24.24 C9.14 22.84, 1.63 16.89, -0.62 14.54 C-2.88 12.18, -0.88 11.84, 3.4 10.1 C7.67 8.36, 15.38 5.84, 25.04 4.11 C34.7 2.37, 54.91 0.16, 61.35 -0.31 C67.78 -0.79, 63.35 0.75, 63.66 1.26" stroke="#b2b3b1" stroke-width="2" fill="none"></path></g><g stroke-linecap="round" transform="translate(368.48847690448156 434.6279421780337) rotate(0 81.23749477516162 13.679174306372914)"><path d="M82.78 -1.77 C95 -1.58, 111.81 1.48, 122.64 2.92 C133.47 4.37, 141.26 5.24, 147.78 6.9 C154.31 8.57, 160.31 10.62, 161.79 12.9 C163.27 15.17, 161.76 18.53, 156.65 20.54 C151.55 22.55, 141.22 23.83, 131.18 24.97 C121.14 26.12, 108.25 27.29, 96.43 27.4 C84.61 27.52, 71.79 26.13, 60.26 25.66 C48.72 25.19, 36.21 25.81, 27.21 24.57 C18.22 23.32, 10.35 20.3, 6.28 18.2 C2.21 16.1, 1.32 14.23, 2.81 11.96 C4.29 9.68, 8.26 6.22, 15.2 4.53 C22.14 2.84, 30.68 2.71, 44.46 1.8 C58.24 0.88, 86.87 -0.83, 97.87 -0.97 C108.88 -1.11, 111 0.61, 110.5 0.97 M94.52 -0.73 C106.91 -0.64, 121.48 2.74, 131.98 3.94 C142.49 5.13, 152.94 5.02, 157.57 6.43 C162.2 7.84, 161.31 9.86, 159.77 12.41 C158.23 14.96, 154.63 19.56, 148.32 21.73 C142.02 23.89, 132.82 24.6, 121.93 25.4 C111.05 26.2, 95.73 26.56, 83 26.54 C70.27 26.51, 56.27 26.12, 45.54 25.24 C34.81 24.37, 25.92 22.72, 18.61 21.31 C11.3 19.9, 4.04 18.28, 1.67 16.79 C-0.7 15.3, 0.47 14.56, 4.39 12.39 C8.3 10.23, 15.78 5.55, 25.16 3.81 C34.55 2.08, 48.49 2.72, 60.69 2 C72.89 1.28, 92.17 -0.23, 98.39 -0.5 C104.6 -0.77, 98.32 0.52, 97.97 0.4" stroke="none" stroke-width="0" fill="#ced4da"></path><path d="M50.55 -1.1 C61.52 -1.77, 79.76 0.11, 92.77 0.81 C105.79 1.51, 118.79 1.82, 128.64 3.1 C138.49 4.39, 145.91 6.45, 151.87 8.52 C157.82 10.59, 164.44 13.48, 164.37 15.53 C164.31 17.58, 157.52 19.1, 151.46 20.83 C145.39 22.56, 137.94 24.78, 127.97 25.92 C118.01 27.06, 104.4 27.84, 91.65 27.67 C78.89 27.49, 63.47 25.38, 51.42 24.86 C39.37 24.35, 27.53 25.99, 19.34 24.56 C11.14 23.12, 5.15 18.68, 2.23 16.26 C-0.69 13.84, -1.05 11.68, 1.83 10.04 C4.71 8.4, 0.87 7.68, 19.53 6.41 C38.19 5.15, 91.16 2.02, 113.77 2.44 C136.39 2.86, 156.32 9.03, 155.22 8.93 M139.91 2.09 C149 3.26, 157.66 4.65, 160.76 7.18 C163.86 9.72, 161.52 14.7, 158.51 17.28 C155.49 19.86, 150.3 20.92, 142.68 22.68 C135.07 24.44, 124.45 26.57, 112.81 27.83 C101.18 29.09, 85.18 31, 72.88 30.25 C60.59 29.5, 49.36 24.54, 39.03 23.35 C28.71 22.17, 17.9 24.25, 10.92 23.12 C3.95 22, -2.89 19.42, -2.8 16.62 C-2.71 13.83, 5.47 9.03, 11.46 6.36 C17.45 3.69, 23.16 2.05, 33.13 0.59 C43.1 -0.86, 58.59 -2.3, 71.29 -2.38 C83.99 -2.47, 97.84 -1.23, 109.35 0.11 C120.86 1.45, 135.17 5.04, 140.35 5.66 C145.54 6.28, 141.17 3.54, 140.46 3.84" stroke="#b2b3b1" stroke-width="2" fill="none"></path></g><g stroke-linecap="round" transform="translate(368.48847690448156 419.07836580842405) rotate(0 81.23749477516162 13.679174306372914)"><path d="M76.53 1.32 C88.76 0.93, 105.76 -1.08, 117.51 -0.45 C129.26 0.19, 139.61 3.06, 147.01 5.14 C154.4 7.21, 159.77 10.15, 161.9 11.99 C164.02 13.82, 163.76 14.51, 159.78 16.16 C155.8 17.82, 147.35 19.98, 138.03 21.94 C128.71 23.89, 116.29 26.72, 103.86 27.87 C91.43 29.03, 75.69 29.17, 63.47 28.89 C51.25 28.6, 40.05 27.48, 30.55 26.14 C21.05 24.8, 11.44 23.23, 6.46 20.84 C1.48 18.45, -0.22 14.44, 0.66 11.79 C1.54 9.14, 4.96 6.44, 11.74 4.91 C18.52 3.39, 26.65 3.17, 41.34 2.64 C56.03 2.1, 86.55 1.91, 99.89 1.73 C113.23 1.54, 121.57 1.47, 121.37 1.54 M16.16 5.13 C22.46 4.11, 37.28 4.33, 48.61 3.06 C59.93 1.79, 72.09 -1.97, 84.12 -2.47 C96.16 -2.97, 109.58 -1.39, 120.8 0.04 C132.03 1.47, 144.56 4.33, 151.47 6.11 C158.37 7.88, 161.71 8.73, 162.24 10.68 C162.76 12.63, 159.87 15.21, 154.61 17.82 C149.35 20.43, 140.54 24.73, 130.68 26.36 C120.82 28, 107.54 27.51, 95.44 27.65 C83.34 27.78, 69.52 27.76, 58.1 27.15 C46.68 26.55, 35.97 25.15, 26.9 24.03 C17.83 22.91, 7.7 22.32, 3.67 20.44 C-0.36 18.56, 0.6 15.06, 2.72 12.77 C4.84 10.47, 13.8 7.74, 16.39 6.68 C18.99 5.63, 17.58 6.07, 18.31 6.42" stroke="none" stroke-width="0" fill="#ced4da"></path><path d="M96.49 2.02 C108.65 2.77, 124.01 3.56, 134.11 4.42 C144.2 5.27, 152.17 5.08, 157.04 7.15 C161.91 9.22, 164.29 14.8, 163.31 16.85 C162.34 18.9, 158.12 17.87, 151.2 19.44 C144.28 21, 132.89 24.8, 121.77 26.23 C110.65 27.66, 97.12 28.21, 84.48 28.01 C71.83 27.8, 57.64 26.21, 45.91 24.99 C34.18 23.77, 21.29 22.26, 14.09 20.69 C6.89 19.12, 4.42 17.59, 2.71 15.59 C0.99 13.58, 0.05 10.78, 3.82 8.65 C7.59 6.51, 15.73 3.85, 25.33 2.77 C34.93 1.69, 45.22 2.09, 61.41 2.19 C77.61 2.29, 109.45 3.3, 122.53 3.38 C135.6 3.46, 140.85 2.47, 139.87 2.67 M87.93 1.1 C99.77 0.99, 112.86 -0.56, 123.77 0.4 C134.68 1.36, 146.91 4.45, 153.38 6.87 C159.85 9.3, 162.32 12.77, 162.59 14.94 C162.85 17.11, 160.24 17.78, 154.98 19.89 C149.71 22, 141.8 26.2, 130.98 27.58 C120.16 28.96, 102.56 28.81, 90.07 28.16 C77.58 27.52, 67.09 24.11, 56.02 23.7 C44.95 23.28, 32.75 26.9, 23.64 25.67 C14.53 24.45, 5.27 18.63, 1.36 16.33 C-2.54 14.02, -2.46 13.66, 0.21 11.84 C2.88 10.02, 8.94 7.33, 17.41 5.4 C25.87 3.47, 38.67 1.02, 51.02 0.24 C63.37 -0.55, 85.12 0.5, 91.5 0.69 C97.89 0.88, 89.32 1.38, 89.32 1.4" stroke="#b2b3b1" stroke-width="2" fill="none"></path></g><g transform="translate(600.444559733073 245.14225410478997) rotate(0 34 50)"><text x="34" y="17" font-family="Virgil, Segoe UI Emoji" font-size="20px" fill="#343a40" text-anchor="middle" style="white-space: pre;" direction="ltr"></text><text x="34" y="42" font-family="Virgil, Segoe UI Emoji" font-size="20px" fill="#343a40" text-anchor="middle" style="white-space: pre;" direction="ltr"></text><text x="34" y="67" font-family="Virgil, Segoe UI Emoji" font-size="20px" fill="#343a40" text-anchor="middle" style="white-space: pre;" direction="ltr">Domain</text><text x="34" y="92" font-family="Virgil, Segoe UI Emoji" font-size="20px" fill="#343a40" text-anchor="middle" style="white-space: pre;" direction="ltr">Events</text></g><g stroke-linecap="round" transform="translate(380.5004138128934 377.7516677730166) rotate(0 69 15)"><path d="M0.76 -0.45 L138.15 1.86 L139.93 29.96 L3.95 33.63" stroke="none" stroke-width="0" fill="#ededed"></path><path d="M-1.31 -3.82 C44.97 2.82, 99.31 1.86, 139.35 -2.64 M134.61 1.58 C139.81 12.74, 139.88 22.38, 136.05 26.79 M136.63 28.92 C103.26 27.98, 73.58 33.23, 2.82 33.24 M3.31 30.45 C-2.05 18.22, -2.57 10.85, -3.97 -2.6" stroke="#b2b3b1" stroke-width="2.5" fill="none" stroke-dasharray="8 10"></path></g><g transform="translate(385.5004138128934 382.7516677730166) rotate(0 64 10)"><text x="64" y="14" font-family="Virgil, Segoe UI Emoji" font-size="16px" fill="#495057" text-anchor="middle" style="white-space: pre;" direction="ltr">Projection</text></g></svg>