<?xml version="1.0" encoding="UTF-8" standalone="no"?>
<!-- Created with Inkscape (http://www.inkscape.org/) -->
<svg xmlns:dc="http://purl.org/dc/elements/1.1/" xmlns:cc="http://creativecommons.org/ns#" xmlns:rdf="http://www.w3.org/1999/02/22-rdf-syntax-ns#" xmlns:svg="http://www.w3.org/2000/svg" xmlns="http://www.w3.org/2000/svg" xmlns:sodipodi="http://sodipodi.sourceforge.net/DTD/sodipodi-0.dtd" xmlns:inkscape="http://www.inkscape.org/namespaces/inkscape" width="600" height="600" id="svg3027" version="1.1" inkscape:version="0.47pre4 r22446" sodipodi:docname="Nuovo documento 7">
  <defs id="defs3029">
    <inkscape:perspective sodipodi:type="inkscape:persp3d" inkscape:vp_x="0 : 526.18109 : 1" inkscape:vp_y="0 : 1000 : 0" inkscape:vp_z="744.09448 : 526.18109 : 1" inkscape:persp3d-origin="372.04724 : 350.78739 : 1" id="perspective3035"/>
    <inkscape:perspective id="perspective3013" inkscape:persp3d-origin="0.5 : 0.33333333 : 1" inkscape:vp_z="1 : 0.5 : 1" inkscape:vp_y="0 : 1000 : 0" inkscape:vp_x="0 : 0.5 : 1" sodipodi:type="inkscape:persp3d"/>
  </defs>
  <sodipodi:namedview id="base" pagecolor="#ffffff" bordercolor="#666666" borderopacity="1.0" inkscape:pageopacity="0.0" inkscape:pageshadow="2" inkscape:zoom="0.35" inkscape:cx="-185" inkscape:cy="634.28571" inkscape:document-units="px" inkscape:current-layer="layer1" showgrid="false" inkscape:window-width="1366" inkscape:window-height="694" inkscape:window-x="0" inkscape:window-y="25" inkscape:window-maximized="1"/>
  <metadata id="metadata3032">
    <rdf:RDF>
      <cc:Work rdf:about="">
        <dc:format>image/svg+xml</dc:format>
        <dc:type rdf:resource="http://purl.org/dc/dcmitype/StillImage"/>
        <dc:title/>
      </cc:Work>
    </rdf:RDF>
  </metadata>
  <g inkscape:label="Livello 1" inkscape:groupmode="layer" id="layer1" transform="translate(0,-452.36218)">
    <path transform="matrix(1.9926168,0,0,1.9926168,-45.019218,-64.700573)" d="m 288.57143,426.64789 a 131.42857,131.42857 0 1 1 -262.857151,0 131.42857,131.42857 0 1 1 262.857151,0 z" sodipodi:ry="131.42857" sodipodi:rx="131.42857" sodipodi:cy="426.64789" sodipodi:cx="157.14285" id="path1671" style="fill:#f5f5f5;fill-opacity:1;stroke:#babdb6;stroke-width:2.84536052;stroke-miterlimit:4;stroke-opacity:1" sodipodi:type="arc"/>
    <path transform="matrix(1.7871924,0,0,1.7871924,-12.738036,22.943467)" d="m 288.57143,426.64789 a 131.42857,131.42857 0 1 1 -262.857151,0 131.42857,131.42857 0 1 1 262.857151,0 z" sodipodi:ry="131.42857" sodipodi:rx="131.42857" sodipodi:cy="426.64789" sodipodi:cx="157.14285" id="path1673" style="fill:#ba131a;fill-opacity:1;stroke:none" sodipodi:type="arc"/>
    <path transform="matrix(2.183163,0,0,2.183163,-453.32317,-350.16161)" d="m 391.42857,479.50504 a 41.42857,41.42857 0 1 1 -82.85714,0 41.42857,41.42857 0 1 1 82.85714,0 z" sodipodi:ry="41.42857" sodipodi:rx="41.42857" sodipodi:cy="479.50504" sodipodi:cx="350" id="path1675" style="fill:#ffffff;fill-opacity:1;stroke:none" sodipodi:type="arc"/>
    <path transform="matrix(1.8899036,0,0,1.8899036,-472.17575,-216.29124)" d="m 447.85715,574.14789 a 30,31.071428 0 1 1 -60,0 30,31.071428 0 1 1 60,0 z" sodipodi:ry="31.071428" sodipodi:rx="30" sodipodi:cy="574.14789" sodipodi:cx="417.85715" id="path1677" style="fill:#ffffff;fill-opacity:1;stroke:none" sodipodi:type="arc"/>
    <path transform="matrix(1.0124482,0,0,1.0124482,-206.09405,346.63007)" d="m 447.85715,574.14789 a 30,31.071428 0 1 1 -60,0 30,31.071428 0 1 1 60,0 z" sodipodi:ry="31.071428" sodipodi:rx="30" sodipodi:cy="574.14789" sodipodi:cx="417.85715" id="path1679" style="fill:#ffffff;fill-opacity:1;stroke:none" sodipodi:type="arc"/>
    <path transform="matrix(0.92555707,0,0,0.92555707,-168.52891,281.77496)" d="m 447.85715,574.14789 a 30,31.071428 0 1 1 -60,0 30,31.071428 0 1 1 60,0 z" sodipodi:ry="31.071428" sodipodi:rx="30" sodipodi:cy="574.14789" sodipodi:cx="417.85715" id="path1681" style="fill:#ffffff;fill-opacity:1;stroke:none" sodipodi:type="arc"/>
    <path transform="matrix(0.89402087,-0.23955114,0.23955114,0.89402087,54.265908,472.24545)" d="m 447.85715,574.14789 a 30,31.071428 0 1 1 -60,0 30,31.071428 0 1 1 60,0 z" sodipodi:ry="31.071428" sodipodi:rx="30" sodipodi:cy="574.14789" sodipodi:cx="417.85715" id="path1685" style="fill:#ba131a;fill-opacity:1;stroke:none" sodipodi:type="arc"/>
    <path transform="matrix(0.89402087,-0.23955114,0.23955114,0.89402087,-463.90977,611.09028)" d="m 447.85715,574.14789 a 30,31.071428 0 1 1 -60,0 30,31.071428 0 1 1 60,0 z" sodipodi:ry="31.071428" sodipodi:rx="30" sodipodi:cy="574.14789" sodipodi:cx="417.85715" id="path1687" style="fill:#ba131a;fill-opacity:1;stroke:none" sodipodi:type="arc"/>
    <path transform="matrix(0.89402087,-0.23955114,0.23955114,0.89402087,-334.5742,68.49031)" d="m 447.85715,574.14789 a 30,31.071428 0 1 1 -60,0 30,31.071428 0 1 1 60,0 z" sodipodi:ry="31.071428" sodipodi:rx="30" sodipodi:cy="574.14789" sodipodi:cx="417.85715" id="path1689" style="fill:#ba131a;fill-opacity:1;stroke:none" sodipodi:type="arc"/>
  </g>
</svg>