<svg version="1.1" xmlns="http://www.w3.org/2000/svg" viewBox="0 0 1041.8342016492243 602.7127345190338" width="1041.8342016492243" height="602.7127345190338">
  <!-- svg-source:excalidraw -->
  
  <defs>
    <style>
      @font-face {
        font-family: "Virgil";
        src: url("https://unpkg.com/@excalidraw/excalidraw@0.12.0-32d8221/dist/excalidraw-assets/Virgil.woff2");
      }
      @font-face {
        font-family: "Cascadia";
        src: url("https://unpkg.com/@excalidraw/excalidraw@0.12.0-32d8221/dist/excalidraw-assets/Cascadia.woff2");
      }
    </style>
  </defs>
  <g stroke-linecap="round" transform="translate(378.11098480224587 221.61445513424945) rotate(0 65.5 45)"><path d="M-3.37 -2.51 L129.58 3.57 L131.83 87.47 L-3.22 90.41" stroke="none" stroke-width="0" fill="#15aabf"></path><path d="M-1.51 -3.35 C51.01 1.84, 94.33 -0.86, 132.84 -0.62 M-0.77 1.46 C38.13 -1.27, 75.9 -3.5, 130.14 -1.32 M128.92 -2.76 C132 15.01, 130.47 39.61, 133.06 86.5 M129.91 1.62 C131.92 22.51, 129.83 46.22, 129.92 88.05 M130.63 90.3 C104.8 85.75, 71.37 90.62, 3.2 86.13 M130.71 88.76 C86.31 88.08, 41.04 90.14, 0.47 91.36 M3 86.56 C-0.98 65.17, -1.78 40.54, 3.42 -3.56 M-1.67 88.58 C1.42 58.88, -1.36 31.09, 1.46 0.21" stroke="#1864ab" stroke-width="4" fill="none"></path></g><g transform="translate(383.11098480224587 253.11445513424945) rotate(0 60.5 13.5)"><text x="60.5" y="19" font-family="Virgil, Segoe UI Emoji" font-size="20px" fill="#343a40" text-anchor="middle" style="white-space: pre;" direction="ltr">Domain</text></g><g stroke-linecap="round"><g transform="translate(573.9791338980713 101.07265613414643) rotate(0 37.018098690788065 40.558623710873974)" fill-rule="evenodd"><path d="M0.05 0.46 L-1.64 78.68 L2.68 81.66 L18.22 87.83 L37.73 88.67 L61.87 87.57 L75.85 81.33 L74.75 -1.2 L65.23 -3.73 L34.15 -6.46 L8.93 -3.36 L1.75 -3.86 L1.15 -0.41" stroke="none" stroke-width="0" fill="#fa5252" fill-rule="evenodd"></path><path d="M0.09 -0.29 C0.1 11.71, 1.08 58.54, 1.19 72.06 C1.31 85.58, 0.46 78.99, 0.76 80.84 C1.07 82.7, 0.35 82.19, 3.03 83.2 C5.7 84.2, 10.59 85.86, 16.83 86.88 C23.06 87.9, 33.1 89.5, 40.45 89.3 C47.81 89.11, 55.47 86.91, 60.95 85.69 C66.43 84.47, 71.33 82.77, 73.35 81.99 C75.38 81.21, 72.8 82.64, 73.11 81.01 C73.41 79.39, 75.18 84.69, 75.18 72.24 C75.18 59.79, 73.46 18.47, 73.12 6.3 C72.78 -5.87, 74.06 0.82, 73.16 -0.79 C72.25 -2.39, 70.16 -2.28, 67.7 -3.31 C65.24 -4.34, 63.8 -6.28, 58.38 -6.98 C52.96 -7.68, 41.8 -7.44, 35.18 -7.52 C28.56 -7.59, 23.9 -7.98, 18.67 -7.42 C13.43 -6.86, 6.7 -5.28, 3.76 -4.17 C0.82 -3.06, 1.62 -1.62, 1.05 -0.75 C0.47 0.12, 0.3 0.92, 0.29 1.05 M-1.32 -1.49 C-1.48 10.68, 0.46 59.46, 0.75 73.42 C1.03 87.38, 0.04 80.54, 0.39 82.26 C0.74 83.99, -0.22 82.96, 2.86 83.77 C5.94 84.57, 12.9 86.25, 18.88 87.09 C24.85 87.94, 31.57 88.8, 38.69 88.86 C45.81 88.93, 55.9 88.18, 61.59 87.5 C67.28 86.81, 70.67 85.97, 72.85 84.74 C75.03 83.52, 74.65 81.79, 74.65 80.13 C74.64 78.48, 73.09 86.95, 72.81 74.83 C72.53 62.71, 72.58 20.12, 72.97 7.4 C73.37 -5.31, 76.11 0.4, 75.17 -1.47 C74.23 -3.35, 70.28 -2.81, 67.33 -3.85 C64.38 -4.89, 62.83 -7.04, 57.45 -7.73 C52.08 -8.43, 41.92 -8.2, 35.11 -8.01 C28.3 -7.82, 21.98 -7.27, 16.6 -6.6 C11.22 -5.93, 5.52 -4.95, 2.81 -3.98 C0.1 -3.01, 0.96 -1.12, 0.33 -0.76 C-0.3 -0.39, -0.61 -1.63, -0.95 -1.8" stroke="#c92a2a" stroke-width="4" fill="none"></path></g></g><g stroke-linecap="round" transform="translate(574.2422708093691 92.41170563033211) rotate(0 36.87328346275217 7.457344171239711)"><path d="M46.85 -0.06 C54.31 0.12, 63.73 1.82, 68.32 3.18 C72.91 4.53, 75.28 6.37, 74.4 8.07 C73.52 9.77, 69.04 12.41, 63.06 13.38 C57.08 14.35, 46.42 14.04, 38.51 13.91 C30.6 13.79, 21.75 13.58, 15.59 12.63 C9.42 11.67, 3.53 9.67, 1.53 8.2 C-0.47 6.73, 0.03 4.96, 3.59 3.83 C7.15 2.7, 15.21 2.1, 22.88 1.42 C30.56 0.74, 45.05 -0.28, 49.65 -0.27 C54.24 -0.26, 50.79 1.15, 50.45 1.47 M38.29 -1.35 C45.64 -1.28, 56.45 0.59, 62.27 1.82 C68.08 3.06, 72.42 4.47, 73.19 6.06 C73.96 7.64, 71.1 9.81, 66.89 11.32 C62.68 12.82, 55.58 14.52, 47.93 15.09 C40.28 15.67, 28.46 15.69, 20.99 14.79 C13.53 13.89, 6.31 11.28, 3.15 9.7 C0 8.11, 0.32 6.62, 2.05 5.28 C3.78 3.94, 7.59 2.56, 13.55 1.66 C19.51 0.76, 33.44 0.1, 37.82 -0.11 C42.19 -0.33, 39.84 0.12, 39.78 0.39" stroke="none" stroke-width="0" fill="#fa5252"></path><path d="M31.01 -0.77 C38.23 -1.15, 49.19 -0.3, 56.13 0.84 C63.08 1.99, 70.2 4.66, 72.69 6.09 C75.18 7.52, 74.01 8.26, 71.08 9.43 C68.14 10.6, 62.16 12.11, 55.08 13.13 C47.99 14.15, 36.3 15.9, 28.56 15.55 C20.83 15.21, 13.57 12.44, 8.69 11.08 C3.81 9.72, -0.78 8.9, -0.72 7.4 C-0.66 5.9, 2.58 3.22, 9.05 2.06 C15.52 0.91, 31.96 0.89, 38.08 0.46 C44.19 0.03, 45.74 -0.57, 45.75 -0.5 M51.4 2.08 C58.4 2.59, 65.82 3.29, 69.54 4.72 C73.26 6.15, 75.68 9.17, 73.72 10.66 C71.76 12.15, 64.43 13.12, 57.76 13.64 C51.09 14.16, 41.78 13.76, 33.7 13.8 C25.62 13.84, 15.01 14.71, 9.28 13.89 C3.54 13.08, -0.38 10.91, -0.71 8.89 C-1.03 6.87, 2.52 3.11, 7.31 1.78 C12.09 0.45, 20.32 0.85, 28.01 0.92 C35.7 0.99, 49.41 2.15, 53.42 2.22 C57.44 2.29, 52.49 1.45, 52.09 1.35" stroke="#c92a2a" stroke-width="4" fill="none"></path></g><g transform="translate(585.3334655761721 122.4478393302129) rotate(0 33 25.5)"><text x="0" y="17.5" font-family="Virgil, Segoe UI Emoji" font-size="20px" fill="#343a40" text-anchor="start" style="white-space: pre;" direction="ltr">Event </text><text x="0" y="43" font-family="Virgil, Segoe UI Emoji" font-size="20px" fill="#343a40" text-anchor="start" style="white-space: pre;" direction="ltr">Store</text></g><g stroke-linecap="round"><g transform="translate(513.1108703613286 257.47488532022953) rotate(0 25.97024396749839 1.7393824203504664)"><path d="M0.92 -1.33 C9.47 -0.3, 45.46 3.69, 53.96 4.81 M-2.02 4.12 C5.88 4.42, 41.59 0.95, 51.49 0.39" stroke="#495057" stroke-width="4" fill="none"></path></g><g transform="translate(513.1108703613286 257.47488532022953) rotate(0 25.97024396749839 1.7393824203504664)"><path d="M24.76 11.03 C38.13 3.51, 48.77 -0.48, 48.52 -1.12 M26.65 10.24 C32.74 8.91, 37.07 7.85, 52.95 -0.38" stroke="#495057" stroke-width="4" fill="none"></path></g><g transform="translate(513.1108703613286 257.47488532022953) rotate(0 25.97024396749839 1.7393824203504664)"><path d="M23.34 -7.56 C37.08 -7.76, 48.29 -4.41, 48.52 -1.12 M25.22 -8.35 C31.98 -5.66, 36.62 -2.7, 52.95 -0.38" stroke="#495057" stroke-width="4" fill="none"></path></g></g><g stroke-linecap="round" transform="translate(168.7222188313799 223.8366943106817) rotate(90 65.5 45)"><path d="M-2.05 0.65 L134.71 3.24 L131.01 89.76 L1.2 88.36" stroke="none" stroke-width="0" fill="#82c91e"></path><path d="M-1.72 -2.63 C39.49 1.13, 85.37 0, 128.24 1.43 M1.03 -1.75 C28.47 -3.09, 57.06 -3.33, 132.62 1.68 M128.84 -3.9 C127.37 17.88, 129.31 43.19, 131.3 92.42 M132.6 -1.94 C130.73 18.2, 129.5 38.49, 129.76 89.91 M131.94 92.72 C99.72 94.45, 69.9 93.9, -3.44 90.61 M132.71 88.22 C92.19 90.73, 50.77 88.5, -1.42 91.92 M2.93 90.41 C-2.59 67.57, -0.64 53.72, 0.83 -2.53 M-0.24 90.63 C-0.54 72.18, 0.37 49.2, -0.62 0.85" stroke="#087f5b" stroke-width="4" fill="none"></path></g><g transform="translate(173.7222188313799 241.8366943106817) rotate(90 60.5 27)"><text x="60.5" y="19" font-family="Virgil, Segoe UI Emoji" font-size="20px" fill="#343a40" text-anchor="middle" style="white-space: pre;" direction="ltr">Command</text><text x="60.5" y="46" font-family="Virgil, Segoe UI Emoji" font-size="20px" fill="#343a40" text-anchor="middle" style="white-space: pre;" direction="ltr">Handler</text></g><g stroke-linecap="round" transform="translate(172.33326212565134 431.05893348711385) rotate(90 65.5 45)"><path d="M-1.79 1.18 L131.58 3.68 L128.2 92.35 L-1.35 92.84" stroke="none" stroke-width="0" fill="#ededed"></path><path d="M0.74 -3.04 C44.28 0.56, 88.56 -0.83, 131.8 -0.54 M-0.99 -1.75 C30.75 3.03, 62.91 0.23, 129.1 -1.96 M134.25 3.64 C133.67 34.09, 130.02 68.51, 133.46 91.44 M130.03 -0.79 C132.54 21.44, 132.05 37.48, 129.04 91.03 M129.23 86.78 C95.96 89.3, 68 90.37, -3.6 91.78 M130.28 90.89 C89.95 91.52, 48.83 91.18, -1.59 90.76 M-3.71 93.04 C-1.85 60.46, -1.39 32.98, 0.23 1.89 M-0.37 90.34 C-1.47 62.7, -1.62 30.13, 1.2 -0.73" stroke="#495057" stroke-width="4" fill="none"></path></g><g transform="translate(177.33326212565134 449.05893348711385) rotate(90 60.5 27)"><text x="60.5" y="19" font-family="Virgil, Segoe UI Emoji" font-size="20px" fill="#495057" text-anchor="middle" style="white-space: pre;" direction="ltr">Query</text><text x="60.5" y="46" font-family="Virgil, Segoe UI Emoji" font-size="20px" fill="#495057" text-anchor="middle" style="white-space: pre;" direction="ltr">Handler</text></g><g transform="translate(386.62221746640535 541.7127345190338) rotate(0 84 25.5)"><text x="84" y="17.5" font-family="Virgil, Segoe UI Emoji" font-size="20px" fill="#495057" text-anchor="middle" style="white-space: pre;" direction="ltr">Materialized View</text><text x="84" y="43" font-family="Virgil, Segoe UI Emoji" font-size="20px" fill="#495057" text-anchor="middle" style="white-space: pre;" direction="ltr">( Projection )</text></g><g stroke-linecap="round"><g transform="translate(363.1050194612087 471.64637439312327) rotate(0 -34.61606136858154 0.7047903402750535)"><path d="M-1.05 1.14 C-12.36 1.88, -58.34 3.11, -70.21 2.95 M3.58 -0.7 C-7.95 -0.69, -61.05 -1.95, -72.81 -1.43" stroke="#495057" stroke-width="4" fill="none"></path></g><g transform="translate(363.1050194612087 471.64637439312327) rotate(0 -34.61606136858154 0.7047903402750535)"><path d="M-43.02 -12.74 C-49.17 -13.69, -59.18 -8.3, -70.92 0.18 M-43.57 -12.06 C-55.82 -6.71, -66.33 -4.21, -74.21 0.47" stroke="#495057" stroke-width="4" fill="none"></path></g><g transform="translate(363.1050194612087 471.64637439312327) rotate(0 -34.61606136858154 0.7047903402750535)"><path d="M-42.95 7.78 C-48.89 2.4, -58.92 3.37, -70.92 0.18 M-43.49 8.46 C-55.68 6.08, -66.22 0.86, -74.21 0.47" stroke="#495057" stroke-width="4" fill="none"></path></g></g><g stroke-linecap="round"><g transform="translate(281.99997965494777 270.60725123469484) rotate(0 45.58588423473134 1.072328021007877)"><path d="M1.9 -1.58 C17.27 -0.91, 77.07 3.15, 91.68 3.04 M-0.51 3.73 C14.58 3.77, 75.18 0.13, 89.76 -0.6" stroke="#495057" stroke-width="4" fill="none"></path></g><g transform="translate(281.99997965494777 270.60725123469484) rotate(0 45.58588423473134 1.072328021007877)"><path d="M59.91 12 C73.62 5.31, 73.81 5.01, 93.53 -0.26 M61.42 9.95 C67.47 8.42, 74.42 6.11, 88.69 0.09" stroke="#495057" stroke-width="4" fill="none"></path></g><g transform="translate(281.99997965494777 270.60725123469484) rotate(0 45.58588423473134 1.072328021007877)"><path d="M58.78 -8.49 C72.67 -9.42, 73.17 -3.96, 93.53 -0.26 M60.29 -10.54 C66.43 -7.95, 73.61 -6.17, 88.69 0.09" stroke="#495057" stroke-width="4" fill="none"></path></g></g><g stroke-linecap="round" transform="translate(896.2223714192705 11.058984349744378) rotate(359.0684149780816 65.5 45)"><path d="M-0.25 3.44 L131.32 -2.72 L133.16 89.02 L-3.54 88.38" stroke="none" stroke-width="0" fill="#ededed"></path><path d="M3.99 1.65 C39.67 -1.19, 74.41 1.42, 132.9 -0.94 M-0.13 -1.5 C45.51 0.76, 88.1 -0.69, 131 1.02 M129.29 1.99 C135.16 33.17, 131.21 69.42, 134.66 87.58 M130.85 -0.25 C130 28.66, 131.18 55.89, 130.07 91.01 M134.77 91.41 C82.53 85.19, 36.09 86.6, -0.93 92.64 M131.87 88.5 C90.49 92.2, 47.5 93.02, 1.78 91.88 M-1.48 91.18 C4.12 71.79, -2.32 55.76, 1.5 2.46 M1.12 88.32 C1.26 59.83, 0.12 28.83, 1.07 -0.66" stroke="#495057" stroke-width="4" fill="none"></path></g><g transform="translate(901.2223714192705 42.55898434974438) rotate(359.0684149780816 60.5 13.5)"><text x="60.5" y="19" font-family="Virgil, Segoe UI Emoji" font-size="20px" fill="#495057" text-anchor="middle" style="white-space: pre;" direction="ltr">Consumer</text></g><g stroke-linecap="round" transform="translate(323.7221934000652 25.503386408663687) rotate(0 65.5 45)"><path d="M1.73 3.19 L129.96 2.69 L130.9 93.31 L-3.2 90.03" stroke="none" stroke-width="0" fill="#ededed"></path><path d="M-3.31 3.78 C45.65 -3.91, 91.85 1.16, 128.78 3.37 M1.45 0.42 C31.58 0.19, 64.65 -0.31, 129.34 -1.24 M132.69 -2.81 C126.87 17.61, 129.49 43.14, 132.02 89.08 M131.42 0.67 C129.4 22.82, 131.47 41.19, 130.95 91.53 M127.38 88.18 C102.94 91.72, 75.2 88.79, 2.2 86.84 M131.64 89.7 C97.8 88.73, 61.23 91.09, 1.3 91.3 M-1.68 91.47 C-0.65 56.14, 1.24 18.16, -0.14 0.12 M1.03 90.02 C-1.04 64.53, 1.14 39.96, 0.41 0.6" stroke="#495057" stroke-width="4" fill="none"></path></g><g transform="translate(328.7221934000652 43.50338640866369) rotate(0 60.5 27)"><text x="60.5" y="19" font-family="Virgil, Segoe UI Emoji" font-size="20px" fill="#495057" text-anchor="middle" style="white-space: pre;" direction="ltr">Event </text><text x="60.5" y="46" font-family="Virgil, Segoe UI Emoji" font-size="20px" fill="#495057" text-anchor="middle" style="white-space: pre;" direction="ltr">Handler</text></g><g transform="translate(555.055603027344 300.8089080557988) rotate(0 72 12.5)"><text x="0" y="18" font-family="Virgil, Segoe UI Emoji" font-size="20px" fill="#495057" text-anchor="start" style="white-space: pre;" direction="ltr">Domain Events</text></g><g stroke-linecap="round" transform="translate(568.9445597330732 235.3089334871142) rotate(0 51 23.5)"><path d="M0 0 C0 0, 0 0, 0 0 M0 0 C0 0, 0 0, 0 0 M1.19 12.11 C3.35 7.94, 5.7 4.88, 11.19 1.05 M0.86 11.9 C3 9.21, 7.06 5.31, 11.13 -0.08 M-0.04 24 C9.68 14.02, 17.33 5.8, 21.43 0.28 M-0.05 24.69 C7.73 14.98, 14.42 6.05, 20.93 -0.9 M0.92 38.57 C12.49 23.26, 22.55 10.59, 31.27 1.53 M-0.89 37.17 C12.18 23.97, 22.87 11.95, 31.12 -0.44 M2.4 49.09 C11.71 35.16, 23.81 23.24, 41.88 -1.18 M2.06 47.25 C18.43 29.13, 33.47 10.59, 42.11 0.33 M12.68 48.06 C18.07 39.4, 28.26 26.83, 53.91 0.46 M11.79 48.76 C23.38 34.7, 36.54 20.16, 53.1 -0.53 M23.22 49.16 C34.19 33.57, 50.74 15.68, 62.79 -1.96 M20.79 48.17 C34.13 32.74, 48.33 19.49, 64.55 -0.28 M33.48 47.04 C42.23 37.87, 52.95 27.4, 74.05 -0.77 M33.01 47.31 C41.22 36.5, 50.07 26.02, 74.56 0.09 M43.68 49.7 C58 30.7, 76.59 9.88, 86.52 0.5 M43.73 48.54 C52.44 36.51, 61.98 26.57, 85.29 -0.49 M53.34 47.89 C67.74 31.86, 86.46 13.38, 95.6 -0.15 M53.23 47.14 C64.76 36.81, 72.61 26.06, 95.27 0.45 M64.55 47.95 C78.44 34.2, 92.36 17.52, 102.57 3.87 M65.22 48.9 C78.68 29.91, 96.13 12.18, 103.86 2.78 M73.23 48.52 C80.92 41.24, 84.99 32.87, 103.14 15.5 M75.19 47.79 C83.61 37.13, 94.27 26.43, 104.98 14.46 M84.36 49.29 C92.71 40.2, 96.16 32.78, 106.48 24.09 M84.75 47.56 C91.08 42.19, 95.26 37.7, 105.14 26.5 M95.63 47.79 C98.12 46.02, 101.23 41.76, 102.9 38.41 M96.12 47.57 C98.67 44.53, 101.09 41.01, 103.8 38.62" stroke="#fa5252" stroke-width="1" fill="none"></path><path d="M1.28 1.26 C36.7 0.08, 71.78 1.12, 100.69 0.17 M0.49 -0.71 C23.15 -0.55, 45.9 -0.13, 101.35 0.31 M103.72 -1.56 C100.7 16.72, 103.43 29.95, 103.91 47.92 M101.17 -0.45 C102.68 10.69, 101.74 22.18, 102.67 47.25 M103.2 46.13 C75.51 45.59, 52.02 46.65, -0.62 46.31 M101.99 46.14 C63.17 46.68, 22.69 45.93, -0.49 47.92 M0.32 46.82 C-1.39 34.97, -2.15 25.31, -0.95 -0.42 M-0.15 46.34 C0.39 32.43, 1.22 18.31, -0.73 0.58" stroke="#c92a2a" stroke-width="2" fill="none"></path></g><g stroke-linecap="round" transform="translate(634.1945597330732 249.0589334871142) rotate(270 19.5 10.25)"><path d="M0.93 1 L40.7 1.02 L39.53 21.95 L-0.36 20.79" stroke="none" stroke-width="0" fill="#fa5252"></path><path d="M1.26 1.06 C11.59 0.25, 24.37 -1.56, 39.17 -1.58 M-0.71 0.62 C14.81 0.64, 30.65 -0.84, 39.31 0.23 M37.44 -1.17 C40.65 7.13, 38.72 13.03, 39.92 19.29 M38.55 0.95 C38.42 5, 38.67 10.65, 39.25 19.98 M38.13 19.34 C26.35 21.42, 16.53 20.11, -0.69 22.24 M38.14 21.13 C25.43 20.11, 10.7 20, 0.92 19.97 M-0.18 19.37 C-0.51 11.32, 1.42 4.98, -0.42 0.19 M-0.66 20.53 C0.06 16.79, 0.49 10.64, 0.58 -0.85" stroke="#c92a2a" stroke-width="2" fill="none"></path></g><g stroke-linecap="round" transform="translate(599.6945597330732 248.0589334871142) rotate(270 19.5 10.25)"><path d="M1 1.7 L40.02 0.53 L40.45 20.14 L0.29 20.71" stroke="none" stroke-width="0" fill="#fa5252"></path><path d="M1.06 -0.16 C11.29 0.64, 20.28 -0.08, 37.42 1.9 M0.62 -0.6 C12.35 0.1, 22.38 0.59, 39.23 -0.29 M37.83 1.55 C40.74 6.76, 41.08 15.18, 37.79 19.37 M39.95 -0.56 C38.84 5.66, 39.5 12.19, 38.48 20.29 M37.84 18.75 C26.69 19.64, 12.38 19.64, 1.74 21.67 M39.63 20.92 C29.75 19.83, 20.78 21.09, -0.53 21.05 M-1.13 20.06 C-1.93 15.1, -0.98 6.29, 0.19 -1.55 M0.03 20.48 C0.89 15.58, -0.7 10.43, -0.85 0.46" stroke="#c92a2a" stroke-width="2" fill="none"></path></g><g stroke-linecap="round" transform="translate(566.6945597330732 249.0589334871142) rotate(270 19.5 10.25)"><path d="M1.7 1.02 L39.53 1.45 L38.64 20.79 L0.21 21.23" stroke="none" stroke-width="0" fill="#fa5252"></path><path d="M-0.16 0.5 C15.08 -1.51, 28.56 -1.79, 40.9 -0.09 M-0.6 0.84 C13.45 -0.89, 27.57 -0.02, 38.71 0.48 M40.55 1.57 C38.47 9.82, 39.76 14.6, 37.87 20.33 M38.44 0.01 C38.6 5.12, 39.15 8.39, 38.79 20.83 M37.25 21.19 C24.26 19.65, 10.22 22.01, 1.17 19.05 M39.42 20.12 C27.01 20.26, 16.6 20.21, 0.55 20.86 M-0.44 18.61 C1.51 13.07, -0.41 7.73, -1.55 -0.81 M-0.02 21.36 C0.54 13.93, 0.72 7.98, 0.46 0.5" stroke="#c92a2a" stroke-width="2" fill="none"></path></g><g stroke-linecap="round"><g transform="translate(617.7964896137387 234.031121800917) rotate(0 1.0032526414840959 -19.498803327215086)"><path d="M-1.25 -0.16 C-1.11 -5.82, 1.05 -29, 1.56 -34.94 M3.26 -2.71 C3.18 -9.05, 0.93 -32.51, 0.63 -38.84" stroke="#495057" stroke-width="4" fill="none"></path></g><g transform="translate(617.7964896137387 234.031121800917) rotate(0 1.0032526414840959 -19.498803327215086)"><path d="M8 -18.78 C8.56 -23.99, 4.95 -29.45, -2.57 -41.64 M6.99 -21.98 C5.71 -27.4, 3.37 -31.38, 1.77 -40.08" stroke="#495057" stroke-width="4" fill="none"></path></g><g transform="translate(617.7964896137387 234.031121800917) rotate(0 1.0032526414840959 -19.498803327215086)"><path d="M-4.62 -17.86 C0.06 -23.26, 0.55 -29.02, -2.57 -41.64 M-5.63 -21.06 C-3.34 -26.6, -2.1 -30.84, 1.77 -40.08" stroke="#495057" stroke-width="4" fill="none"></path></g></g><g stroke-linecap="round"><g transform="translate(674.1667480468755 259.05666569493354) rotate(0 42.097254863472244 -2.5269869419102235)"><path d="M-2.18 -0.83 C12.29 -1.58, 71.76 -3.85, 86.37 -4.29 M1.83 -3.75 C15.91 -4.05, 70.28 -1.38, 83.79 -0.76" stroke="#495057" stroke-width="4" fill="none"></path></g><g transform="translate(674.1667480468755 259.05666569493354) rotate(0 42.097254863472244 -2.5269869419102235)"><path d="M53.97 7.28 C63.06 3.95, 72.37 4.46, 87.74 -4.44 M53.76 6.7 C65.84 5.58, 76.89 3.87, 84.27 -0.78" stroke="#495057" stroke-width="4" fill="none"></path></g><g transform="translate(674.1667480468755 259.05666569493354) rotate(0 42.097254863472244 -2.5269869419102235)"><path d="M54.93 -13.22 C63.77 -10.72, 72.81 -4.37, 87.74 -4.44 M54.71 -13.8 C66.16 -7.77, 76.87 -2.34, 84.27 -0.78" stroke="#495057" stroke-width="4" fill="none"></path></g></g><g stroke-linecap="round"><g transform="translate(887.3136771485551 58.25961281195083) rotate(0 -215.3177404774649 -0.2611934104228766)"><path d="M-0.45 -2.66 C-71.47 -3.02, -356.85 -1.35, -428.58 -0.03 M-4.15 2.07 C-75.2 1.76, -358.67 2.31, -430.18 2.16" stroke="#495057" stroke-width="4" fill="none"></path></g><g transform="translate(887.3136771485551 58.25961281195083) rotate(0 -215.3177404774649 -0.2611934104228766)"><path d="M-405.79 -6.42 C-411.57 -7.55, -409.94 -7.66, -429.68 2.32 M-402.19 -9.97 C-411.36 -2.48, -421.41 0.26, -430.37 2.91" stroke="#495057" stroke-width="4" fill="none"></path></g><g transform="translate(887.3136771485551 58.25961281195083) rotate(0 -215.3177404774649 -0.2611934104228766)"><path d="M-405.78 14.1 C-411.89 8.64, -410.26 4.19, -429.68 2.32 M-402.19 10.55 C-411.58 11.25, -421.62 7.2, -430.37 2.91" stroke="#495057" stroke-width="4" fill="none"></path></g></g><g stroke-linecap="round"><g transform="translate(907.5555521647136 269.947839330213) rotate(0 31.72380832575243 -0.0025704557697281416)"><path d="M1.93 1.87 C12.53 1.22, 54.4 -1.67, 63.91 -1.88 M-0.46 0.42 C9.98 -0.11, 52.33 0.12, 63.19 0.74" stroke="#000000" stroke-width="1" fill="none"></path></g></g><g stroke-linecap="round"><g transform="translate(970.0812919850368 239.93903120267044) rotate(0 -1.8249490119753773 -67.37930715546635)"><path d="M-1.8 -1.49 C-2.56 -24.81, -5.39 -116.27, -6.08 -138.63 M2.42 3.87 C2.64 -19.31, -0.55 -113.67, -1.02 -136.37" stroke="#495057" stroke-width="4" fill="none"></path></g><g transform="translate(970.0812919850368 239.93903120267044) rotate(0 -1.8249490119753773 -67.37930715546635)"><path d="M7.89 -112 C3.44 -118.84, 4.94 -125.38, -4.92 -138.05 M8.07 -106.66 C4.1 -119.43, 0.74 -127.18, -2.3 -135.02" stroke="#495057" stroke-width="4" fill="none"></path></g><g transform="translate(970.0812919850368 239.93903120267044) rotate(0 -1.8249490119753773 -67.37930715546635)"><path d="M-12.63 -111.44 C-12.03 -118.15, -5.49 -124.82, -4.92 -138.05 M-12.45 -106.09 C-9.05 -118.68, -5.03 -126.64, -2.3 -135.02" stroke="#495057" stroke-width="4" fill="none"></path></g></g><g stroke-linecap="round" transform="translate(900.1112263997393 422.17002764401497) rotate(359.0684149780816 65.5 45)"><path d="M0.63 -2.11 L128.46 3.01 L128.9 91.95 L3.5 88.26" stroke="none" stroke-width="0" fill="#ededed"></path><path d="M-3.21 -1.86 C33.6 2.4, 60.41 2.5, 130.21 3.41 M1.61 -0.29 C35 2.44, 68.52 2.4, 132.9 -1.84 M129.07 -3.93 C131.25 17.73, 129.6 36.67, 131.2 89.41 M129.53 -0.27 C133.48 34.68, 133.37 66.48, 132.57 89.39 M133.73 87.7 C92.97 91.88, 56.39 92.47, 2 90.84 M130.45 88.56 C105.02 92.2, 75.21 88.9, 1.26 88.78 M1.68 88.71 C3.19 53.33, 0.01 15.62, -0.71 -2.12 M-1.95 88.69 C0.66 63.35, -0.18 35.23, 1.1 -0.8" stroke="#495057" stroke-width="4" fill="none"></path></g><g transform="translate(905.1112263997393 453.67002764401497) rotate(359.0684149780816 60.5 13.5)"><text x="60.5" y="19" font-family="Virgil, Segoe UI Emoji" font-size="20px" fill="#495057" text-anchor="middle" style="white-space: pre;" direction="ltr">Consumer</text></g><g stroke-linecap="round"><g transform="translate(969.2223205566406 261.3845542470055) rotate(0 1.5334811072968932 74.92847852148745)"><path d="M-0.99 -1.11 C-0.45 23.99, 2.61 125.61, 4.06 151.52 M3.67 -4.18 C3.68 21.14, 0.69 128.47, 1.3 154.04" stroke="#495057" stroke-width="4" fill="none"></path></g><g transform="translate(969.2223205566406 261.3845542470055) rotate(0 1.5334811072968932 74.92847852148745)"><path d="M-10.37 124.43 C-8.21 138.96, -0.84 147.43, 1.14 153.99 M-9.13 125.12 C-6.68 138.08, 1.18 149.08, 1.71 153.46" stroke="#495057" stroke-width="4" fill="none"></path></g><g transform="translate(969.2223205566406 261.3845542470055) rotate(0 1.5334811072968932 74.92847852148745)"><path d="M10.15 124.56 C5.57 138.9, 6.21 147.33, 1.14 153.99 M11.39 125.24 C5.98 137.96, 5.98 148.92, 1.71 153.46" stroke="#495057" stroke-width="4" fill="none"></path></g></g><g stroke-linecap="round"><g transform="translate(904.0487368759116 467.69754154367496) rotate(0 -45.8928040090251 3.4928067752106244)"><path d="M-0.38 1.73 C-14.84 2.18, -74.61 3.19, -89.26 3.78 M-4.02 0.2 C-18.62 0.92, -77.18 5.39, -91.41 6.79" stroke="#495057" stroke-width="4" fill="none"></path></g><g transform="translate(904.0487368759116 467.69754154367496) rotate(0 -45.8928040090251 3.4928067752106244)"><path d="M-61.72 -5.6 C-71.48 -1.56, -75.05 -3.4, -93.29 4.73 M-62.82 -5.21 C-75.26 -0.39, -85.92 4.19, -91.56 6.71" stroke="#495057" stroke-width="4" fill="none"></path></g><g transform="translate(904.0487368759116 467.69754154367496) rotate(0 -45.8928040090251 3.4928067752106244)"><path d="M-59.98 14.84 C-70.26 14.57, -74.21 8.41, -93.29 4.73 M-61.08 15.24 C-73.81 12.55, -85.11 9.66, -91.56 6.71" stroke="#495057" stroke-width="4" fill="none"></path></g></g><g stroke-linecap="round" transform="translate(673.9999287923176 448.2810709382857) rotate(0 68.5 32)"><path d="M1.92 2.78 L137.11 -3.76 L140.93 62.28 L0.1 65.82" stroke="none" stroke-width="0" fill="#ededed"></path><path d="M-2.73 3.89 C39.57 -3.31, 82.86 -0.41, 135.17 -3.26 M-1.06 -1.52 C43.09 -0.92, 89.5 -3.19, 135.02 0.41 M135 3.88 C135.98 12.82, 139.28 33.22, 133.32 62.04 M138.73 -1.55 C137.78 18.16, 137.41 38.14, 138.57 63.97 M139.74 61.77 C106.06 65.14, 70.09 66.27, -0.3 63.7 M137.38 63.84 C89.16 60.62, 36.89 60.64, 1.85 63.19 M-1.05 61.2 C2.82 52.49, -1.49 40.07, -3.48 2.84 M-0.95 64.38 C0.88 37.95, 2.15 14.44, -1 -1.31" stroke="#495057" stroke-width="4" fill="none"></path></g><g transform="translate(678.9999287923176 453.2810709382857) rotate(0 63.5 27)"><text x="63.5" y="19" font-family="Virgil, Segoe UI Emoji" font-size="20px" fill="#495057" text-anchor="middle" style="white-space: pre;" direction="ltr">Event </text><text x="63.5" y="46" font-family="Virgil, Segoe UI Emoji" font-size="20px" fill="#495057" text-anchor="middle" style="white-space: pre;" direction="ltr">Handler</text></g><g stroke-linecap="round"><g transform="translate(665.7269467059359 465.00325925208773) rotate(0 -58.74510759289012 0.8363202535676351)"><path d="M-1.81 -1.87 C-21.16 -1.6, -99.16 -0.31, -118.67 0.21 M2.4 3.28 C-16.92 4.04, -99.52 2.91, -119.89 3.05" stroke="#495057" stroke-width="4" fill="none"></path></g><g transform="translate(665.7269467059359 465.00325925208773) rotate(0 -58.74510759289012 0.8363202535676351)"><path d="M-94.34 -4.41 C-99.72 -2.99, -104.14 -5.18, -118.15 2.27 M-90.62 -8.14 C-101.34 -4.53, -110.31 -0.24, -120.25 2.98" stroke="#495057" stroke-width="4" fill="none"></path></g><g transform="translate(665.7269467059359 465.00325925208773) rotate(0 -58.74510759289012 0.8363202535676351)"><path d="M-94.42 16.11 C-99.57 13.26, -103.97 6.8, -118.15 2.27 M-90.7 12.38 C-101.78 9.36, -110.71 7.02, -120.25 2.98" stroke="#495057" stroke-width="4" fill="none"></path></g></g><g stroke-linecap="round"><g transform="translate(313.94461059570335 66.33675788896954) rotate(0 -39.457517680202955 -0.46806105623643646)"><path d="M-0.52 1.43 C-12.94 0.76, -63.75 -1.45, -77.12 -2.37 M-4.25 -0.26 C-16.65 -0.61, -66.62 1.47, -78.39 1.18" stroke="#495057" stroke-width="4" fill="none"></path></g></g><g stroke-linecap="round"><g transform="translate(234.22229512532567 68.83669431068176) rotate(0 -0.9025955135374488 61.87196603007614)"><path d="M0.54 -0.51 C0.87 20.45, 0.65 106.13, 0.81 127 M-2.61 -3.26 C-2.48 16.82, -1.51 101.26, -0.99 123.08" stroke="#495057" stroke-width="4" fill="none"></path></g><g transform="translate(234.22229512532567 68.83669431068176) rotate(0 -0.9025955135374488 61.87196603007614)"><path d="M-12.46 96.21 C-5.85 104.4, -6.36 107.29, 0.35 124.19 M-12.78 94.86 C-8.59 106.08, -5.13 114.99, -2.54 121.16" stroke="#495057" stroke-width="4" fill="none"></path></g><g transform="translate(234.22229512532567 68.83669431068176) rotate(0 -0.9025955135374488 61.87196603007614)"><path d="M8.06 95.87 C9.37 104.22, 3.56 107.21, 0.35 124.19 M7.74 94.52 C5.03 106.16, 1.59 115.19, -2.54 121.16" stroke="#495057" stroke-width="4" fill="none"></path></g></g><g stroke-linecap="round" transform="translate(-185.5 292.00333554603327) rotate(90 233.5 38)"><path d="M0.56 3.01 L468.22 0.81 L464.16 79.49 L2.23 78.81" stroke="none" stroke-width="0" fill="#ededed"></path><path d="M0.13 1.49 C96.75 -4.21, 195.94 -2.27, 465.88 1.5 M-0.16 0.54 C124.46 0.79, 247.83 0.86, 466.38 -0.1 M464.83 -0.55 C468.44 18.45, 465.25 29.69, 466.54 78.82 M467.15 -1.09 C465.75 19.34, 465.78 38.8, 465.74 75.25 M466.1 74.85 C337.13 77.12, 207.08 78.01, -1.35 74.64 M467.82 75.54 C344.37 72.17, 220.61 72.69, 0.01 75.6 M2.94 72.32 C1.97 48.48, -3.19 18.47, -3.16 2.34 M0.44 74.48 C-0.78 48.95, -1.38 18.74, 0.35 1.34" stroke="#495057" stroke-width="4" fill="none"></path></g><g transform="translate(-180.5 316.50333554603327) rotate(90 228.5 13.5)"><text x="228.5" y="19" font-family="Virgil, Segoe UI Emoji" font-size="20px" fill="#495057" text-anchor="middle" style="white-space: pre;" direction="ltr">Interface</text></g><g stroke-linecap="round"><g transform="translate(91.66664123535134 269.053876637268) rotate(0 50.01648535147319 -0.1305846069586778)"><path d="M0.67 -2.19 C16.7 -2.46, 80.54 -3.4, 96.96 -2.95 M-2.41 2.8 C14.46 2.96, 85.76 0.82, 102.44 -0.35" stroke="#495057" stroke-width="4" fill="none"></path></g><g transform="translate(91.66664123535134 269.053876637268) rotate(0 50.01648535147319 -0.1305846069586778)"><path d="M71.62 8.75 C81.24 8, 95.24 1.6, 102.76 -0.61 M75.96 10.87 C84.09 8.03, 95.27 1.31, 103.14 -0.06" stroke="#495057" stroke-width="4" fill="none"></path></g><g transform="translate(91.66664123535134 269.053876637268) rotate(0 50.01648535147319 -0.1305846069586778)"><path d="M70.69 -11.75 C80.42 -5.77, 94.73 -5.43, 102.76 -0.61 M75.03 -9.63 C83.72 -5.4, 95.23 -5.03, 103.14 -0.06" stroke="#495057" stroke-width="4" fill="none"></path></g></g><g stroke-linecap="round"><g transform="translate(178.66659545898438 473.8367197419968) rotate(0 -46.085011246874956 -2.4649492964148862)"><path d="M-0.59 -0.55 C-16.88 -0.89, -80.68 -4.19, -96.45 -4.38 M4.28 -3.31 C-11.19 -3.14, -73.94 -1.2, -90.83 -1.77" stroke="#495057" stroke-width="4" fill="none"></path></g><g transform="translate(178.66659545898438 473.8367197419968) rotate(0 -46.085011246874956 -2.4649492964148862)"><path d="M-63.44 -14.16 C-75.27 -8.91, -81.14 -3.57, -88.95 -2.72 M-64.5 -12.66 C-72.23 -8.83, -80.88 -5.94, -92.25 -1.46" stroke="#495057" stroke-width="4" fill="none"></path></g><g transform="translate(178.66659545898438 473.8367197419968) rotate(0 -46.085011246874956 -2.4649492964148862)"><path d="M-63.41 6.37 C-74.9 4.52, -80.79 2.75, -88.95 -2.72 M-64.46 7.86 C-72.06 5.63, -80.72 2.46, -92.25 -1.46" stroke="#495057" stroke-width="4" fill="none"></path></g></g><g stroke-linecap="round"><g transform="translate(851.3625931100423 127.68510790065869) rotate(269.83845249062614 28.861768112745835 125.46253674536229)" fill-rule="evenodd"><path d="M-1.73 -0.83 L57.23 0.66 L56.09 226.68 L28.56 253.87 L-0.34 227.27 L1.27 1.28" stroke="none" stroke-width="0" fill="#ededed" fill-rule="evenodd"></path><path d="M-0.15 -1.88 C14.71 -0.8, 31.66 -0.44, 56.53 0.02 M-0.77 -0.59 C12.21 -1.4, 24.76 -0.46, 58.06 -0.02 M57.39 -0.63 C58.58 64.39, 55.75 125.23, 57.07 225.78 M58.54 -0.15 C58.33 90.66, 57.83 181.7, 57.91 226.93 M58.48 225.7 C47.36 235.15, 40.71 243.13, 29.29 252.46 M57.6 227.81 C47.79 235.85, 37.42 242.41, 27.52 252.81 M26.96 251.61 C19.79 242.83, 11.46 237.1, 2.19 226.56 M27.58 251.61 C22.78 246.93, 15.59 241.03, 1.24 226.07 M2.05 227.04 C1.66 147.85, 0.03 69.23, -0.82 -0.12 M0.45 225.14 C2.7 151.62, 1 79.73, 0.67 0.47 M0 0 C0 0, 0 0, 0 0 M0 0 C0 0, 0 0, 0 0" stroke="#495057" stroke-width="4" fill="none"></path></g></g><g stroke-linecap="round" transform="translate(762.7845058534772 241.98232540207215) rotate(0 23.54845232580078 15.651965318346697)"><path d="M-1.19 -0.1 L48.43 1.79 L46.99 31.02 L-1.64 29.62" stroke="none" stroke-width="0" fill="#ededed"></path><path d="M-1.88 -0.73 C17.85 0.83, 36.49 -1.33, 47.34 -1.77 M-0.59 -0.04 C8.73 0.63, 19.24 0.53, 47.3 -0.22 M46.62 1.17 C49.09 7.13, 46.52 17.83, 45.79 33.3 M47.18 0.04 C47.37 10.05, 47.59 21.31, 47.14 31.41 M45.9 30.69 C37.88 33.47, 28.16 33.02, 0.37 31.78 M48.01 31.42 C36.38 30.72, 23.41 31.08, 0.72 31.21 M-0.48 31.17 C-1.93 20.24, 0.05 11.74, 1.06 -1.75 M-0.48 31.89 C0.03 21.97, -0.22 14.73, 0.56 0.43" stroke="#495057" stroke-width="4" fill="none"></path></g><g stroke-linecap="round"><g transform="translate(787.5785455960281 257.32451124223604) rotate(0 -0.3071004434810902 -8.206758452620505)" fill-rule="evenodd"><path d="M-0.1 1.33 L24.13 -14.9 L-23.79 -16.25 L-1.69 -0.95" stroke="none" stroke-width="0" fill="#ededed" fill-rule="evenodd"></path><path d="M-0.73 -0.37 C8.93 -5.12, 14.9 -10.31, 20.57 -16.74 M-0.04 -0.8 C9.24 -5.55, 18.01 -11.41, 22.11 -14.88 M23.51 -12.93 C4.7 -15.54, -9.39 -16.08, -21.51 -13.99 M22.38 -14.74 C4.96 -14.41, -11.21 -14.58, -23.4 -15.51 M-24.12 -13.94 C-16.44 -10.49, -11.83 -7.79, 0.48 -1.17 M-23.39 -13.95 C-16.05 -10.73, -7.59 -4.03, -0.09 0.33 M0 0 C0 0, 0 0, 0 0 M0 0 C0 0, 0 0, 0 0" stroke="#495057" stroke-width="4" fill="none"></path></g></g><g stroke-linecap="round"><g transform="translate(862.5654448210591 260.01151571788984) rotate(0 28.428552282935357 -0.16706201509637708)"><path d="M-0.37 0.79 C17.36 -1.47, 34.86 -2.2, 57.22 0.84" stroke="#495057" stroke-width="4.5" fill="none" stroke-dasharray="1.5 10"></path></g></g><g stroke-linecap="round" transform="translate(819.0821721590783 242.25342170851758) rotate(0 23.54845232580078 15.651965318346697)"><path d="M1.79 -0.11 L46.82 -1.64 L45.41 30.35 L-0.14 31.78" stroke="none" stroke-width="0" fill="#ededed"></path><path d="M0.79 0.04 C8.33 0.33, 17.61 -1.87, 49.04 -1.54 M0.26 0.19 C11.54 0.58, 22.52 0.28, 47.52 -0.3 M45.13 -0.7 C46.9 7.34, 49.28 17.89, 48.55 32.83 M46.79 0.27 C47.71 9.7, 47.22 18.43, 46.25 31.85 M49.01 32.13 C37.24 31.83, 24.95 30.29, 0.9 31.71 M46.42 30.36 C28.36 32.33, 10.16 31.94, 0.68 30.87 M-0.64 31.57 C1.3 23.72, -1.73 13.42, 1.58 -0.51 M-0.88 31.33 C0.15 23.99, 0.25 14.96, -0.05 0.67" stroke="#495057" stroke-width="4" fill="none"></path></g><g stroke-linecap="round"><g transform="translate(843.9138999044324 256.5002926184803) rotate(0 -0.920349063663366 -7.068460721563696)" fill-rule="evenodd"><path d="M-0.11 -0.28 L20.69 -16.48 L-24.46 -14.74 L0.48 -1.4" stroke="none" stroke-width="0" fill="#ededed" fill-rule="evenodd"></path><path d="M0.04 -1.36 C6.16 -5.76, 9.85 -5.95, 20.8 -15.96 M0.19 0.16 C6.93 -4.66, 13.24 -8.39, 22.04 -15.03 M21.63 -15.17 C4.6 -13.18, -9.92 -13.66, -21.98 -14.43 M22.61 -14.19 C8.42 -14.76, -6.47 -15.66, -22.96 -15.21 M-22.68 -13.15 C-16.76 -10.42, -11.97 -6.07, 0.41 1.82 M-24.45 -14.93 C-15.36 -9.98, -8.41 -4.66, -0.44 -0.24 M0 0 C0 0, 0 0, 0 0 M0 0 C0 0, 0 0, 0 0" stroke="#495057" stroke-width="4" fill="none"></path></g></g><g stroke-linecap="round" transform="translate(920.1107290285013 241.16903648272654) rotate(0 23.54845232580078 15.651965318346697)"><path d="M-0.28 -1.64 L45.41 -0.95 L46.96 31.78 L-1.4 30.43" stroke="none" stroke-width="0" fill="#ededed"></path><path d="M-1.36 0.24 C11.5 -1.97, 28.47 -1.55, 45.93 -0.08 M0.16 0.2 C10.16 -0.18, 21.18 -0.39, 46.86 0.59 M46.71 -1.3 C48.79 12.92, 48.24 26.13, 47.27 31.39 M47.7 0.04 C47.11 8.62, 46.16 19.6, 46.5 31 M48.55 31.67 C31.87 30.33, 16.59 31.91, 1.82 31.54 M46.78 32.02 C29.78 31.19, 13.34 30.42, -0.24 31.24 M1.28 32.36 C-1.65 24.01, 1.68 17.39, -0.97 1.17 M0.34 31.87 C0.71 20.45, 0.23 11.45, 0.9 -0.05" stroke="#495057" stroke-width="4" fill="none"></path></g><g stroke-linecap="round"><g transform="translate(945.893315373271 254.7414046119831) rotate(0 -0.44560247877109305 -7.53347064931333)" fill-rule="evenodd"><path d="M-1.64 -1.69 L21.38 -14.92 L-23.03 -16 L-0.88 -1.06" stroke="none" stroke-width="0" fill="#ededed" fill-rule="evenodd"></path><path d="M0.24 -1.77 C5.63 -2.93, 13.63 -11.07, 22.25 -16.38 M0.2 -0.22 C7.17 -4.44, 14.25 -9.93, 22.92 -13.86 M21.04 -12.79 C13.71 -13.39, 5.38 -14.63, -23.42 -14.52 M22.38 -14.68 C9.08 -15.31, -1.83 -15.01, -23.82 -14.27 M-23.14 -14.13 C-15.32 -8.1, -4.43 -1.4, 0.24 1.31 M-22.79 -14.7 C-17.86 -10.46, -13.17 -7.99, -0.07 -0.86 M0 0 C0 0, 0 0, 0 0 M0 0 C0 0, 0 0, 0 0" stroke="#495057" stroke-width="4" fill="none"></path></g></g><g transform="translate(827.7873461730337 293.87125988274596) rotate(0 51.5 12.5)"><text x="51.5" y="18" font-family="Virgil, Segoe UI Emoji" font-size="20px" fill="#495057" text-anchor="middle" style="white-space: pre;" direction="ltr">Event Bus</text></g><g stroke-linecap="round" transform="translate(370.4353913885027 496.7966890375238) rotate(0 87.26403753315094 14.693953615847022)"><path d="M21.6 5.63 C29.09 4.31, 43.68 3.39, 55.85 2.6 C68.02 1.8, 81.44 0.89, 94.62 0.85 C107.8 0.82, 123.17 0.93, 134.93 2.38 C146.7 3.83, 158.84 7.36, 165.21 9.57 C171.58 11.77, 173.19 13.36, 173.13 15.59 C173.07 17.82, 170.49 21.2, 164.85 22.95 C159.21 24.69, 150.53 24.9, 139.28 26.04 C128.03 27.18, 110.85 29.44, 97.38 29.81 C83.91 30.18, 70.7 29.42, 58.45 28.25 C46.19 27.08, 32.83 24.75, 23.85 22.8 C14.88 20.85, 8.37 18.3, 4.6 16.55 C0.83 14.8, -7.86 14.7, 1.25 12.29 C10.36 9.88, 42.1 3.71, 59.26 2.09 C76.43 0.47, 103.53 2.7, 104.24 2.55 M115.96 -1.82 C127.71 -1.83, 139.41 0.19, 148.42 1.97 C157.42 3.75, 166.44 6.48, 170.01 8.88 C173.57 11.28, 172.73 13.62, 169.81 16.37 C166.88 19.12, 161.16 22.89, 152.46 25.37 C143.76 27.86, 129.63 31.03, 117.59 31.29 C105.55 31.56, 92.76 27.26, 80.23 26.94 C67.69 26.62, 53.71 30.09, 42.39 29.37 C31.06 28.65, 19.41 25.15, 12.29 22.59 C5.17 20.04, -0.23 16.65, -0.34 14.05 C-0.45 11.45, 5.32 8.87, 11.62 6.97 C17.92 5.08, 26.65 3.37, 37.48 2.66 C48.31 1.95, 62.98 3.26, 76.58 2.72 C90.19 2.19, 112.55 0.12, 119.12 -0.54 C125.69 -1.21, 116.54 -1.68, 115.99 -1.27" stroke="none" stroke-width="0" fill="#ced4da"></path><path d="M19.25 5.81 C25.82 4.12, 38.27 2.64, 50.44 1.69 C62.6 0.74, 78.45 -0.14, 92.26 0.1 C106.07 0.34, 121.62 1.77, 133.28 3.14 C144.95 4.5, 155.14 6.35, 162.24 8.31 C169.35 10.26, 175.21 12.53, 175.9 14.89 C176.58 17.24, 171.76 20.68, 166.35 22.42 C160.94 24.16, 153.81 24.48, 143.46 25.33 C133.11 26.18, 117.94 26.92, 104.23 27.53 C90.53 28.13, 74.21 29.55, 61.23 28.96 C48.24 28.37, 36.15 25.55, 26.32 24 C16.5 22.46, 6.23 21.4, 2.27 19.7 C-1.68 18.01, -5.76 17.09, 2.58 13.84 C10.92 10.59, 35.88 2.37, 52.31 0.2 C68.74 -1.96, 100.01 0.14, 101.16 0.84 M49.35 3.04 C59.75 2.55, 71.4 2.53, 84.08 2.02 C96.75 1.5, 113.36 -0.3, 125.39 -0.04 C137.42 0.22, 148.59 1.55, 156.26 3.56 C163.93 5.57, 169.07 9.3, 171.43 12.01 C173.79 14.72, 175.05 17.53, 170.42 19.84 C165.8 22.16, 154.47 24.15, 143.69 25.91 C132.92 27.67, 118.49 29.43, 105.76 30.4 C93.03 31.37, 79.83 32.9, 67.32 31.72 C54.82 30.55, 41.42 25.23, 30.72 23.34 C20.01 21.45, 8.56 21.92, 3.07 20.38 C-2.42 18.84, -3.81 16.79, -2.22 14.09 C-0.64 11.38, 4.75 6.34, 12.57 4.15 C20.38 1.97, 38.56 1.69, 44.66 0.98 C50.76 0.27, 48.67 -0.79, 49.18 -0.11" stroke="#343a40" stroke-width="2" fill="none"></path></g><g stroke-linecap="round" transform="translate(370.4353913885027 480.0935789810441) rotate(0 87.26403753315094 14.693953615847022)"><path d="M94.1 0.76 C107.46 0.3, 123.34 -0.62, 134.87 0.32 C146.39 1.26, 156.67 3.91, 163.25 6.4 C169.83 8.89, 173.48 13.08, 174.33 15.26 C175.17 17.44, 173.79 17.69, 168.29 19.5 C162.8 21.31, 152.15 24.25, 141.37 26.1 C130.58 27.95, 117.19 30.43, 103.58 30.58 C89.96 30.73, 72.71 27.78, 59.68 27 C46.65 26.22, 34.76 27.06, 25.38 25.89 C16 24.71, 7.64 21.99, 3.39 19.95 C-0.87 17.91, -2.51 16.2, -0.18 13.62 C2.15 11.05, 8.43 6.65, 17.35 4.5 C26.26 2.36, 38.79 1.72, 53.31 0.75 C67.84 -0.22, 94.38 -1.53, 104.49 -1.32 C114.59 -1.12, 114.58 1.35, 113.94 1.97 M138.56 0.37 C148.93 1.34, 158.55 5.13, 164.19 7.22 C169.83 9.32, 173.04 10.68, 172.4 12.95 C171.75 15.22, 166.84 18.88, 160.35 20.84 C153.86 22.81, 144.29 23.08, 133.46 24.74 C122.62 26.39, 109.44 29.73, 95.34 30.78 C81.25 31.84, 61.32 32.01, 48.91 31.05 C36.49 30.1, 28.64 27.39, 20.85 25.04 C13.06 22.69, 5.13 18.98, 2.16 16.95 C-0.81 14.92, -0.71 14.72, 3.01 12.86 C6.73 10.99, 14.76 7.48, 24.48 5.76 C34.2 4.04, 47.79 2.99, 61.33 2.55 C74.87 2.11, 92.65 2.95, 105.74 3.1 C118.82 3.25, 134.51 3, 139.84 3.45 C145.18 3.9, 138.48 6.16, 137.76 5.82" stroke="none" stroke-width="0" fill="#ced4da"></path><path d="M134.66 2.16 C146.31 3.05, 156.93 5.81, 163.58 8.1 C170.23 10.39, 174.03 13.6, 174.57 15.9 C175.11 18.19, 172.54 19.86, 166.84 21.89 C161.14 23.93, 151.23 27.04, 140.37 28.11 C129.51 29.19, 114.96 28.01, 101.67 28.36 C88.39 28.72, 73.8 30.79, 60.68 30.25 C47.55 29.71, 32.76 27.21, 22.92 25.12 C13.08 23.03, 5.09 19.93, 1.63 17.7 C-1.84 15.47, -0.77 14.13, 2.13 11.73 C5.02 9.34, 10.31 4.89, 19.01 3.34 C27.71 1.79, 41.36 3.3, 54.32 2.43 C67.27 1.56, 82.62 -2.29, 96.76 -1.88 C110.89 -1.46, 131.2 3.66, 139.14 4.9 C147.07 6.14, 144.79 5.86, 144.39 5.57 M64.61 -2.43 C77.32 -4.08, 94.3 -2.46, 107.03 -1.95 C119.76 -1.44, 131.33 -0.78, 140.98 0.63 C150.62 2.05, 159.51 3.75, 164.9 6.54 C170.3 9.34, 174.02 15.01, 173.34 17.43 C172.66 19.84, 167.9 19.77, 160.83 21.01 C153.75 22.25, 142.36 23.35, 130.88 24.87 C119.39 26.39, 105.02 29.43, 91.93 30.14 C78.84 30.84, 65.17 30.68, 52.34 29.12 C39.51 27.57, 23.42 23.31, 14.95 20.82 C6.48 18.32, 3.06 16.43, 1.53 14.16 C-0.01 11.9, 1.84 9.22, 5.72 7.22 C9.6 5.22, 15.34 2.99, 24.81 2.18 C34.29 1.38, 56.41 3.1, 62.56 2.39 C68.7 1.68, 60.82 -1.8, 61.68 -2.06" stroke="#343a40" stroke-width="2" fill="none"></path></g><g stroke-linecap="round" transform="translate(370.4353913885027 463.3904689245646) rotate(0 87.26403753315094 14.693953615847022)"><path d="M39.06 4.09 C48.57 2.74, 62.46 1.39, 75.63 0.86 C88.8 0.33, 104.97 -0.11, 118.09 0.9 C131.22 1.91, 145.59 5.02, 154.38 6.94 C163.16 8.86, 167.93 10.25, 170.79 12.42 C173.65 14.59, 174.42 18.04, 171.53 19.95 C168.65 21.87, 162.75 22.4, 153.46 23.91 C144.17 25.43, 128.56 28.19, 115.8 29.03 C103.04 29.88, 89.85 29.69, 76.9 29 C63.95 28.32, 49.02 26.49, 38.1 24.91 C27.18 23.33, 17.9 21.11, 11.38 19.53 C4.87 17.96, -0.74 17.21, -0.99 15.47 C-1.24 13.73, 0.34 11.2, 9.89 9.09 C19.43 6.97, 44.53 4.39, 56.29 2.77 C68.05 1.16, 79.58 -0.73, 80.44 -0.6 M95.91 -2.59 C108.61 -2.41, 125.05 -0.79, 136.11 0.73 C147.18 2.24, 156.14 3.94, 162.29 6.5 C168.45 9.05, 173.17 13.02, 173.04 16.05 C172.92 19.07, 167.48 23.24, 161.56 24.65 C155.64 26.05, 147.79 23.32, 137.51 24.49 C127.22 25.66, 113.31 30.91, 99.86 31.69 C86.4 32.46, 69.93 30.53, 56.78 29.14 C43.64 27.75, 29.63 25.38, 20.98 23.33 C12.33 21.28, 7.68 18.93, 4.89 16.86 C2.1 14.79, 0.98 12.46, 4.23 10.88 C7.49 9.31, 15.15 9.3, 24.44 7.41 C33.74 5.51, 47.6 1.13, 60.03 -0.48 C72.45 -2.09, 92.17 -2.36, 98.99 -2.26 C105.8 -2.16, 101.62 -0.23, 100.89 0.11" stroke="none" stroke-width="0" fill="#ced4da"></path><path d="M61.22 0.99 C73.01 0.15, 90.14 -0.21, 103.74 0.33 C117.34 0.87, 132.17 2.62, 142.82 4.23 C153.48 5.85, 162.14 7.93, 167.66 10.03 C173.18 12.13, 177.06 14.48, 175.95 16.83 C174.85 19.18, 168.02 22.54, 161.03 24.15 C154.03 25.75, 145.36 25.84, 133.98 26.44 C122.6 27.05, 106.7 27.47, 92.77 27.77 C78.84 28.08, 62.76 29.15, 50.4 28.28 C38.04 27.41, 27.11 24.3, 18.62 22.55 C10.13 20.81, 1.68 19.58, -0.54 17.82 C-2.76 16.05, 1.25 14.35, 5.3 11.95 C9.34 9.55, 9.25 5.32, 23.7 3.4 C38.16 1.48, 76.06 0.44, 92.03 0.41 C108 0.38, 120.07 3.14, 119.54 3.22 M24.17 6.06 C31.75 3.9, 48.14 0.26, 61.19 -1.15 C74.24 -2.57, 89.28 -3.05, 102.48 -2.44 C115.68 -1.84, 129.27 0.58, 140.39 2.48 C151.52 4.39, 163.86 6.69, 169.23 8.98 C174.6 11.26, 174.47 13.69, 172.62 16.2 C170.78 18.72, 165.08 21.73, 158.18 24.07 C151.28 26.4, 142.35 29.73, 131.23 30.22 C120.11 30.71, 105.55 27.31, 91.47 27.01 C77.39 26.7, 59.6 28.78, 46.75 28.38 C33.9 27.97, 22.45 26.86, 14.37 24.59 C6.3 22.32, 0.22 17.31, -1.72 14.75 C-3.65 12.19, -2.35 11.37, 2.77 9.24 C7.88 7.11, 25.21 2.46, 28.99 1.97 C32.77 1.48, 24.95 5.35, 25.45 6.33" stroke="#343a40" stroke-width="2" fill="none"></path></g><g stroke-linecap="round" transform="translate(370.4353913885027 446.687358868085) rotate(0 87.26403753315094 14.693953615847022)"><path d="M62.72 2.04 C74.47 0.74, 90.31 -1.02, 103.48 -1.01 C116.65 -0.99, 130.77 0.68, 141.76 2.13 C152.75 3.58, 164.07 5.29, 169.43 7.68 C174.8 10.07, 175.2 13.76, 173.94 16.47 C172.68 19.19, 169.27 22.31, 161.87 23.97 C154.47 25.62, 141.09 25.25, 129.54 26.39 C118 27.53, 105.75 30.35, 92.6 30.82 C79.45 31.29, 62.84 30.31, 50.64 29.2 C38.44 28.1, 27.37 25.92, 19.4 24.19 C11.44 22.46, 5.13 21.18, 2.84 18.82 C0.56 16.47, 1.69 12.84, 5.69 10.08 C9.69 7.31, 16.68 3.9, 26.84 2.22 C37 0.55, 58.72 0.49, 66.63 0.03 C74.55 -0.43, 73.69 -0.63, 74.3 -0.53 M149.48 4.34 C159.47 6.39, 167.71 11.24, 171.68 13.03 C175.64 14.82, 176.43 13.52, 173.25 15.09 C170.06 16.65, 160.96 19.79, 152.58 22.42 C144.2 25.05, 135.35 29.61, 122.98 30.85 C110.6 32.08, 91.83 29.96, 78.35 29.82 C64.88 29.68, 52.91 30.86, 42.13 30.02 C31.35 29.18, 20.89 26.88, 13.68 24.78 C6.47 22.67, 0.3 20.48, -1.12 17.37 C-2.53 14.25, -0.26 8.1, 5.21 6.09 C10.69 4.08, 20.57 6.24, 31.73 5.3 C42.89 4.36, 58.64 1.47, 72.15 0.43 C85.66 -0.61, 99.95 -1.57, 112.81 -0.95 C125.68 -0.32, 142.97 3.06, 149.33 4.15 C155.7 5.25, 152.23 5.13, 150.99 5.62" stroke="none" stroke-width="0" fill="#ced4da"></path><path d="M152.25 4.57 C161.61 5.67, 170.73 7.35, 173.66 9.67 C176.58 12, 173.51 15.98, 169.8 18.52 C166.1 21.05, 160.16 23.15, 151.42 24.88 C142.67 26.62, 129.95 28.53, 117.33 28.93 C104.7 29.34, 89.17 27.62, 75.67 27.3 C62.16 26.99, 47.1 28.36, 36.3 27.04 C25.51 25.73, 16.76 21.67, 10.9 19.42 C5.03 17.17, 1.02 15.81, 1.12 13.52 C1.22 11.24, 5.16 7.8, 11.49 5.72 C17.82 3.65, 28.27 2.25, 39.1 1.08 C49.94 -0.08, 63.13 -1.31, 76.5 -1.27 C89.87 -1.22, 105.06 0.07, 119.34 1.37 C133.61 2.67, 154.25 5.19, 162.14 6.53 C170.03 7.86, 168.17 9.17, 166.68 9.38 M150.54 5.09 C159.72 7.37, 166.08 11.96, 169.39 13.81 C172.71 15.66, 173.36 14.45, 170.43 16.18 C167.5 17.9, 160.87 22.48, 151.81 24.13 C142.74 25.79, 128.41 25.68, 116.03 26.1 C103.66 26.52, 90.3 26.65, 77.56 26.65 C64.82 26.64, 50.42 26.55, 39.57 26.09 C28.73 25.63, 18.67 25.59, 12.47 23.91 C6.28 22.22, 2.41 18.35, 2.43 15.98 C2.44 13.61, 6.45 11.86, 12.57 9.67 C18.68 7.49, 27.79 4.65, 39.12 2.87 C50.45 1.09, 67.46 -0.21, 80.57 -1.01 C93.67 -1.8, 105.42 -3.1, 117.75 -1.92 C130.08 -0.74, 148.45 4.39, 154.55 6.05 C160.64 7.72, 155.92 7.72, 154.31 8.07" stroke="#343a40" stroke-width="2" fill="none"></path></g><g stroke-linecap="round" transform="translate(370.4353913885027 429.9842488116055) rotate(0 87.26403753315094 14.693953615847022)"><path d="M48.04 1.89 C59.16 0.36, 77.73 -0.44, 91.69 -0.55 C105.65 -0.66, 120.18 0.23, 131.79 1.23 C143.4 2.24, 154.09 3.32, 161.35 5.47 C168.62 7.62, 174.57 11.79, 175.37 14.12 C176.16 16.45, 171.74 17.38, 166.12 19.45 C160.51 21.52, 152.16 25.12, 141.68 26.54 C131.2 27.96, 116.58 27.35, 103.24 27.99 C89.9 28.64, 74.67 30.94, 61.64 30.41 C48.61 29.89, 34.9 26.41, 25.07 24.85 C15.24 23.28, 6.78 22.93, 2.66 21.01 C-1.47 19.1, -2.12 15.69, 0.32 13.36 C2.77 11.04, 4.06 9.55, 17.34 7.04 C30.61 4.53, 63.66 -0.62, 79.98 -1.69 C96.29 -2.77, 115.06 -0.18, 115.24 0.57 M155.76 7.95 C164.88 9.27, 173.49 7.7, 175.35 10.09 C177.21 12.49, 171.25 19.71, 166.91 22.32 C162.57 24.94, 159.16 24.39, 149.29 25.77 C139.42 27.14, 121.26 29.72, 107.68 30.58 C94.09 31.44, 80.51 31.72, 67.77 30.91 C55.04 30.09, 41.39 27.28, 31.27 25.67 C21.15 24.06, 12.17 22.87, 7.04 21.22 C1.91 19.58, -0.95 18.03, 0.51 15.8 C1.97 13.57, 8.09 9.76, 15.78 7.84 C23.47 5.91, 34.83 5.78, 46.66 4.26 C58.49 2.74, 73.12 -1.24, 86.75 -1.28 C100.39 -1.32, 116.85 2.7, 128.47 4 C140.09 5.31, 152.22 6.41, 156.46 6.54 C160.7 6.67, 154.84 4.69, 153.92 4.78" stroke="none" stroke-width="0" fill="#ced4da"></path><path d="M116.68 2.01 C128.9 2.3, 141.02 2.64, 150.38 4.11 C159.74 5.57, 169.54 8.42, 172.85 10.79 C176.15 13.16, 173.4 15.75, 170.23 18.33 C167.07 20.9, 162.57 24.65, 153.84 26.24 C145.12 27.83, 130.82 27.41, 117.87 27.88 C104.92 28.35, 89.44 29.29, 76.16 29.06 C62.87 28.83, 49.44 27.65, 38.16 26.47 C26.89 25.3, 15.09 24.28, 8.51 22.02 C1.94 19.76, -1.77 14.98, -1.28 12.92 C-0.79 10.86, 4.95 11.5, 11.45 9.67 C17.95 7.85, 27.11 3.49, 37.74 1.98 C48.37 0.47, 60.96 1, 75.24 0.61 C89.52 0.22, 115.3 -0.61, 123.41 -0.35 C131.53 -0.09, 124.51 1.41, 123.92 2.17 M158.45 8.38 C167.66 9.89, 172.35 7.75, 174.21 9.95 C176.06 12.14, 173.94 18.54, 169.58 21.55 C165.22 24.55, 157.32 27.14, 148.06 27.98 C138.8 28.82, 126.19 26.23, 114.02 26.59 C101.85 26.95, 88.81 29.96, 75.02 30.14 C61.24 30.33, 42.64 28.86, 31.29 27.71 C19.93 26.57, 12.58 25.53, 6.89 23.29 C1.2 21.05, -3.81 17.18, -2.86 14.27 C-1.91 11.35, 5.44 7.99, 12.58 5.78 C19.71 3.56, 28.34 2.39, 39.94 0.96 C51.54 -0.46, 68.61 -2.71, 82.18 -2.76 C95.75 -2.81, 109.36 -0.54, 121.34 0.65 C133.32 1.85, 148.58 3.96, 154.07 4.4 C159.55 4.85, 154.89 2.51, 154.26 3.32" stroke="#343a40" stroke-width="2" fill="none"></path></g><g stroke-linecap="round" transform="translate(370.4353913885027 413.28113875512594) rotate(0 87.26403753315094 14.693953615847022)"><path d="M128.35 1.17 C140.3 2.11, 151.29 6.27, 159.11 8.4 C166.93 10.54, 174 12.1, 175.25 13.99 C176.51 15.87, 171.75 18, 166.65 19.7 C161.55 21.4, 155.09 22.63, 144.66 24.2 C134.23 25.76, 117.5 28.29, 104.05 29.11 C90.6 29.93, 76.61 29.66, 63.97 29.11 C51.33 28.57, 37.99 27.76, 28.22 25.84 C18.44 23.92, 9.88 19.74, 5.31 17.59 C0.75 15.44, -1.36 15.17, 0.82 12.94 C3 10.7, 10.23 6.21, 18.41 4.15 C26.6 2.1, 37.92 1.6, 49.92 0.59 C61.91 -0.42, 74.08 -2.26, 90.38 -1.91 C106.68 -1.56, 136.41 1.42, 147.71 2.7 C159 3.98, 159.24 5.3, 158.16 5.76 M135.86 1.81 C147.44 2.89, 157.58 8.39, 163.76 10.1 C169.94 11.82, 173.08 10.24, 172.94 12.09 C172.8 13.94, 169.1 18.39, 162.92 21.22 C156.74 24.04, 146.56 28.09, 135.85 29.06 C125.13 30.03, 111.58 27.2, 98.64 27.05 C85.71 26.9, 70.99 28.93, 58.23 28.15 C45.47 27.36, 31.01 24.36, 22.1 22.33 C13.19 20.3, 7.7 17.86, 4.79 15.96 C1.88 14.06, 1.54 12.3, 4.64 10.93 C7.74 9.56, 14.7 9.15, 23.38 7.75 C32.05 6.35, 44.28 3.48, 56.67 2.53 C69.06 1.57, 84.55 1.97, 97.72 2.01 C110.89 2.04, 129.14 2.83, 135.68 2.75 C142.22 2.67, 138.1 1.88, 136.98 1.54" stroke="none" stroke-width="0" fill="#ced4da"></path><path d="M157.84 5.11 C166.42 6.84, 171.57 10.81, 173.42 12.88 C175.27 14.96, 173.32 15.66, 168.95 17.56 C164.58 19.46, 156.82 22.48, 147.2 24.29 C137.59 26.11, 124.2 27.55, 111.25 28.44 C98.29 29.32, 82.69 30.07, 69.5 29.58 C56.31 29.1, 42.52 26.78, 32.11 25.51 C21.69 24.24, 12.33 23.85, 7 21.96 C1.68 20.08, -0.76 16.45, 0.16 14.21 C1.09 11.97, 5.58 10.3, 12.54 8.52 C19.51 6.75, 30.38 5.03, 41.96 3.58 C53.54 2.13, 68.02 0.26, 82.03 -0.17 C96.03 -0.6, 112.16 -0.79, 125.98 1 C139.8 2.78, 157.2 8.87, 164.94 10.53 C172.68 12.19, 173.31 11, 172.44 10.95 M146.85 3.64 C157.48 4.28, 164.67 5.06, 169.65 6.74 C174.62 8.42, 178.71 10.76, 176.7 13.73 C174.68 16.7, 165.37 22.2, 157.58 24.56 C149.79 26.93, 141.65 27.19, 129.98 27.92 C118.3 28.65, 101.05 28.79, 87.51 28.95 C73.96 29.11, 60.7 29.96, 48.72 28.88 C36.73 27.8, 24.04 24.06, 15.58 22.46 C7.13 20.86, 0.13 21.21, -2.01 19.28 C-4.15 17.36, -2.49 13.47, 2.74 10.9 C7.98 8.32, 18.66 5.88, 29.38 3.84 C40.11 1.8, 53.56 -0.53, 67.08 -1.35 C80.61 -2.17, 97.3 -1.73, 110.52 -1.08 C123.75 -0.43, 140.61 1.44, 146.45 2.53 C152.28 3.61, 146.78 5.29, 145.54 5.43" stroke="#343a40" stroke-width="2" fill="none"></path></g></svg>