<svg version="1.1" xmlns="http://www.w3.org/2000/svg" viewBox="0 0 1041.8342016492243 573.5033355460332" width="1041.8342016492243" height="573.5033355460332">
  <!-- svg-source:excalidraw -->
  
  <defs>
    <style>
      @font-face {
        font-family: "Virgil";
        src: url("https://excalidraw.com/Virgil.woff2");
      }
      @font-face {
        font-family: "Cascadia";
        src: url("https://excalidraw.com/Cascadia.woff2");
      }
    </style>
  </defs>
  <g stroke-linecap="round" transform="translate(378.11098480224587 221.61445513424945) rotate(0 65.5 45)"><path d="M0.02 2.62 L131.06 -3.73 L134.59 91.6 L-3.22 93.13" stroke="none" stroke-width="0" fill="#15aabf"></path><path d="M0.68 -0.09 C49.25 0.96, 105 5.58, 128.28 -1.63 M1.2 -1 C48.35 0.09, 94.47 1.32, 132.54 -0.43 M127.19 3.42 C127.66 36.95, 130.86 67.04, 127.94 87.25 M129.28 -1.5 C132 21.23, 133.09 41.28, 129.01 91.2 M127 89.18 C98.18 92.82, 60.52 87.41, 0.12 90.74 M130.94 89.74 C97.69 88.19, 61.76 90.36, -0.56 89.85 M1.79 90.94 C3.09 65, -3.62 44.6, -0.99 -2.23 M1 89.51 C-0.61 65.02, -1.24 43.86, -1.82 0.43" stroke="#1864ab" stroke-width="4" fill="none"></path></g><g transform="translate(383.11098480224587 253.11445513424945) rotate(0 60.5 13.5)"><text x="60.5" y="19" font-family="Virgil, Segoe UI Emoji" font-size="20px" fill="#343a40" text-anchor="middle" style="white-space: pre;" direction="ltr">Domain</text></g><g stroke-linecap="round"><g transform="translate(573.9791338980713 101.07265613414643) rotate(0 36.82491817393969 40.66027663660144)" fill-rule="evenodd"><path d="M-0.47 -0.53 L-0.67 78.42 L0.66 84.46 L18.81 88.21 L38.54 88.22 L61.33 85.91 L75.02 81.07 L74.03 -1.35 L66.03 -5.9 L35.46 -6.38 L8.88 -5.13 L2.07 -2.67 L0.58 0.9" stroke="none" stroke-width="0" fill="#fa5252" fill-rule="evenodd"></path><path d="M-0.03 -0.84 C0.13 11.24, -0.38 59.23, -0.22 72.68 C-0.06 86.12, 0.34 77.79, 0.93 79.83 C1.52 81.86, 0.46 83.7, 3.33 84.88 C6.21 86.06, 12.05 86.44, 18.2 86.89 C24.35 87.33, 32.95 87.66, 40.25 87.56 C47.55 87.46, 56.51 86.96, 61.98 86.28 C67.44 85.59, 70.89 84.51, 73.04 83.43 C75.19 82.35, 74.53 81.44, 74.88 79.8 C75.23 78.15, 75.33 86.06, 75.14 73.58 C74.94 61.1, 73.8 17.42, 73.72 4.93 C73.63 -7.56, 75.3 0.12, 74.63 -1.36 C73.96 -2.84, 72.38 -3.05, 69.68 -3.96 C66.98 -4.87, 64.19 -6.05, 58.43 -6.82 C52.66 -7.59, 41.8 -8.51, 35.11 -8.58 C28.41 -8.65, 23.74 -8.01, 18.25 -7.25 C12.75 -6.49, 5.19 -5.33, 2.14 -4 C-0.9 -2.67, 0.22 -0.07, -0.03 0.74 C-0.27 1.55, 0.86 0.87, 0.67 0.86 M-1.5 1.34 C-1.45 13.02, -1.77 57.47, -1.41 70.7 C-1.05 83.93, -0.14 78.72, 0.65 80.72 C1.44 82.71, 0.55 81.61, 3.33 82.68 C6.1 83.74, 11.47 85.91, 17.31 87.1 C23.15 88.3, 31.35 89.65, 38.38 89.86 C45.41 90.08, 53.82 89.49, 59.49 88.39 C65.16 87.29, 70.01 84.97, 72.38 83.28 C74.75 81.59, 73.63 79.96, 73.69 78.28 C73.75 76.6, 72.71 85.37, 72.74 73.21 C72.78 61.05, 73.72 17.3, 73.88 5.32 C74.05 -6.67, 74.35 3, 73.76 1.31 C73.17 -0.38, 73.06 -3.37, 70.35 -4.84 C67.65 -6.31, 63.41 -7.31, 57.52 -7.5 C51.63 -7.69, 41.93 -6.17, 35 -5.97 C28.08 -5.78, 21.13 -6.71, 15.96 -6.34 C10.8 -5.96, 6.89 -5.03, 4.01 -3.72 C1.13 -2.41, -0.58 0.64, -1.3 1.52 C-2.03 2.41, -0.36 1.94, -0.37 1.57" stroke="#c92a2a" stroke-width="4" fill="none"></path></g></g><g stroke-linecap="round" transform="translate(574.2422708093691 92.41170563033211) rotate(0 36.87328346275217 7.457344171239711)"><path d="M47.74 0.58 C55.11 1.05, 64.13 2.49, 68.45 3.96 C72.76 5.42, 74.9 8, 73.62 9.37 C72.34 10.74, 66.76 11.31, 60.79 12.19 C54.82 13.08, 45.67 14.53, 37.8 14.66 C29.94 14.79, 19.66 13.94, 13.6 12.99 C7.53 12.04, 2.86 10.5, 1.4 8.95 C-0.06 7.4, 1.18 5.2, 4.83 3.71 C8.48 2.22, 15.53 0.38, 23.31 0 C31.1 -0.37, 46.49 1.24, 51.53 1.46 C56.57 1.67, 53.76 1.2, 53.53 1.29 M37.77 -1.21 C45.71 -1.62, 56.14 0.11, 61.97 1.13 C67.8 2.16, 71.88 3.03, 72.75 4.92 C73.63 6.8, 71.28 10.94, 67.24 12.45 C63.19 13.96, 55.82 13.58, 48.49 13.98 C41.15 14.37, 30.67 15.05, 23.23 14.81 C15.79 14.57, 7.46 14.17, 3.85 12.55 C0.24 10.93, -0.04 6.78, 1.58 5.1 C3.2 3.41, 7.38 3.18, 13.56 2.42 C19.73 1.66, 34.92 0.87, 38.61 0.51 C42.3 0.15, 35.98 0.37, 35.69 0.26" stroke="none" stroke-width="0" fill="#fa5252"></path><path d="M40.69 0.61 C48.22 0.76, 58.98 1.07, 64.57 2.05 C70.17 3.04, 73.82 4.92, 74.28 6.51 C74.74 8.1, 72.04 10.16, 67.33 11.58 C62.62 13, 53.71 14.62, 46.01 15.01 C38.31 15.4, 28.18 14.65, 21.15 13.91 C14.12 13.17, 7.14 12.14, 3.83 10.56 C0.52 8.97, -0.97 6.08, 1.29 4.38 C3.55 2.68, 10.2 1.06, 17.42 0.34 C24.63 -0.38, 39.8 0.16, 44.59 0.04 C49.37 -0.07, 46.48 -0.36, 46.13 -0.36 M45.62 0.29 C53.28 0.96, 63.42 3.01, 68.26 4.07 C73.09 5.14, 75.43 5.29, 74.65 6.68 C73.88 8.08, 69.49 11.12, 63.6 12.43 C57.72 13.74, 47.63 14.41, 39.35 14.54 C31.07 14.67, 20.1 13.87, 13.95 13.22 C7.8 12.56, 4.05 12.23, 2.45 10.61 C0.85 8.99, 1.14 5.11, 4.34 3.5 C7.54 1.89, 14.67 1.34, 21.64 0.95 C28.62 0.55, 42.12 1.24, 46.18 1.15 C50.25 1.05, 46.14 0.26, 46.03 0.37" stroke="#c92a2a" stroke-width="4" fill="none"></path></g><g transform="translate(585.3334655761721 122.4478393302129) rotate(0 33 25.5)"><text x="0" y="17.5" font-family="Virgil, Segoe UI Emoji" font-size="20px" fill="#343a40" text-anchor="start" style="white-space: pre;" direction="ltr">Event </text><text x="0" y="43" font-family="Virgil, Segoe UI Emoji" font-size="20px" fill="#343a40" text-anchor="start" style="white-space: pre;" direction="ltr">Store</text></g><g stroke-linecap="round"><g transform="translate(513.1108703613286 257.47488532022953) rotate(0 27.6989364613097 3.219384295512583)"><path d="M0.64 2.15 C9.72 2.76, 43.26 1.89, 52.48 2.58 M-2.45 0.85 C7.69 1.93, 48.27 5.37, 57.85 5.59" stroke="#495057" stroke-width="4" fill="none"></path></g><g transform="translate(513.1108703613286 257.47488532022953) rotate(0 27.6989364613097 3.219384295512583)"><path d="M34.79 10.65 C36.18 13.71, 47.5 8.56, 60.25 3.59 M32.32 14.91 C41.39 11.67, 52.13 6.61, 55.95 7.3" stroke="#495057" stroke-width="4" fill="none"></path></g><g transform="translate(513.1108703613286 257.47488532022953) rotate(0 27.6989364613097 3.219384295512583)"><path d="M35.91 -7.96 C36.89 -0.61, 47.96 -1.48, 60.25 3.59 M33.43 -3.7 C41.96 0.22, 52.27 2.32, 55.95 7.3" stroke="#495057" stroke-width="4" fill="none"></path></g></g><g stroke-linecap="round" transform="translate(168.72221883138013 223.8366943106817) rotate(90 65.5 45)"><path d="M-3.22 3.13 L129.27 -1.29 L127.53 86.21 L3.23 88.07" stroke="none" stroke-width="0" fill="#82c91e"></path><path d="M-2.72 -1.63 C36.47 1.68, 67.33 0.39, 129 3.38 M1.54 -0.43 C36.7 -0.51, 69.74 -2.68, 132.71 -1.79 M127.94 -2.75 C127.68 35.47, 128.68 63.16, 128 90.05 M129.01 1.2 C131.53 32.37, 131.53 63.8, 130.59 91.7 M131.12 90.74 C78.95 91.03, 28.53 88.58, -0.51 92.15 M130.44 89.85 C96.57 92.08, 64.93 92.54, 0.47 91.74 M-0.99 87.77 C0.08 72.08, 1.24 51.38, -0.98 0.93 M-1.82 90.43 C0.15 69.17, 0.18 43.86, 1.8 0.8" stroke="#087f5b" stroke-width="4" fill="none"></path></g><g transform="translate(173.72221883138013 241.8366943106817) rotate(90 60.5 27)"><text x="60.5" y="19" font-family="Virgil, Segoe UI Emoji" font-size="20px" fill="#343a40" text-anchor="middle" style="white-space: pre;" direction="ltr">Command</text><text x="60.5" y="46" font-family="Virgil, Segoe UI Emoji" font-size="20px" fill="#343a40" text-anchor="middle" style="white-space: pre;" direction="ltr">Handler</text></g><g stroke-linecap="round" transform="translate(172.33326212565157 431.05893348711385) rotate(90 65.5 44.99999999999997)"><path d="M-1.73 -1.29 L127.53 -3.79 L134.23 88.07 L-1.36 87.98" stroke="none" stroke-width="0" fill="#ededed"></path><path d="M2.25 3.69 C48.24 3.47, 96.69 4.44, 129.72 2.31 M1.59 0.27 C42.71 -1.34, 88.1 -1.23, 132.4 -0.19 M127.85 2.17 C127.47 20.72, 126.62 48.37, 133.62 92.23 M130.53 -0.53 C128.74 31.46, 128.8 68.62, 132.72 90.98 M129.5 92.33 C96.8 90.35, 64.84 92.64, -1.82 89.05 M129.9 90.43 C84.04 90.69, 36.38 91.54, -1.49 88.39 M-1.38 92.39 C0.23 68.03, -0.53 42.97, -2.16 -0.33 M0.01 91.31 C1.67 53.62, 3.44 21.78, -1.61 1.56" stroke="#495057" stroke-width="4" fill="none"></path></g><g transform="translate(177.33326212565157 449.0589334871138) rotate(90 60.5 27)"><text x="60.5" y="19" font-family="Virgil, Segoe UI Emoji" font-size="20px" fill="#495057" text-anchor="middle" style="white-space: pre;" direction="ltr">Query</text><text x="60.5" y="46" font-family="Virgil, Segoe UI Emoji" font-size="20px" fill="#495057" text-anchor="middle" style="white-space: pre;" direction="ltr">Handler</text></g><g stroke-linecap="round"><g transform="translate(363.1050194612087 471.6463743931233) rotate(0 -33.30695942867243 -0.21030753102832023)"><path d="M2.58 -0.78 C-8.54 -0.98, -56.24 0.1, -67.87 0.38 M0.54 -3.67 C-10.7 -3.65, -57.82 2.05, -69.19 3.25" stroke="#495057" stroke-width="4" fill="none"></path></g><g transform="translate(363.1050194612087 471.6463743931233) rotate(0 -33.30695942867243 -0.21030753102832023)"><path d="M-43.44 -7.7 C-51.15 -2.76, -57.39 -0.37, -68 6.33 M-42.81 -12 C-47.89 -8.1, -55.68 -2.78, -69.82 1.72" stroke="#495057" stroke-width="4" fill="none"></path></g><g transform="translate(363.1050194612087 471.6463743931233) rotate(0 -33.30695942867243 -0.21030753102832023)"><path d="M-41.14 12.7 C-49.68 12.38, -56.52 9.48, -68 6.33 M-40.52 8.39 C-46.56 6.62, -54.98 6.26, -69.82 1.72" stroke="#495057" stroke-width="4" fill="none"></path></g></g><g stroke-linecap="round"><g transform="translate(281.99997965494777 270.60725123469484) rotate(0 47.28641985544317 1.018838772987607)"><path d="M-0.78 1.68 C13.91 1.73, 74.54 2.81, 89.71 2.88 M4 0.13 C19.48 0.64, 81.36 -0.4, 95.35 -0.84" stroke="#495057" stroke-width="4" fill="none"></path></g><g transform="translate(281.99997965494777 270.60725123469484) rotate(0 47.28641985544317 1.018838772987607)"><path d="M69.79 8.03 C80.53 5.03, 89.41 3.63, 98.43 -1.71 M65.49 11.74 C76.18 7.44, 88.39 1.28, 93.82 -2.22" stroke="#495057" stroke-width="4" fill="none"></path></g><g transform="translate(281.99997965494777 270.60725123469484) rotate(0 47.28641985544317 1.018838772987607)"><path d="M69.34 -12.49 C80.62 -8.17, 89.66 -2.27, 98.43 -1.71 M65.04 -8.78 C75.96 -5.29, 88.34 -3.66, 93.82 -2.22" stroke="#495057" stroke-width="4" fill="none"></path></g></g><g stroke-linecap="round" transform="translate(896.2223714192705 11.058984349744378) rotate(359.0684149780816 65.5 45)"><path d="M3.23 -1.93 L129.64 -2.02 L131.98 87.48 L3.78 92.58" stroke="none" stroke-width="0" fill="#ededed"></path><path d="M-2 3.38 C50.09 0.73, 103.93 1.51, 130.14 3.18 M1.71 -1.79 C42.44 2.31, 81.45 0.96, 129.62 -1.57 M128 0.05 C132.65 34.11, 132.9 59.78, 133.4 89.06 M130.59 1.7 C132.29 25.61, 129.59 49.32, 131.37 89.25 M130.49 92.15 C82.25 88.96, 39.67 88.79, -0.31 87.79 M131.47 91.74 C87.39 89.56, 46.08 90.68, -1.12 89.31 M-0.98 90.93 C-2.07 57.29, 3.43 21.59, 0.87 0.02 M1.8 90.8 C-1.64 58.67, -0.89 23.58, -1.74 -1.89" stroke="#495057" stroke-width="4" fill="none"></path></g><g transform="translate(901.2223714192705 42.55898434974438) rotate(359.0684149780816 60.5 13.5)"><text x="60.5" y="19" font-family="Virgil, Segoe UI Emoji" font-size="20px" fill="#495057" text-anchor="middle" style="white-space: pre;" direction="ltr">Consumer</text></g><g stroke-linecap="round" transform="translate(323.7221934000652 25.503386408663687) rotate(0 65.5 45)"><path d="M-1.36 -2.02 L131.98 -2.52 L134.78 92.58 L-2.69 90.42" stroke="none" stroke-width="0" fill="#ededed"></path><path d="M-1.28 2.31 C48.35 0.87, 93.47 0.96, 131.53 -0.97 M1.4 -0.19 C26.2 0.81, 52.28 0.77, 132.08 -1.08 M133.62 2.23 C132.52 15.27, 132.05 37.57, 129.95 89.06 M132.72 0.98 C129.64 18.07, 131 35.27, 132.16 89.31 M129.18 89.05 C94.64 90.28, 52.94 89.2, 0.86 91.17 M129.51 88.39 C85.16 91.78, 39.56 91.59, 1.2 89.89 M-2.16 89.67 C3.78 54.84, 1.31 26.99, 2.62 0.06 M-1.61 91.56 C-2.48 70.75, -3.35 50.9, 1.62 -0.96" stroke="#495057" stroke-width="4" fill="none"></path></g><g transform="translate(328.7221934000652 43.50338640866369) rotate(0 60.5 27)"><text x="60.5" y="19" font-family="Virgil, Segoe UI Emoji" font-size="20px" fill="#495057" text-anchor="middle" style="white-space: pre;" direction="ltr">Event </text><text x="60.5" y="46" font-family="Virgil, Segoe UI Emoji" font-size="20px" fill="#495057" text-anchor="middle" style="white-space: pre;" direction="ltr">Handler</text></g><g stroke-linecap="round" transform="translate(568.9445597330732 235.3089334871142) rotate(0 51.5 59)"><path d="M-1.26 1.89 L104.29 -1.34 L103.21 118.95 L1.92 118.68" stroke="none" stroke-width="0" fill="#fa5252"></path><path d="M1.54 -0.43 C29.2 -0.04, 54.73 -2.21, 104.71 -1.79 M-0.77 -0.69 C37.32 0.87, 75.68 -0.54, 102.25 0.01 M101.01 1.2 C103.19 42.61, 103.19 84.27, 102.59 119.7 M103.03 0.18 C103.21 46.11, 103.24 91.03, 102.87 118.54 M102.44 117.85 C75.69 119.08, 51.18 119.54, 0.47 119.74 M102.75 117.44 C79.41 118.25, 56.45 118.16, -0.24 118.23 M-1.82 118.43 C0.1 90.29, 0.13 58.09, 1.8 0.8 M-0.32 117.13 C-1.87 92.9, -1.4 65.85, -0.5 0.24" stroke="#c92a2a" stroke-width="2" fill="none"></path></g><g stroke-linecap="round" transform="translate(634.1945597330732 249.0589334871142) rotate(270 19.5 10.25)"><path d="M1.89 1.29 L37.66 0.21 L39.95 22.42 L0.68 18.54" stroke="none" stroke-width="0" fill="#c92a2a"></path><path d="M-0.43 1.59 C14.21 -0.78, 25.99 1.41, 37.21 1.4 M-0.69 -0.79 C11.87 -0.24, 21.8 -0.45, 39.01 0.66 M40.2 -0.47 C38.62 6.82, 37.15 14.17, 40.7 22.22 M39.18 -0.38 C39.48 6.82, 38.87 14.19, 39.54 20.04 M38.85 19.4 C28.66 20.97, 18.35 20.86, 1.74 19.01 M38.44 20.16 C31.05 20.35, 22.4 20.16, 0.23 19.96 M0.43 20.51 C1.14 14.55, -2.04 10.33, 0.8 -1.61 M-0.87 19.55 C0.9 12.27, -0.25 4.49, 0.24 -0.63" stroke="#c92a2a" stroke-width="2" fill="none"></path></g><g stroke-linecap="round" transform="translate(599.6945597330732 248.0589334871142) rotate(270 19.5 10.25)"><path d="M1.29 -1.34 L39.21 0.95 L40.92 21.18 L-1.96 20.64" stroke="none" stroke-width="0" fill="#c92a2a"></path><path d="M1.59 0.27 C12.38 -1.82, 27.43 -1.71, 40.4 -0.19 M-0.79 0.54 C9.93 -0.59, 20.19 0.28, 39.66 0.56 M38.53 -0.53 C38.33 5.62, 38.39 16.95, 40.72 21.48 M38.62 0.58 C38.66 5.1, 38.88 10.81, 38.54 20.26 M37.9 20.93 C25.43 21.37, 11.16 22.21, -1.49 18.89 M38.66 21.1 C28.56 20.78, 17.98 20.51, -0.54 20.42 M0.01 21.81 C0.22 10.77, 1.98 5.58, -1.61 1.56 M-0.95 21.31 C-0.42 14.9, -0.44 10.22, -0.63 0.95" stroke="#c92a2a" stroke-width="2" fill="none"></path></g><g stroke-linecap="round" transform="translate(566.6945597330732 249.0589334871142) rotate(270 19.5 10.25)"><path d="M-1.34 0.21 L39.95 1.92 L39.68 18.54 L0.14 20.15" stroke="none" stroke-width="0" fill="#c92a2a"></path><path d="M0.27 -0.48 C12.8 1.4, 27.62 1.09, 38.81 -0.63 M0.54 -0.54 C7.85 -0.44, 17.44 0.96, 39.56 0.72 M38.47 -0.47 C37.13 3.7, 40.83 9.94, 39.98 19.51 M39.58 -0.34 C39.01 6.08, 39.58 11.96, 38.76 21.13 M39.43 21.08 C29.29 20.76, 19.54 18.8, -1.61 19.83 M39.6 20.45 C28.77 20.12, 17.77 19.83, -0.08 21.33 M1.31 20.53 C-1.91 18.02, 0.76 10.33, 1.56 -0.87 M0.81 20.02 C-0.16 14.5, 0.42 8.89, 0.95 0.65" stroke="#c92a2a" stroke-width="2" fill="none"></path></g><g stroke-linecap="round"><g transform="translate(617.7964896137387 234.031121800917) rotate(0 -1.0299539311694161 -19.495058859084907)"><path d="M0.37 -0.68 C-0.11 -6.81, -2.89 -28.88, -3.51 -34.6 M-2.87 -3.51 C-2.47 -10.59, 0.62 -32.32, 1.45 -38.31" stroke="#495057" stroke-width="4" fill="none"></path></g><g transform="translate(617.7964896137387 234.031121800917) rotate(0 -1.0299539311694161 -19.495058859084907)"><path d="M4.43 -23.75 C7.12 -28.56, 5.47 -30.64, 0.28 -41.15 M4.33 -21.82 C3.33 -24.34, 5.03 -27.52, 2.78 -40.16" stroke="#495057" stroke-width="4" fill="none"></path></g><g transform="translate(617.7964896137387 234.031121800917) rotate(0 -1.0299539311694161 -19.495058859084907)"><path d="M-8.1 -25.49 C-1.9 -29.85, -0.06 -31.44, 0.28 -41.15 M-8.21 -23.56 C-6.34 -25.82, -1.74 -28.59, 2.78 -40.16" stroke="#495057" stroke-width="4" fill="none"></path></g></g><g stroke-linecap="round"><g transform="translate(674.1667480468755 259.05666569493354) rotate(0 36.44517649682018 -0.34188153308568303)"><path d="M-0.68 -2.67 C11.21 -3, 61.26 -2.17, 73.57 -1.63 M4.15 2.06 C15.69 1.95, 61.25 0.39, 72.63 0.64" stroke="#495057" stroke-width="4" fill="none"></path></g><g transform="translate(674.1667480468755 259.05666569493354) rotate(0 36.44517649682018 -0.34188153308568303)"><path d="M40.73 14.6 C51.59 10.12, 65.45 2.06, 69.56 -2.11 M42.82 9.68 C50.66 10.46, 57.97 8.25, 70.64 1.84" stroke="#495057" stroke-width="4" fill="none"></path></g><g transform="translate(674.1667480468755 259.05666569493354) rotate(0 36.44517649682018 -0.34188153308568303)"><path d="M40.53 -5.92 C51.52 -2.62, 65.45 -2.89, 69.56 -2.11 M42.61 -10.84 C50.73 -5.52, 58.08 -3.18, 70.64 1.84" stroke="#495057" stroke-width="4" fill="none"></path></g></g><g stroke-linecap="round"><g transform="translate(887.3136771485551 58.25961281195083) rotate(0 -215.59087941545226 2.5465549655626347)"><path d="M-2.67 2.39 C-74.77 3.27, -361.04 4.69, -432.26 4.58 M1.08 1.22 C-70.22 1.38, -355.05 0.11, -427.22 0.63" stroke="#495057" stroke-width="4" fill="none"></path></g><g transform="translate(887.3136771485551 58.25961281195083) rotate(0 -215.59087941545226 2.5465549655626347)"><path d="M-395.62 -13.23 C-405.12 -7.34, -418.01 -6.81, -429.98 -2.51 M-400.54 -9.62 C-407.82 -5.38, -417.68 -4.84, -426.03 0.16" stroke="#495057" stroke-width="4" fill="none"></path></g><g transform="translate(887.3136771485551 58.25961281195083) rotate(0 -215.59087941545226 2.5465549655626347)"><path d="M-395.61 7.3 C-405.01 6.75, -417.91 0.86, -429.98 -2.51 M-400.52 10.9 C-407.59 7.88, -417.46 1.15, -426.03 0.16" stroke="#495057" stroke-width="4" fill="none"></path></g></g><g stroke-linecap="round"><g transform="translate(907.5555521647136 269.947839330213) rotate(0 31.658952589891783 0.4541205825059933)"><path d="M2.39 -2.51 C13.02 -2.11, 53.43 -0.33, 63.07 -0.27 M0.25 2.3 C10.74 3.4, 52.28 3.64, 61.9 3.22" stroke="#000000" stroke-width="1" fill="none"></path></g></g><g stroke-linecap="round"><g transform="translate(970.0812919850368 239.93903120267044) rotate(0 -2.4646210787924474 -67.51484616131215)"><path d="M-2.51 1.96 C-2.71 -21.27, -3.33 -113.66, -3.88 -136.99 M1.33 0.56 C0.97 -21.05, -6.02 -111.09, -6.26 -133.84" stroke="#495057" stroke-width="4" fill="none"></path></g><g transform="translate(970.0812919850368 239.93903120267044) rotate(0 -2.4646210787924474 -67.51484616131215)"><path d="M8.14 -106.55 C1.23 -115.11, -2.64 -120.86, -4.09 -135.99 M6.65 -105.06 C4.71 -114.08, 1.99 -118.48, -6.78 -134.31" stroke="#495057" stroke-width="4" fill="none"></path></g><g transform="translate(970.0812919850368 239.93903120267044) rotate(0 -2.4646210787924474 -67.51484616131215)"><path d="M-12.36 -105.57 C-15.09 -113.96, -14.76 -119.91, -4.09 -135.99 M-13.85 -104.08 C-11.39 -113.31, -9.72 -117.92, -6.78 -134.31" stroke="#495057" stroke-width="4" fill="none"></path></g></g><g stroke-linecap="round" transform="translate(900.1112263997393 422.17002764401497) rotate(359.0684149780816 65.5 44.99999999999997)"><path d="M0.28 -0.7 L128.53 3.31 L134.51 92.14 L-2.4 92.67" stroke="none" stroke-width="0" fill="#ededed"></path><path d="M-0.38 -1.26 C47.43 -4.59, 97.84 0.33, 128.85 -3.44 M1.11 1.44 C27.49 -0.52, 58.5 -2.24, 130.53 -2 M132.97 -1.98 C132.65 25.9, 131.03 52.65, 129.63 89.87 M130.52 1.26 C131.41 25.69, 130.87 52.12, 131.58 90.9 M127.77 88.66 C87.62 85.82, 44.84 90.45, -0.21 92.01 M130.84 91.67 C93.07 89.02, 58.8 89.89, 0.03 88.13 M3.13 88.27 C-2.01 51.45, -4.51 23.07, -1.93 -1.36 M1.89 91.29 C-1.78 67.75, 0.51 47, 0.68 -1.96" stroke="#495057" stroke-width="4" fill="none"></path></g><g transform="translate(905.1112263997393 453.6700276440149) rotate(359.0684149780816 60.5 13.5)"><text x="60.5" y="19" font-family="Virgil, Segoe UI Emoji" font-size="20px" fill="#495057" text-anchor="middle" style="white-space: pre;" direction="ltr">Consumer</text></g><g stroke-linecap="round"><g transform="translate(969.2223205566406 261.3845542470055) rotate(0 3.7760826455603365 75.82230193880082)"><path d="M-0.88 -2.15 C-0.7 23.12, 1.84 125.66, 3.08 151.36 M3.83 2.86 C4.74 28.44, 8.15 128.54, 8.43 153.79" stroke="#495057" stroke-width="4" fill="none"></path></g><g transform="translate(969.2223205566406 261.3845542470055) rotate(0 3.7760826455603365 75.82230193880082)"><path d="M-5.57 123.1 C-1.66 138.43, 3.39 143.15, 5.44 153.84 M-4.5 127.06 C1.33 135.38, 5.33 144.12, 8.03 155.49" stroke="#495057" stroke-width="4" fill="none"></path></g><g transform="translate(969.2223205566406 261.3845542470055) rotate(0 3.7760826455603365 75.82230193880082)"><path d="M14.94 122.6 C11.26 137.99, 8.72 142.89, 5.44 153.84 M16.02 126.55 C14.35 135.36, 10.85 144.28, 8.03 155.49" stroke="#495057" stroke-width="4" fill="none"></path></g></g><g stroke-linecap="round"><g transform="translate(904.0487368759116 467.697541543675) rotate(0 -44.86340571675942 2.2604135355485937)"><path d="M-2.15 -1.93 C-17.37 -0.71, -76.82 5.71, -91.61 6.45 M1.89 3.2 C-12.45 3.68, -70.5 2.07, -86.41 2.26" stroke="#495057" stroke-width="4" fill="none"></path></g><g transform="translate(904.0487368759116 467.697541543675) rotate(0 -44.86340571675942 2.2604135355485937)"><path d="M-60.88 -10.89 C-64.24 -7.42, -78.06 -5.36, -86.36 4.88 M-56.93 -8.21 C-68.57 -5.22, -80.09 -1.6, -84.7 3.98" stroke="#495057" stroke-width="4" fill="none"></path></g><g transform="translate(904.0487368759116 467.697541543675) rotate(0 -44.86340571675942 2.2604135355485937)"><path d="M-61.06 9.63 C-64.24 7.14, -78.01 3.24, -86.36 4.88 M-57.11 12.31 C-68.98 8.01, -80.44 4.33, -84.7 3.98" stroke="#495057" stroke-width="4" fill="none"></path></g></g><g stroke-linecap="round" transform="translate(673.9999287923176 448.28107093828567) rotate(0 68.5 32)"><path d="M3.51 2.14 L134.6 2.67 L138.5 61.26 L-3.39 60.4" stroke="none" stroke-width="0" fill="#ededed"></path><path d="M-3.15 2.17 C34.63 -1.56, 70.57 1.93, 139.62 2.23 M-0.47 -0.53 C50.46 -3.64, 101.45 0.06, 138.72 0.98 M135.5 2.33 C135.66 15.91, 136.52 34.23, 135.18 63.05 M135.9 0.43 C137.22 24.12, 137.11 48.2, 135.51 62.39 M135.62 66.39 C100.29 64.48, 63.03 63.4, -2.16 63.67 M137.01 65.31 C84.5 62.73, 33.72 65.39, -1.61 65.56 M-3.79 67.23 C-1.52 46.21, -1.61 32.11, -2.52 3.78 M0.95 65.92 C1.54 38.7, 1 16.98, -1.23 1.65" stroke="#495057" stroke-width="4" fill="none"></path></g><g transform="translate(678.9999287923176 453.28107093828567) rotate(0 63.5 27)"><text x="63.5" y="19" font-family="Virgil, Segoe UI Emoji" font-size="20px" fill="#495057" text-anchor="middle" style="white-space: pre;" direction="ltr">Event </text><text x="63.5" y="46" font-family="Virgil, Segoe UI Emoji" font-size="20px" fill="#495057" text-anchor="middle" style="white-space: pre;" direction="ltr">Handler</text></g><g stroke-linecap="round"><g transform="translate(665.7269467059359 464.63278705467246) rotate(0 -72.56310372874617 1.144167609231431)"><path d="M1.52 -1.51 C-22.6 -1.36, -122.36 -2.04, -146.64 -1.36 M-1.1 3.85 C-24.2 4.48, -117.4 2.1, -141.55 1.13" stroke="#495057" stroke-width="4" fill="none"></path></g><g transform="translate(665.7269467059359 464.63278705467246) rotate(0 -72.56310372874617 1.144167609231431)"><path d="M-115.21 -11.69 C-122.79 -5.73, -123.76 -1.38, -138.68 -2.85 M-113.53 -10.25 C-123.76 -3.32, -131.89 -0.66, -142.54 1.19" stroke="#495057" stroke-width="4" fill="none"></path></g><g transform="translate(665.7269467059359 464.63278705467246) rotate(0 -72.56310372874617 1.144167609231431)"><path d="M-115.84 8.82 C-122.95 10.04, -123.78 9.64, -138.68 -2.85 M-114.16 10.26 C-124.07 9.81, -131.97 5.09, -142.54 1.19" stroke="#495057" stroke-width="4" fill="none"></path></g></g><g stroke-linecap="round"><g transform="translate(313.94461059570335 66.33675788896954) rotate(0 -39.05682940275727 -0.11972839445614625)"><path d="M-1.51 -2.41 C-14.64 -3.03, -68.4 -2.48, -80.99 -2.19 M2.87 2.45 C-9.18 2.18, -62.27 2.76, -75.72 1.46" stroke="#495057" stroke-width="4" fill="none"></path></g></g><g stroke-linecap="round"><g transform="translate(234.22229512532567 68.83669431068176) rotate(0 -0.4770659617558408 62.36845921762287)"><path d="M-2.41 -2.1 C-2.66 19.29, -0.63 105.32, 0.03 126.83 M1.48 2.93 C0.72 23.67, -2.04 102.88, -2.19 122.82" stroke="#495057" stroke-width="4" fill="none"></path></g><g transform="translate(234.22229512532567 68.83669431068176) rotate(0 -0.4770659617558408 62.36845921762287)"><path d="M-14.79 94.44 C-6.08 106.86, -2.42 110.72, 0.21 121.88 M-12.2 96.1 C-7.58 103.35, -7.66 110.2, -1.82 122.07" stroke="#495057" stroke-width="4" fill="none"></path></g><g transform="translate(234.22229512532567 68.83669431068176) rotate(0 -0.4770659617558408 62.36845921762287)"><path d="M5.73 94.92 C7.18 106.81, 3.56 110.51, 0.21 121.88 M8.31 96.58 C7.32 103.29, 1.63 110.01, -1.82 122.07" stroke="#495057" stroke-width="4" fill="none"></path></g></g><g stroke-linecap="round" transform="translate(-185.5 292.00333554603327) rotate(90 233.5 38)"><path d="M-2.74 -3.39 L463.4 -2.56 L468.26 76.94 L-3.58 79.88" stroke="none" stroke-width="0" fill="#ededed"></path><path d="M0.02 1.19 C116.01 4.49, 228.18 4.27, 466.57 -0.48 M0.77 0.78 C129.55 0.42, 258.24 1.04, 466.66 0.53 M469.15 -1.82 C466 22.71, 465.82 40.07, 464.79 76.86 M468.74 -1.49 C466.07 24.34, 467.18 48.92, 466.31 77.2 M467.42 75.02 C329.23 76.48, 190.09 75.36, 0.01 77.19 M467.36 75.27 C326.87 79.42, 185.02 79.03, -0.86 76.74 M0.98 73.48 C4.3 59.44, -2.17 38.14, 1.9 3.85 M-0.35 74.77 C3.14 52.39, 2.56 24.07, 1.33 0.75" stroke="#495057" stroke-width="4" fill="none"></path></g><g transform="translate(-180.5 316.50333554603327) rotate(90 228.5 13.5)"><text x="228.5" y="19" font-family="Virgil, Segoe UI Emoji" font-size="20px" fill="#495057" text-anchor="middle" style="white-space: pre;" direction="ltr">Interface</text></g><g stroke-linecap="round"><g transform="translate(91.66664123535162 269.053876637268) rotate(0 50.031327112205446 -1.1390374690399483)"><path d="M1.83 1.56 C18.96 0.91, 84.26 -3.29, 100.68 -3.84 M-0.61 -0.06 C16.51 -0.48, 82.85 -1.9, 99.53 -1.72" stroke="#495057" stroke-width="4" fill="none"></path></g><g transform="translate(91.66664123535162 269.053876637268) rotate(0 50.031327112205446 -1.1390374690399483)"><path d="M73.64 11.63 C73.76 8.43, 83.13 2.62, 98.59 -5.71 M72.4 7.77 C79.16 5.71, 86.21 3.58, 98.84 -1.78" stroke="#495057" stroke-width="4" fill="none"></path></g><g transform="translate(91.66664123535162 269.053876637268) rotate(0 50.031327112205446 -1.1390374690399483)"><path d="M73.49 -8.89 C73.65 -7.48, 83.05 -8.67, 98.59 -5.71 M72.25 -12.75 C79.39 -9.07, 86.49 -5.47, 98.84 -1.78" stroke="#495057" stroke-width="4" fill="none"></path></g></g><g stroke-linecap="round"><g transform="translate(178.6665954589846 473.83671974199683) rotate(0 -48.11377963908018 -1.4571870007738426)"><path d="M1.56 2.01 C-14.74 1.57, -81.58 0.05, -97.79 -0.82 M-1.04 0.63 C-16.53 -0.78, -76.77 -4.73, -92.9 -4.92" stroke="#495057" stroke-width="4" fill="none"></path></g><g transform="translate(178.6665954589846 473.83671974199683) rotate(0 -48.11377963908018 -1.4571870007738426)"><path d="M-61.43 -17.96 C-70.39 -11.88, -82.46 -9.15, -96.89 -5.74 M-65.28 -13.92 C-74.79 -10.96, -85.01 -7.41, -92.96 -5.18" stroke="#495057" stroke-width="4" fill="none"></path></g><g transform="translate(178.6665954589846 473.83671974199683) rotate(0 -48.11377963908018 -1.4571870007738426)"><path d="M-62.29 2.54 C-71.27 2.44, -83.07 -1.01, -96.89 -5.74 M-66.15 6.58 C-75.67 1.64, -85.56 -2.71, -92.96 -5.18" stroke="#495057" stroke-width="4" fill="none"></path></g></g><g stroke-linecap="round"><g transform="translate(839.4010201954652 140.87685762641505) rotate(269.83845249062614 39.459527500622926 125.34934892997427)" fill-rule="evenodd"><path d="M0.31 -1.55 L79.22 1.5 L79.74 227.77 L37.21 252.35 L-0.24 226.52 L1.74 1.25" stroke="none" stroke-width="0" fill="#ededed" fill-rule="evenodd"></path><path d="M-1.99 1.2 C29.15 -1.19, 58.77 -2.74, 80.63 1.48 M0.03 0.18 C30.89 0.9, 62.19 0.2, 80.91 0.32 M80.55 -0.35 C79.45 57.69, 80.72 115.64, 80.75 227.46 M80.82 -0.7 C79.02 51.34, 79.11 102.32, 80.13 226.17 M78.52 226.4 C70.15 233.79, 60 236.79, 40.76 251.86 M80.02 225.1 C70.51 232.11, 61.89 236.47, 38.46 251.3 M37.62 251.27 C30.74 246.95, 21.53 236.79, 1.41 224.23 M39.5 250.46 C30.43 245.46, 20.1 237.93, 0.37 223.95 M2.94 225.62 C0.51 148.54, -0.61 74.21, 1.53 -0.22 M1.02 225.25 C1.62 152.78, 0 79.58, 0.18 -0.62 M0 0 C0 0, 0 0, 0 0 M0 0 C0 0, 0 0, 0 0" stroke="#495057" stroke-width="4" fill="none"></path></g></g><g stroke-linecap="round" transform="translate(763.6664147504512 242.13048215651986) rotate(0 23.46322866088792 15.595319648853717)"><path d="M0.47 -1.79 L48.87 1.2 L47.06 29.37 L-0.68 29.51" stroke="none" stroke-width="0" fill="#ededed"></path><path d="M1.2 -0.47 C16.16 0, 31.38 0.06, 48.63 1.72 M0.18 -0.38 C16.97 -0.36, 32.75 -0.14, 47.47 -0.46 M46.77 -1.1 C47.55 9.2, 48.02 17.7, 48.66 29.71 M46.37 -0.34 C47.42 6.79, 47.32 13.43, 47.16 30.65 M47.36 31.2 C34.54 30.79, 17.67 32.56, 0.8 29.58 M46.06 30.24 C29.99 30.56, 11.09 30.54, 0.24 30.56 M0.21 32.14 C1.72 19.56, -2.16 6.72, -0.35 -1.23 M-0.6 31.86 C0.1 18.57, -1.12 6.42, -0.64 0.32" stroke="#495057" stroke-width="4" fill="none"></path></g><g stroke-linecap="round"><g transform="translate(788.3707229511742 257.41714344301107) rotate(0 -0.4661511637189051 -7.302610668029416)" fill-rule="evenodd"><path d="M-1.79 1.94 L23.46 -14.61 L-25.25 -15.23 L-1.68 1.79" stroke="none" stroke-width="0" fill="#ededed" fill-rule="evenodd"></path><path d="M-0.47 -0.53 C7.95 -7.61, 16.29 -9.39, 23.98 -13.75 M-0.38 0.58 C5.23 -3.77, 11.02 -6.89, 21.8 -14.97 M21.15 -14.3 C6.26 -13.81, -10.43 -12.9, -24.91 -16.17 M21.91 -14.14 C10.04 -14.44, -2.33 -14.66, -23.96 -14.64 M-23.41 -13.25 C-14.54 -10.89, -3.8 -2.64, -1.61 1.56 M-24.37 -13.75 C-17.94 -10.95, -11.95 -6.63, -0.63 0.95 M0 0 C0 0, 0 0, 0 0 M0 0 C0 0, 0 0, 0 0" stroke="#495057" stroke-width="4" fill="none"></path></g></g><g stroke-linecap="round"><g transform="translate(863.0862388052733 260.09442344225835) rotate(0 29.71095373022979 -1.0247019523504264)"><path d="M-0.53 -0.47 C9.82 -0.49, 25.34 1.42, 59.95 -2.08" stroke="#495057" stroke-width="4.5" fill="none" stroke-dasharray="1.5 10"></path></g></g><g stroke-linecap="round" transform="translate(819.7603354602813 242.40059734452655) rotate(0 23.46322866088792 15.595319648853717)"><path d="M1.2 0.13 L45.1 -0.68 L45.25 32.98 L-0.25 31.64" stroke="none" stroke-width="0" fill="#ededed"></path><path d="M-0.47 -2 C16.48 1.83, 35.49 1.11, 45.94 0.06 M-0.34 -0.03 C14.82 0.27, 29.43 -0.51, 47.56 -0.28 M47.51 0.9 C47.23 10.86, 45.27 16.62, 46.25 30.69 M46.87 0.5 C46.58 7.85, 46.28 15.15, 47.76 30.28 M46.96 29.32 C33.63 32.3, 15.13 33.06, -0.87 30.55 M46.44 30.85 C36.42 31.81, 26.29 32.52, 0.65 30.52 M0.68 29.23 C-0.01 21.15, -1.38 13.47, 1.76 1.07 M-0.68 30.34 C-1.11 23.07, 0.11 16.45, -0.9 0.97" stroke="#495057" stroke-width="4" fill="none"></path></g><g stroke-linecap="round"><g transform="translate(844.502195268019 256.5959077300145) rotate(0 -1.0671859726228377 -7.782284548647482)" fill-rule="evenodd"><path d="M0.13 -1.82 L21.58 -16.41 L-21.64 -14.81 L0.45 -0.19" stroke="none" stroke-width="0" fill="#ededed" fill-rule="evenodd"></path><path d="M-2 -0.41 C7.9 -2.3, 13.33 -9.08, 22.32 -14.37 M-0.03 -0.13 C6.29 -4.25, 11.36 -7.03, 21.98 -14.81 M23.15 -14.26 C12.81 -16.04, -1.72 -15.19, -23.92 -15.67 M22.76 -14.98 C10.36 -15.25, -2.09 -13.83, -24.33 -14.34 M-25.29 -12.76 C-15.49 -11.8, -7.69 -6.68, -0.64 -1.74 M-23.76 -15.06 C-18.25 -12.08, -12.74 -7.82, -0.67 0.11 M0 0 C0 0, 0 0, 0 0 M0 0 C0 0, 0 0, 0 0" stroke="#495057" stroke-width="4" fill="none"></path></g></g><g stroke-linecap="round" transform="translate(920.4232621915473 241.32013659249037) rotate(0 23.46322866088792 15.595319648853717)"><path d="M-1.82 -0.68 L45.25 1.79 L46.67 31.64 L-0.19 32.78" stroke="none" stroke-width="0" fill="#ededed"></path><path d="M-0.41 1.7 C14.56 1.45, 24.69 0.53, 47.3 -0.75 M-0.13 0.54 C16.35 -0.22, 34.25 -0.27, 46.85 -0.55 M47.4 1.74 C45.53 8.41, 46.35 19.56, 45.81 30.5 M46.68 0.23 C46.37 11.14, 47.74 21.53, 47.14 31.19 M48.72 31.99 C28.17 32.32, 11.76 30.11, -1.74 29.3 M46.42 31.44 C28.43 31.98, 11.83 30.36, 0.11 31.67 M0.14 30.84 C-1.34 20.49, 1.65 7.54, -1.2 1.33 M-0.9 30.55 C0.53 20.9, -0.68 11.11, 0.6 0.06" stroke="#495057" stroke-width="4" fill="none"></path></g><g stroke-linecap="round"><g transform="translate(946.1125393681036 254.84338527485005) rotate(0 -0.05704072564026319 -7.251483089319123)" fill-rule="evenodd"><path d="M-0.68 -1.68 L24.04 -14.99 L-22.97 -14.74 L1.59 -0.58" stroke="none" stroke-width="0" fill="#ededed" fill-rule="evenodd"></path><path d="M1.7 1.72 C7.29 -5.02, 12.51 -7.73, 21.51 -13.57 M0.54 -0.46 C5.68 -3.26, 11.55 -7.88, 21.71 -14.52 M24 -16.22 C5.61 -15.24, -8.31 -15.62, -24.11 -13.36 M22.49 -15.28 C8.72 -13.96, -5.58 -14.52, -23.42 -13.9 M-22.62 -16.16 C-14.93 -11.24, -10.07 -7.72, -1.89 1.62 M-23.18 -15.18 C-16.63 -10.12, -12.35 -7, 0.48 0.96 M0 0 C0 0, 0 0, 0 0 M0 0 C0 0, 0 0, 0 0" stroke="#495057" stroke-width="4" fill="none"></path></g></g><g transform="translate(820.2873461730337 277.2046186473944) rotate(0 51.5 12.5)"><text x="51.5" y="18" font-family="Virgil, Segoe UI Emoji" font-size="20px" fill="#495057" text-anchor="middle" style="white-space: pre;" direction="ltr">Event Bus</text></g><g stroke-linecap="round" transform="translate(368.48847690448156 496.8262476564721) rotate(0 81.23749477516162 13.679174306372886)"><path d="M20.99 5.09 C28.01 3.98, 38.69 3.65, 50.54 2.83 C62.4 2.02, 79.64 0.41, 92.13 0.23 C104.62 0.04, 115.59 0.26, 125.48 1.73 C135.36 3.21, 145.32 7.03, 151.44 9.09 C157.57 11.16, 161.96 12.02, 162.22 14.11 C162.49 16.2, 158.92 19.55, 153.03 21.61 C147.14 23.67, 136.98 25.3, 126.89 26.47 C116.8 27.64, 105.11 28.7, 92.47 28.61 C79.83 28.53, 62.98 27.19, 51.06 25.98 C39.13 24.76, 28.82 22.5, 20.92 21.31 C13.02 20.12, 7.01 20.6, 3.65 18.83 C0.28 17.07, -3.76 13.2, 0.74 10.71 C5.24 8.22, 24.05 5.12, 30.65 3.9 C37.25 2.68, 39.5 3.47, 40.33 3.39 M70.59 -1.41 C82.42 -2.42, 95.08 -1.08, 106.59 0.12 C118.09 1.33, 130.49 4.51, 139.62 5.84 C148.75 7.16, 157.45 6.21, 161.38 8.09 C165.3 9.97, 166.57 15.16, 163.17 17.11 C159.76 19.07, 149.07 18.4, 140.94 19.79 C132.81 21.18, 125.2 24.64, 114.38 25.45 C103.56 26.26, 88.65 25.08, 76.01 24.65 C63.38 24.21, 49.07 23.13, 38.59 22.85 C28.1 22.56, 19.22 23.98, 13.1 22.92 C6.99 21.87, 2.86 18.97, 1.89 16.53 C0.93 14.09, 2.26 10.89, 7.29 8.31 C12.33 5.72, 21.31 2.13, 32.11 1.03 C42.92 -0.07, 66.16 1.8, 72.13 1.71 C78.11 1.63, 68.45 0.8, 67.97 0.5" stroke="none" stroke-width="0" fill="#ced4da"></path><path d="M41.95 2.8 C51.78 1.6, 67 -0.03, 79.66 -0.06 C92.33 -0.1, 106.78 1.68, 117.95 2.58 C129.11 3.47, 139.16 3.85, 146.67 5.31 C154.19 6.77, 161.25 9.32, 163.03 11.32 C164.81 13.31, 161.82 15.1, 157.35 17.29 C152.88 19.47, 145.35 22.72, 136.2 24.4 C127.05 26.09, 114.4 27.21, 102.44 27.4 C90.47 27.58, 77.07 26.19, 64.4 25.51 C51.73 24.84, 36.3 24.67, 26.42 23.34 C16.54 22.02, 9.54 19.22, 5.1 17.55 C0.67 15.89, -1.64 15.13, -0.2 13.37 C1.25 11.62, -2.52 9.14, 13.77 7.04 C30.07 4.93, 76.03 1.05, 97.58 0.76 C119.14 0.47, 143.02 5.47, 143.1 5.31 M98.75 -2.48 C111.13 -2.37, 127.05 2.2, 136.27 4.42 C145.48 6.64, 149.95 9.25, 154.04 10.86 C158.13 12.46, 162.04 12.78, 160.8 14.02 C159.57 15.27, 152.89 16.63, 146.62 18.33 C140.35 20.02, 133.93 22.93, 123.2 24.18 C112.47 25.44, 95.11 25.86, 82.25 25.84 C69.39 25.82, 56.67 24.42, 46.03 24.06 C35.38 23.69, 26.25 25.01, 18.39 23.67 C10.53 22.32, 0.91 17.92, -1.16 15.98 C-3.22 14.04, 1.34 14.58, 6.01 12.04 C10.68 9.49, 17.87 2.74, 26.88 0.73 C35.88 -1.29, 48.38 -0.39, 60.05 -0.04 C71.71 0.3, 90.03 2.43, 96.85 2.8 C103.68 3.17, 101.27 2.05, 100.99 2.19" stroke="#343a40" stroke-width="2" fill="none"></path></g><g stroke-linecap="round" transform="translate(368.48847690448156 481.27667128686244) rotate(0 81.23749477516162 13.679174306372886)"><path d="M18.02 3.4 C25.04 1.79, 38.77 3.24, 50.22 2.38 C61.67 1.51, 74.57 -1.45, 86.69 -1.79 C98.81 -2.14, 111.94 -1.04, 122.95 0.33 C133.96 1.7, 146.12 4.34, 152.76 6.41 C159.4 8.48, 162.14 10.67, 162.8 12.74 C163.46 14.8, 161.78 16.59, 156.74 18.78 C151.7 20.96, 142.54 24.68, 132.55 25.83 C122.57 26.98, 109.56 25.46, 96.82 25.68 C84.09 25.89, 68.63 27.32, 56.17 27.14 C43.71 26.95, 30.51 26.4, 22.05 24.56 C13.59 22.72, 8.81 18.21, 5.42 16.08 C2.03 13.95, -1.18 13.99, 1.7 11.78 C4.57 9.57, 18.13 4.08, 22.68 2.83 C27.23 1.58, 28.27 3.94, 28.99 4.3 M15.73 3.55 C21.64 1.48, 35.26 0.34, 47.23 0.04 C59.21 -0.26, 75.26 1, 87.6 1.76 C99.93 2.52, 110.64 4.18, 121.25 4.6 C131.85 5.01, 144.83 2.46, 151.23 4.27 C157.62 6.08, 159.08 12.49, 159.61 15.44 C160.14 18.4, 159.57 20.17, 154.42 21.99 C149.27 23.82, 138.83 25.05, 128.7 26.39 C118.57 27.73, 105.12 29.67, 93.62 30.04 C82.12 30.41, 70.9 29.92, 59.69 28.61 C48.47 27.3, 35.55 24.24, 26.33 22.19 C17.12 20.14, 8.82 17.71, 4.38 16.31 C-0.05 14.9, -2.66 15.92, -0.25 13.77 C2.16 11.61, 15.71 5.03, 18.86 3.4 C22.01 1.77, 18.11 3.22, 18.65 3.97" stroke="none" stroke-width="0" fill="#ced4da"></path><path d="M84.76 -0.68 C96.67 -0.74, 110.04 0.5, 121 1.5 C131.95 2.5, 143.71 3.3, 150.48 5.33 C157.26 7.36, 160.78 11.45, 161.66 13.68 C162.54 15.92, 160.67 16.92, 155.76 18.75 C150.86 20.57, 141.68 23.07, 132.22 24.61 C122.75 26.14, 111 27.28, 98.97 27.95 C86.93 28.61, 72.46 29.58, 59.99 28.6 C47.52 27.61, 33.5 23.86, 24.14 22.04 C14.78 20.21, 7.86 19.51, 3.8 17.66 C-0.25 15.81, -2.4 12.98, -0.21 10.95 C1.98 8.92, 9.14 7.15, 16.94 5.48 C24.74 3.8, 32.15 1.91, 46.59 0.9 C61.02 -0.11, 91.26 -1.04, 103.55 -0.58 C115.84 -0.11, 121.08 3.21, 120.33 3.69 M78.77 2.69 C90.6 2.09, 108.51 -1.15, 120.48 -0.82 C132.46 -0.49, 143.88 2.94, 150.63 4.66 C157.37 6.37, 160.36 6.76, 160.96 9.48 C161.56 12.21, 158.83 18.76, 154.24 21.01 C149.65 23.25, 142.65 21.82, 133.41 22.94 C124.18 24.06, 111.15 26.57, 98.84 27.71 C86.54 28.85, 71.22 30.76, 59.58 29.78 C47.95 28.81, 38.08 23.51, 29.06 21.86 C20.04 20.22, 9.73 21.38, 5.48 19.9 C1.22 18.42, 2.49 15.29, 3.52 12.99 C4.54 10.68, 5 8.29, 11.63 6.08 C18.25 3.86, 31.18 0.26, 43.25 -0.31 C55.32 -0.88, 77.4 2.84, 84.05 2.64 C90.7 2.43, 83.25 -1.5, 83.16 -1.53" stroke="#343a40" stroke-width="2" fill="none"></path></g><g stroke-linecap="round" transform="translate(368.48847690448156 465.72709491725277) rotate(0 81.23749477516162 13.679174306372886)"><path d="M30.96 4.64 C39.94 3.22, 57.38 1.06, 69.8 0.3 C82.23 -0.47, 94.08 -0.91, 105.52 0.05 C116.95 1.01, 129.49 4.32, 138.42 6.04 C147.36 7.76, 155.44 8.38, 159.13 10.39 C162.82 12.39, 163.2 15.82, 160.56 18.07 C157.93 20.33, 151.08 22.33, 143.33 23.93 C135.58 25.52, 125.8 27.17, 114.05 27.65 C102.3 28.13, 85.52 27.46, 72.83 26.81 C60.14 26.16, 48.05 24.5, 37.9 23.75 C27.75 23.01, 18.52 23.88, 11.94 22.33 C5.37 20.77, -1 16.74, -1.55 14.45 C-2.09 12.16, 2.44 10.41, 8.65 8.59 C14.87 6.77, 29.97 4.77, 35.73 3.54 C41.5 2.31, 42.31 1.55, 43.25 1.21 M139.3 3.76 C147.92 5.6, 154.75 9.79, 158.56 11.61 C162.38 13.43, 164.35 12.78, 162.21 14.69 C160.06 16.59, 154.53 21.53, 145.69 23.02 C136.86 24.52, 120.86 23.09, 109.17 23.66 C97.49 24.22, 87.27 26.59, 75.59 26.39 C63.91 26.18, 49.69 23.84, 39.09 22.44 C28.49 21.04, 18.02 18.98, 11.99 18 C5.96 17.02, 3.17 17.87, 2.92 16.55 C2.67 15.23, 5.51 12.3, 10.46 10.09 C15.42 7.88, 22.99 5.2, 32.65 3.28 C42.32 1.36, 55.37 -1.29, 68.45 -1.44 C81.53 -1.59, 99.34 1.38, 111.13 2.37 C122.91 3.36, 134.61 4.39, 139.15 4.5 C143.69 4.6, 138.75 2.7, 138.36 3" stroke="none" stroke-width="0" fill="#ced4da"></path><path d="M95.46 0.17 C107.51 0.32, 121.45 2.77, 131.29 4.02 C141.14 5.26, 149.14 5.97, 154.52 7.63 C159.9 9.29, 164.24 11.98, 163.57 13.99 C162.89 16, 157.15 17.69, 150.47 19.69 C143.78 21.69, 134.08 24.64, 123.46 25.99 C112.85 27.35, 99.11 28.03, 86.77 27.81 C74.42 27.58, 61.26 25.72, 49.39 24.65 C37.51 23.58, 23.61 23.02, 15.51 21.41 C7.41 19.8, 2.86 16.76, 0.79 14.98 C-1.29 13.21, -0.78 12.43, 3.07 10.76 C6.92 9.09, 14.92 6.59, 23.88 4.98 C32.84 3.36, 41.18 1.67, 56.84 1.07 C72.5 0.47, 104.17 1.19, 117.85 1.4 C131.52 1.61, 139.29 2.1, 138.91 2.33 M133.38 4.03 C143.19 5.95, 147.95 8.72, 152.56 10.28 C157.18 11.85, 161.74 12.15, 161.07 13.4 C160.41 14.66, 154.36 16.05, 148.58 17.8 C142.8 19.54, 136.83 22.53, 126.39 23.87 C115.95 25.2, 98.78 25.74, 85.94 25.81 C73.11 25.89, 60.26 24.59, 49.38 24.32 C38.49 24.04, 28.95 25.45, 20.63 24.16 C12.31 22.87, 2.09 18.52, -0.53 16.6 C-3.16 14.67, 0.74 15.2, 4.86 12.63 C8.99 10.05, 15.62 3.24, 24.23 1.16 C32.84 -0.92, 45 -0.12, 56.5 0.13 C68 0.39, 80.42 1.96, 93.22 2.68 C106.03 3.4, 127.55 4.03, 133.33 4.43 C139.11 4.82, 128.98 5.47, 127.9 5.04" stroke="#343a40" stroke-width="2" fill="none"></path></g><g stroke-linecap="round" transform="translate(368.48847690448156 450.1775185476431) rotate(0 81.23749477516162 13.679174306372886)"><path d="M108.39 1.88 C120.07 2.3, 131.24 1.28, 139.58 2.31 C147.92 3.35, 154.58 5.81, 158.44 8.11 C162.3 10.4, 164.97 13.75, 162.72 16.07 C160.48 18.4, 152.88 20.48, 144.95 22.07 C137.02 23.67, 126.53 24.55, 115.17 25.65 C103.8 26.75, 89.37 28.97, 76.78 28.66 C64.19 28.36, 50.65 25.09, 39.63 23.82 C28.61 22.54, 17.49 22.39, 10.66 21.02 C3.82 19.65, -1.16 18.03, -1.36 15.58 C-1.56 13.13, 3.87 8.32, 9.48 6.3 C15.09 4.28, 22.46 4.71, 32.3 3.44 C42.13 2.16, 54.48 -1.04, 68.51 -1.32 C82.54 -1.6, 107.59 1.24, 116.47 1.78 C125.34 2.32, 122.84 1.53, 121.75 1.92 M107.38 -0.4 C119.56 0.65, 133.7 3.9, 142.07 6.08 C150.43 8.26, 154.4 11.32, 157.56 12.68 C160.73 14.05, 163.88 12.21, 161.07 14.27 C158.26 16.33, 149.05 22.61, 140.72 25.07 C132.4 27.53, 122.76 28.34, 111.13 29.04 C99.5 29.73, 83.68 29.4, 70.93 29.24 C58.17 29.07, 44.26 29.21, 34.6 28.04 C24.93 26.87, 18.27 24.75, 12.93 22.23 C7.59 19.7, 3.21 15.55, 2.56 12.88 C1.91 10.21, 4.17 7.48, 9.04 6.2 C13.91 4.92, 21.46 6.5, 31.77 5.18 C42.08 3.86, 58.17 -0.72, 70.9 -1.69 C83.62 -2.67, 102.29 -1.43, 108.12 -0.67 C113.95 0.08, 106.21 2.24, 105.91 2.84" stroke="none" stroke-width="0" fill="#ced4da"></path><path d="M51.39 0.7 C62.06 -0.27, 78.63 -1.31, 91.07 -0.83 C103.51 -0.35, 115.87 2.27, 126.05 3.58 C136.22 4.89, 146.23 5.29, 152.12 7.01 C158 8.74, 161.01 11.64, 161.36 13.93 C161.72 16.23, 159.67 18.67, 154.23 20.78 C148.79 22.88, 139.32 25.77, 128.71 26.57 C118.1 27.38, 103.24 25.71, 90.58 25.62 C77.92 25.53, 64.5 26.61, 52.74 26.03 C40.97 25.46, 28.17 23.7, 20.01 22.19 C11.86 20.69, 6.63 19.03, 3.81 17.02 C1 15, 0.39 12.31, 3.12 10.09 C5.85 7.86, 6.54 5.06, 20.21 3.66 C33.88 2.26, 69.2 1.93, 85.15 1.69 C101.09 1.44, 115.9 2.03, 115.86 2.19 M83.73 -2.41 C96.56 -3.25, 111.79 -0.61, 122.48 0.37 C133.16 1.35, 141.74 1.1, 147.86 3.48 C153.98 5.87, 157.95 12.3, 159.19 14.67 C160.43 17.04, 159.71 16.03, 155.28 17.72 C150.85 19.4, 142.24 22.77, 132.62 24.79 C122.99 26.82, 109.22 29.83, 97.53 29.85 C85.84 29.86, 74.28 25.66, 62.48 24.89 C50.68 24.11, 35.85 26.12, 26.72 25.2 C17.59 24.27, 12.53 21.53, 7.72 19.34 C2.9 17.14, -3.33 14.6, -2.18 12.03 C-1.04 9.45, 6.38 5.2, 14.6 3.88 C22.81 2.56, 35.53 5.05, 47.12 4.1 C58.71 3.16, 77.9 -1.35, 84.13 -1.8 C90.37 -2.25, 85.14 1.29, 84.51 1.4" stroke="#343a40" stroke-width="2" fill="none"></path></g><g stroke-linecap="round" transform="translate(368.48847690448156 434.6279421780337) rotate(0 81.23749477516162 13.679174306372914)"><path d="M101.29 0.5 C113.2 0.34, 123.83 1.03, 132.83 2.7 C141.83 4.37, 150.49 8.36, 155.3 10.52 C160.11 12.68, 162.88 13.6, 161.7 15.67 C160.52 17.75, 155.37 21.02, 148.25 22.96 C141.12 24.89, 129.79 26.33, 118.94 27.29 C108.1 28.25, 95.91 29.04, 83.18 28.72 C70.45 28.39, 53.89 26.78, 42.55 25.34 C31.21 23.9, 21.92 21.42, 15.15 20.08 C8.38 18.74, 3.87 19.11, 1.93 17.29 C-0.02 15.48, -0.8 11.37, 3.47 9.21 C7.74 7.05, 18.18 5.58, 27.55 4.34 C36.93 3.1, 43.31 2.26, 59.7 1.78 C76.08 1.3, 111.83 1.14, 125.87 1.46 C139.92 1.77, 144.52 3.25, 143.98 3.68 M39.89 3.25 C50.26 1.86, 66.99 -1.77, 80.2 -2 C93.41 -2.24, 108.48 1.02, 119.14 1.83 C129.8 2.63, 136.66 1.34, 144.15 2.81 C151.64 4.28, 161.31 8.56, 164.09 10.66 C166.87 12.77, 165 13.67, 160.84 15.45 C156.67 17.22, 148.19 19, 139.09 21.34 C130 23.67, 118.39 28.07, 106.27 29.45 C94.15 30.83, 79.36 30.35, 66.37 29.6 C53.38 28.85, 38.57 26.96, 28.32 24.93 C18.06 22.89, 9.11 19.2, 4.86 17.39 C0.62 15.58, 1.83 15.9, 2.86 14.07 C3.88 12.23, 4.88 8.69, 11 6.38 C17.13 4.07, 34.17 0.76, 39.61 0.2 C45.06 -0.37, 42.62 2.43, 43.67 3" stroke="none" stroke-width="0" fill="#ced4da"></path><path d="M125.63 3.33 C136.24 4.2, 145.06 5, 151.4 6.58 C157.75 8.16, 163.31 10.8, 163.71 12.81 C164.12 14.83, 159.57 16.57, 153.84 18.66 C148.1 20.75, 139.31 23.84, 129.29 25.34 C119.27 26.85, 105.95 27.73, 93.71 27.69 C81.47 27.65, 68.14 25.99, 55.86 25.09 C43.58 24.19, 28.95 23.8, 20.03 22.3 C11.1 20.81, 5.44 17.87, 2.32 16.13 C-0.81 14.4, -1.54 13.61, 1.26 11.9 C4.07 10.18, 10.98 7.58, 19.14 5.84 C27.31 4.1, 38.76 2.45, 50.26 1.46 C61.77 0.47, 72.6 -0.31, 88.16 -0.1 C103.71 0.12, 132.8 1.46, 143.58 2.76 C154.35 4.05, 153.86 7.2, 152.79 7.66 M13.56 7.88 C19.06 5.78, 33.34 2.18, 44.64 0.39 C55.94 -1.39, 68.18 -2.82, 81.38 -2.83 C94.58 -2.84, 112.62 -0.93, 123.83 0.34 C135.03 1.61, 142.09 3.07, 148.6 4.78 C155.11 6.49, 161.16 7.91, 162.9 10.6 C164.64 13.29, 164.33 18.57, 159.01 20.9 C153.7 23.22, 140.94 23.03, 131 24.53 C121.07 26.04, 111.24 30.06, 99.43 29.95 C87.62 29.84, 72.47 25.04, 60.15 23.9 C47.84 22.75, 35.16 23.63, 25.56 23.08 C15.95 22.52, 6.16 22.23, 2.5 20.57 C-1.16 18.92, 1.66 15.35, 3.6 13.17 C5.55 11, 11.71 9.12, 14.18 7.53 C16.65 5.94, 17.44 4.29, 18.41 3.64" stroke="#343a40" stroke-width="2" fill="none"></path></g><g stroke-linecap="round" transform="translate(368.48847690448156 419.07836580842405) rotate(0 81.23749477516162 13.679174306372914)"><path d="M17.97 3.3 C24.08 1.12, 36.23 0.05, 48.04 -0.54 C59.85 -1.12, 76.08 -0.62, 88.82 -0.22 C101.56 0.18, 113.81 0.8, 124.48 1.86 C135.14 2.92, 146.24 4.07, 152.81 6.15 C159.38 8.23, 163.34 12.38, 163.92 14.35 C164.5 16.31, 161.94 16.19, 156.3 17.96 C150.67 19.73, 140.59 23.22, 130.13 24.96 C119.67 26.7, 105.56 28.4, 93.55 28.42 C81.54 28.44, 69.76 25.85, 58.08 25.1 C46.4 24.34, 32.43 25.38, 23.45 23.88 C14.48 22.38, 7.68 18.14, 4.25 16.09 C0.82 14.04, -4.55 14.14, 2.85 11.6 C10.26 9.05, 34.72 2.41, 48.67 0.81 C62.62 -0.8, 85.81 1.9, 86.57 1.98 M39.24 3.86 C48.47 3.24, 60.26 3.52, 72.64 2.67 C85.01 1.82, 102.04 -2.06, 113.5 -1.24 C124.96 -0.42, 133.68 5.13, 141.41 7.61 C149.15 10.09, 157.38 11.67, 159.92 13.64 C162.46 15.6, 160.36 17.35, 156.64 19.42 C152.92 21.49, 145.43 24.54, 137.6 26.05 C129.76 27.57, 120.76 28.53, 109.62 28.52 C98.49 28.52, 83.53 26.91, 70.79 26.02 C58.05 25.13, 43.93 23.83, 33.18 23.18 C22.43 22.52, 11.55 24.08, 6.29 22.1 C1.03 20.12, 0.86 14.08, 1.64 11.3 C2.41 8.51, 5.18 6.64, 10.94 5.41 C16.7 4.18, 31.4 4.3, 36.18 3.94 C40.96 3.58, 38.51 2.91, 39.62 3.24" stroke="none" stroke-width="0" fill="#ced4da"></path><path d="M54.96 -0.11 C65.74 -0.73, 79.9 0.97, 92.08 1.39 C104.27 1.81, 117.97 1.32, 128.08 2.42 C138.2 3.52, 146.94 5.91, 152.77 7.98 C158.6 10.05, 163.02 12.5, 163.04 14.83 C163.07 17.17, 159.31 20.56, 152.91 22 C146.51 23.44, 135.3 22.67, 124.62 23.47 C113.94 24.27, 101.28 26.42, 88.82 26.79 C76.37 27.16, 61.24 26.41, 49.88 25.69 C38.51 24.96, 28.42 24.03, 20.61 22.45 C12.8 20.87, 5.91 18.44, 3.01 16.21 C0.11 13.98, 0.16 10.76, 3.21 9.07 C6.26 7.38, 7.04 7.51, 21.3 6.08 C35.57 4.66, 71.59 0.92, 88.79 0.52 C106 0.13, 124.39 3.89, 124.54 3.74 M147.11 3.86 C155.14 5.27, 158.55 5.8, 160.06 8.5 C161.56 11.2, 159.88 17.77, 156.15 20.06 C152.43 22.36, 146.32 21.03, 137.71 22.25 C129.11 23.48, 116.6 26.15, 104.54 27.44 C92.48 28.73, 77.19 30.81, 65.37 29.99 C53.55 29.17, 43.21 24.03, 33.61 22.5 C24.01 20.97, 12.86 22.24, 7.75 20.82 C2.65 19.4, 2.88 16.3, 3 13.98 C3.11 11.66, 2.57 9.21, 8.42 6.91 C14.28 4.61, 26.49 0.89, 38.1 0.18 C49.72 -0.53, 65.23 2.8, 78.14 2.67 C91.05 2.53, 104.12 -1.24, 115.56 -0.64 C127 -0.04, 142.45 5.7, 146.77 6.28 C151.08 6.85, 143.29 3.15, 141.44 2.78" stroke="#343a40" stroke-width="2" fill="none"></path></g><g transform="translate(573.9445597330732 240.3089334871142) rotate(0 46.5 54)"><text x="46.5" y="19" font-family="Virgil, Segoe UI Emoji" font-size="20px" fill="#495057" text-anchor="middle" style="white-space: pre;" direction="ltr"></text><text x="46.5" y="46" font-family="Virgil, Segoe UI Emoji" font-size="20px" fill="#495057" text-anchor="middle" style="white-space: pre;" direction="ltr"></text><text x="46.5" y="73" font-family="Virgil, Segoe UI Emoji" font-size="20px" fill="#495057" text-anchor="middle" style="white-space: pre;" direction="ltr">Domain</text><text x="46.5" y="100" font-family="Virgil, Segoe UI Emoji" font-size="20px" fill="#495057" text-anchor="middle" style="white-space: pre;" direction="ltr">Events</text></g><g stroke-linecap="round" transform="translate(379.2504138128934 377.7516677730166) rotate(0 69 15)"><path d="M3.02 3.03 L139.13 3.16 L135.11 31.42 L-3.9 28.95" stroke="none" stroke-width="0" fill="#ced4da"></path><path d="M-3.39 -3.18 C45.88 0.77, 95.37 -1.37, 138.17 0.68 M137.67 -1.37 C138.49 10.47, 135.17 14.33, 135.28 30.17 M136.12 31.82 C106.91 34.21, 72.53 36.22, 0.78 29.18 M2.02 27.07 C0.04 23.83, 1.74 11.52, -1.89 0.6" stroke="#343a40" stroke-width="2.5" fill="none" stroke-dasharray="8 10"></path></g><g transform="translate(408.7504138128934 382.7516677730166) rotate(0 39.5 10)"><text x="39.5" y="14" font-family="Virgil, Segoe UI Emoji" font-size="16px" fill="#343a40" text-anchor="middle" style="white-space: pre;" direction="ltr">Projection</text></g></svg>